{"glyphs":{"0":{"ha":903,"x_min":83,"x_max":888,"o":"m 365 -121 q 207 -70 269 -121 q 114 65 144 -19 q 83 251 83 150 q 106 447 83 343 q 173 648 129 550 q 280 826 217 746 q 422 953 343 906 q 596 1000 501 1000 q 749 956 683 1000 q 851 830 815 913 q 888 629 888 747 q 863 417 888 524 q 790 214 838 310 q 678 42 743 118 q 535 -77 614 -33 q 365 -121 456 -121 m 385 -61 q 505 -14 447 -61 q 610 112 563 33 q 694 287 658 190 q 749 484 729 383 q 768 675 768 585 q 751 816 768 754 q 697 914 735 878 q 596 950 660 950 q 481 914 533 950 q 386 817 429 878 q 311 681 343 757 q 258 524 279 606 q 225 366 236 443 q 214 226 214 289 q 260 17 214 96 q 385 -61 306 -61 z "},"1":{"ha":532,"x_min":-53,"x_max":472,"o":"m 81 -121 q 6 -103 39 -121 q -53 -50 -26 -85 q -20 -53 -33 -51 q 10 -54 -7 -54 q 81 -49 42 -54 q 156 -39 119 -44 q 203 100 181 17 q 245 278 225 183 q 283 470 265 374 q 316 650 300 567 q 346 793 332 733 q 238 726 269 742 q 189 710 206 710 q 160 720 171 710 q 150 761 150 731 q 228 810 178 775 q 340 895 279 846 q 456 999 401 944 q 469 978 465 992 q 472 949 472 964 q 460 879 472 915 q 442 797 449 843 q 409 598 428 704 q 366 381 390 492 q 310 166 342 271 q 239 -28 279 61 q 264 -26 251 -26 q 289 -25 276 -25 q 381 -42 342 -25 q 433 -117 421 -60 q 370 -110 401 -112 q 311 -108 339 -108 q 228 -111 271 -108 q 146 -117 185 -114 q 81 -121 107 -121 z "},"2":{"ha":813,"x_min":-14,"x_max":743,"o":"m 589 -121 q 490 -104 546 -121 q 372 -64 433 -87 q 253 -17 311 -40 q 167 -60 208 -44 q 90 -75 126 -75 q 15 -53 44 -75 q -14 7 -14 -31 q 13 58 -14 39 q 99 78 39 78 q 167 73 129 78 q 247 60 204 68 q 376 196 311 114 q 495 374 440 278 q 583 569 550 471 q 617 756 617 668 q 575 903 617 857 q 468 950 533 950 q 364 913 406 950 q 301 816 322 875 q 281 692 281 757 q 285 635 281 660 q 303 579 290 610 q 294 580 299 579 q 283 581 289 581 q 211 616 242 588 q 181 711 181 644 q 219 852 181 786 q 327 959 258 918 q 486 1000 396 1000 q 618 965 564 1000 q 700 869 672 929 q 728 733 728 808 q 712 610 728 674 q 669 483 696 546 q 580 320 633 401 q 463 167 526 239 q 332 42 399 96 q 501 7 426 21 q 622 -7 575 -7 q 678 2 654 -7 q 743 33 703 11 q 685 -83 722 -46 q 589 -121 649 -121 m 88 -25 q 131 -16 108 -25 q 179 10 154 -7 q 127 24 151 18 q 86 29 103 29 q 51 20 60 29 q 42 3 42 11 q 56 -17 42 -8 q 88 -25 71 -25 z "},"3":{"ha":738,"x_min":21,"x_max":683,"o":"m 264 -121 q 122 -89 175 -121 q 44 -10 68 -57 q 21 83 21 38 q 34 154 21 119 q 74 213 47 189 q 140 236 100 236 q 156 235 147 236 q 181 232 164 235 q 142 174 157 213 q 126 99 126 135 q 145 21 126 58 q 198 -40 164 -17 q 276 -64 232 -64 q 381 -26 331 -64 q 465 77 432 11 q 497 229 497 143 q 481 335 497 283 q 427 428 465 388 q 321 486 389 468 q 450 575 396 518 q 533 699 504 632 q 563 824 563 765 q 524 922 563 893 q 438 950 486 950 q 365 934 400 950 q 306 887 329 918 q 282 811 282 856 q 288 766 282 790 q 308 717 294 742 q 281 686 300 701 q 244 671 263 671 q 212 690 226 671 q 190 735 197 708 q 183 789 183 763 q 224 903 183 857 q 326 975 264 950 q 454 1000 389 1000 q 565 978 513 1000 q 650 915 617 957 q 683 810 683 872 q 666 719 683 767 q 618 629 649 672 q 545 553 588 586 q 454 501 503 519 q 573 433 529 478 q 635 336 617 389 q 654 235 654 283 q 626 106 654 169 q 544 -8 597 43 q 421 -90 492 -60 q 264 -121 350 -121 z "},"4":{"ha":692,"x_min":-1,"x_max":681,"o":"m 453 -121 q 363 -98 394 -117 q 331 -49 331 -79 q 333 -22 331 -43 q 342 46 335 -1 q 365 176 350 93 q 378 238 371 199 q 394 322 385 278 q 335 325 365 324 q 290 326 306 326 q 238 325 269 326 q 169 322 206 324 q 99 317 133 319 q 38 310 64 314 q -1 303 11 307 q 15 355 -1 333 q 53 396 31 376 q 179 519 106 449 q 335 672 253 590 q 492 838 418 753 q 619 1000 567 922 q 638 986 628 996 q 647 956 647 976 q 619 879 647 922 q 598 779 613 847 q 565 615 583 711 q 525 407 547 519 q 542 407 533 407 q 560 407 551 407 q 628 410 603 407 q 681 421 654 413 q 607 350 649 378 q 526 321 565 322 q 519 321 524 321 q 510 321 514 321 q 504 292 507 311 q 497 249 501 274 q 484 163 492 213 q 469 58 476 113 q 457 -44 461 4 q 453 -121 453 -92 m 147 410 q 208 413 175 413 q 276 414 240 414 q 349 413 314 414 q 414 411 383 413 q 451 581 432 497 q 492 733 471 664 q 396 644 447 690 q 295 552 344 597 q 201 464 246 507 q 174 436 188 450 q 147 410 160 422 z "},"5":{"ha":699,"x_min":7,"x_max":693,"o":"m 257 -121 q 108 -89 163 -121 q 30 -10 53 -57 q 7 82 7 36 q 20 153 7 118 q 60 213 33 189 q 126 236 86 236 q 142 235 133 236 q 167 232 150 235 q 128 174 143 213 q 114 94 114 136 q 128 19 114 56 q 174 -40 142 -17 q 256 -64 206 -64 q 353 -37 311 -64 q 426 35 396 -10 q 471 133 456 79 q 486 239 486 186 q 467 343 486 294 q 408 422 449 392 q 299 451 367 451 q 238 447 274 451 q 160 435 201 443 q 179 538 165 478 q 211 665 193 599 q 248 796 229 732 q 282 911 267 860 q 304 992 297 963 q 389 978 350 982 q 460 974 428 974 q 573 982 519 974 q 685 1001 626 990 q 691 975 689 986 q 693 953 693 964 q 665 890 693 913 q 596 857 638 867 q 513 847 554 847 q 423 856 461 847 q 357 864 385 864 q 344 860 349 864 q 333 844 339 856 q 308 785 321 824 q 283 702 294 747 q 260 613 271 657 q 240 537 249 569 q 228 492 232 504 q 286 501 257 497 q 344 504 315 504 q 508 469 443 504 q 604 373 572 433 q 636 235 636 313 q 588 56 636 136 q 455 -73 540 -25 q 257 -121 369 -121 z "},"6":{"ha":807,"x_min":76,"x_max":764,"o":"m 378 -121 q 204 -74 271 -121 q 107 52 138 -28 q 76 229 76 132 q 101 426 76 321 q 171 633 125 532 q 284 817 217 735 q 436 950 351 900 q 621 1000 521 1000 q 723 979 682 1000 q 764 914 764 958 q 749 873 764 893 q 688 840 733 853 q 689 862 688 851 q 690 883 690 872 q 676 934 690 913 q 617 956 661 956 q 492 910 550 956 q 388 791 435 865 q 306 626 342 717 q 247 446 269 536 q 355 506 294 485 q 479 526 415 526 q 613 497 551 526 q 713 408 675 468 q 750 251 750 347 q 703 62 750 146 q 572 -72 656 -22 q 378 -121 489 -121 m 385 -64 q 480 -35 438 -64 q 551 39 522 -7 q 597 142 581 85 q 613 257 613 200 q 589 376 613 331 q 524 444 565 422 q 432 465 483 465 q 305 427 353 465 q 236 328 257 389 q 215 199 215 268 q 223 116 215 161 q 248 30 231 71 q 299 -37 265 -11 q 385 -64 333 -64 z "},"7":{"ha":593,"x_min":90,"x_max":726,"o":"m 160 -121 q 122 -103 139 -121 q 104 -51 104 -86 q 128 54 104 -14 q 192 213 151 122 q 285 408 233 304 q 224 406 258 408 q 153 401 189 404 q 90 394 118 399 q 121 459 92 438 q 197 489 150 481 q 296 499 243 497 q 315 499 306 499 q 332 499 324 499 q 433 667 375 571 q 556 869 490 764 q 487 867 525 869 q 411 863 449 865 q 340 861 374 861 q 217 882 251 861 q 183 933 183 903 q 206 999 183 961 q 288 985 247 992 q 372 974 328 978 q 469 971 417 971 q 605 979 536 971 q 726 1004 674 988 q 687 949 708 979 q 644 893 665 919 q 531 710 585 807 q 419 493 476 614 q 478 489 450 490 q 538 488 507 488 q 576 489 558 488 q 613 494 594 490 q 551 431 582 454 q 485 408 521 408 q 436 408 463 408 q 381 408 410 408 q 327 283 356 351 q 279 147 299 214 q 260 28 260 81 q 263 -6 260 10 q 279 -29 267 -21 q 217 -101 254 -81 q 160 -121 179 -121 z "},"8":{"ha":763,"x_min":53,"x_max":685,"o":"m 313 -121 q 188 -99 238 -121 q 109 -41 139 -76 q 66 35 79 -6 q 53 114 53 76 q 81 222 53 174 q 152 312 108 271 q 249 391 196 353 q 353 468 301 429 q 276 555 314 510 q 216 652 239 600 q 193 768 193 704 q 233 901 193 851 q 335 975 272 951 q 460 999 397 999 q 622 947 558 999 q 685 793 685 896 q 658 672 685 726 q 587 572 631 618 q 488 483 543 526 q 576 390 535 438 q 644 289 618 342 q 669 172 669 236 q 618 17 669 83 q 485 -85 567 -49 q 313 -121 403 -121 m 325 -54 q 425 -27 376 -54 q 506 50 474 0 q 539 165 539 100 q 497 300 539 240 q 400 419 456 360 q 281 330 338 376 q 189 231 225 283 q 153 115 153 179 q 178 25 153 64 q 242 -34 203 -14 q 325 -54 282 -54 m 442 533 q 548 650 506 588 q 590 793 590 713 q 553 910 590 871 q 463 949 515 949 q 398 933 432 949 q 340 881 364 917 q 315 785 315 844 q 352 651 315 711 q 442 533 389 590 z "},"9":{"ha":815,"x_min":129,"x_max":800,"o":"m 283 -121 q 180 -99 222 -121 q 138 -32 138 -78 q 152 9 138 -11 q 211 42 167 29 q 211 22 211 32 q 213 1 211 13 q 231 -53 215 -29 q 288 -76 246 -76 q 408 -31 353 -76 q 508 88 464 14 q 585 253 553 163 q 635 433 617 343 q 530 375 590 396 q 406 354 469 354 q 267 385 331 354 q 167 481 204 417 q 129 640 129 544 q 174 826 129 744 q 299 953 218 907 q 486 1000 379 1000 q 670 948 601 1000 q 769 810 739 896 q 800 621 800 724 q 777 424 800 526 q 710 224 754 321 q 604 50 667 128 q 461 -74 542 -28 q 283 -121 381 -121 m 456 414 q 610 480 561 414 q 658 653 658 546 q 650 749 658 699 q 622 844 642 800 q 568 915 603 888 q 481 943 533 943 q 390 916 431 943 q 321 844 349 889 q 278 745 293 800 q 264 635 264 690 q 289 510 264 560 q 358 438 314 461 q 456 414 401 414 z "}," ":{"ha":361,"x_min":0,"x_max":0,"o":""},"A":{"ha":858,"x_min":-8,"x_max":844,"o":"m 50 -121 q 2 -78 13 -100 q -8 -39 -8 -56 q 19 63 -8 -1 q 94 210 47 128 q 199 383 140 293 q 115 388 153 386 q 28 389 76 389 l -4 389 q 55 455 14 436 q 151 474 96 474 q 201 471 175 474 q 254 465 226 468 q 393 660 324 567 q 524 826 463 753 q 632 944 586 900 q 719 1001 690 1001 q 760 988 738 1001 q 807 951 782 974 q 772 894 793 940 q 726 776 750 847 q 677 621 701 706 q 633 449 653 536 q 602 283 614 363 q 590 143 590 204 q 601 61 590 89 q 639 33 613 33 q 719 83 672 33 q 824 240 767 132 l 844 218 q 734 32 801 104 q 592 -40 667 -40 q 502 15 529 -40 q 475 165 475 69 q 480 246 475 201 q 494 349 485 290 q 385 364 433 358 q 293 375 336 369 q 165 130 228 257 q 50 -121 103 3 m 507 410 q 552 583 526 496 q 606 749 578 669 q 661 892 635 829 q 566 797 619 861 q 454 643 513 732 q 335 450 396 554 q 422 430 379 440 q 507 410 465 419 z "},"B":{"ha":883,"x_min":47,"x_max":832,"o":"m 213 -121 q 89 -94 131 -121 q 47 -4 47 -67 q 58 7 47 7 q 96 0 71 7 q 193 -7 121 -7 q 417 19 314 -7 q 594 91 519 46 q 711 192 669 136 q 753 308 753 249 q 720 397 753 364 q 635 448 688 431 q 519 472 582 465 q 396 478 457 478 q 343 477 369 478 q 293 476 317 476 q 232 255 261 368 q 171 35 203 142 q 103 56 131 35 q 75 107 75 76 q 81 142 75 121 q 94 188 86 163 q 123 276 103 214 q 172 424 143 339 q 235 602 200 508 q 307 785 269 696 q 381 946 344 875 q 287 917 324 935 q 228 887 250 900 q 196 874 207 874 q 176 883 189 874 q 154 903 164 892 q 144 922 144 914 q 297 976 218 953 q 488 1000 375 1000 q 594 992 536 1000 q 706 962 653 985 q 792 894 758 939 q 826 775 826 850 q 799 667 826 713 q 728 591 772 622 q 631 540 683 560 q 526 510 578 521 q 678 477 618 501 q 771 421 738 453 q 818 354 804 389 q 832 286 832 319 q 789 140 832 206 q 676 26 746 75 q 524 -55 607 -22 q 360 -104 442 -87 q 213 -121 278 -121 m 304 522 q 457 540 382 525 q 593 585 532 554 q 691 665 654 615 q 728 786 728 714 q 692 892 728 856 q 601 944 657 929 q 481 958 544 958 q 474 958 476 958 q 467 957 471 958 q 380 751 419 863 q 304 522 340 640 z "},"C":{"ha":775,"x_min":40,"x_max":779,"o":"m 332 -121 q 165 -71 229 -121 q 70 58 100 -21 q 40 221 40 136 q 74 441 40 331 q 165 652 107 551 q 298 831 224 753 q 456 953 372 908 q 624 999 540 999 q 723 971 683 999 q 763 875 763 943 q 748 782 763 833 q 709 683 733 731 q 655 606 685 636 q 594 575 625 575 q 568 584 582 575 q 543 614 554 593 q 590 672 564 638 q 639 746 615 707 q 678 822 663 785 q 693 888 693 858 q 678 928 693 913 q 628 944 664 944 q 503 897 568 944 q 379 772 439 850 q 271 597 319 693 q 194 398 222 500 q 167 204 167 296 q 186 76 167 138 q 250 -23 206 15 q 365 -61 294 -61 q 514 -19 440 -61 q 649 90 588 22 q 749 238 711 158 l 779 217 q 664 48 731 125 q 513 -75 597 -29 q 332 -121 429 -121 z "},"D":{"ha":938,"x_min":90,"x_max":932,"o":"m 251 -121 q 163 -108 206 -121 q 90 -54 121 -96 q 116 59 99 -10 q 157 209 133 128 q 206 374 181 290 q 256 532 232 457 q 300 663 281 607 q 329 746 319 719 q 343 779 333 757 q 367 824 353 801 q 401 863 382 847 q 444 879 421 879 q 492 863 467 879 q 405 644 449 764 q 322 399 361 525 q 249 152 282 272 q 194 -67 215 32 q 226 -73 208 -71 q 261 -75 244 -75 q 433 -32 350 -75 q 585 83 515 11 q 706 247 654 156 q 787 438 758 339 q 815 628 815 536 q 778 812 815 740 q 675 917 740 883 q 524 950 610 950 q 361 916 433 950 q 248 824 289 882 q 207 693 207 767 q 210 661 207 676 q 217 631 213 646 q 139 656 163 631 q 115 717 115 681 q 151 815 115 765 q 248 906 186 864 q 392 974 310 949 q 568 1000 474 1000 q 780 949 700 1000 q 896 810 860 897 q 932 614 932 722 q 894 385 932 494 q 790 183 857 275 q 635 23 722 92 q 450 -83 549 -46 q 251 -121 351 -121 z "},"E":{"ha":724,"x_min":-11,"x_max":728,"o":"m 276 -121 q 124 -85 189 -121 q 24 8 60 -50 q -11 138 -11 67 q 16 260 -11 200 q 92 369 43 319 q 205 453 140 419 q 346 496 269 486 q 269 596 294 540 q 243 710 243 651 q 281 849 243 783 q 385 957 318 915 q 540 999 453 999 q 666 958 622 999 q 710 842 710 918 q 691 740 710 789 q 645 660 672 690 q 593 629 618 629 q 559 645 575 629 q 532 682 543 661 q 617 772 582 725 q 653 871 653 819 q 626 935 653 913 q 553 957 599 957 q 447 919 490 957 q 381 820 403 881 q 360 693 360 760 q 379 576 360 636 q 454 474 399 517 q 285 404 357 458 q 173 278 213 350 q 133 135 133 206 q 151 45 133 92 q 208 -33 168 -1 q 314 -64 247 -64 q 463 -22 389 -64 q 597 90 536 21 q 696 238 658 158 l 728 217 q 608 44 676 121 q 457 -76 540 -32 q 276 -121 374 -121 z "},"F":{"ha":706,"x_min":99,"x_max":903,"o":"m 244 -121 q 153 -85 174 -115 q 133 -10 133 -56 q 152 114 133 42 q 201 269 171 186 q 265 436 231 353 q 221 432 249 435 q 161 426 193 429 q 100 417 129 422 q 131 481 104 458 q 202 515 158 504 q 297 526 246 525 q 374 726 335 629 q 451 904 413 824 q 430 906 442 906 q 400 907 418 907 q 267 889 314 907 q 202 836 219 871 q 185 750 185 801 q 190 689 185 717 q 208 631 196 661 q 124 671 150 640 q 99 747 99 701 q 151 874 99 819 q 294 961 204 929 q 494 993 383 993 q 640 983 568 993 q 775 974 711 974 q 838 978 808 974 q 903 992 867 982 q 802 900 842 924 q 724 876 763 876 q 638 885 690 876 q 524 900 586 894 q 485 794 506 854 q 442 665 464 733 q 396 525 419 596 q 527 513 468 519 q 650 503 586 506 q 619 470 636 482 q 575 453 603 458 q 499 446 547 449 q 372 442 450 443 q 349 363 361 404 q 327 288 336 321 q 314 246 318 256 q 261 34 278 121 q 244 -121 244 -53 z "},"G":{"ha":797,"x_min":40,"x_max":779,"o":"m 317 -121 q 178 -80 240 -121 q 78 39 115 -39 q 40 226 40 117 q 74 443 40 333 q 165 652 107 553 q 297 830 222 751 q 455 953 372 908 q 621 999 538 999 q 714 976 679 999 q 764 916 749 953 q 779 838 779 879 q 762 741 779 789 q 715 661 744 693 q 651 629 686 629 q 623 638 636 629 q 599 671 610 647 q 644 720 618 685 q 689 799 669 756 q 708 876 708 842 q 690 925 708 906 q 631 944 672 944 q 503 897 568 944 q 378 772 438 850 q 269 596 318 693 q 193 398 221 499 q 165 207 165 297 q 219 10 165 81 q 351 -61 274 -61 q 456 -24 407 -61 q 541 74 504 14 q 600 206 578 135 q 628 343 622 276 q 553 355 588 351 q 482 358 518 358 q 440 358 461 358 q 393 357 418 357 q 431 423 404 403 q 497 443 457 443 q 581 430 539 443 q 666 401 624 417 q 746 378 708 386 l 733 333 q 692 208 708 260 q 667 120 676 157 q 656 54 658 83 q 653 -3 653 25 q 654 -60 653 -31 q 657 -126 656 -89 q 603 -103 622 -119 q 576 -62 583 -86 q 569 -15 569 -39 q 570 4 569 -6 q 574 25 571 14 q 461 -80 525 -39 q 317 -121 397 -121 z "},"H":{"ha":899,"x_min":92,"x_max":918,"o":"m 92 -121 q 111 -20 100 -71 q 138 94 122 31 q 179 238 154 157 q 239 429 204 319 q 194 425 218 428 q 149 419 171 422 q 181 483 149 461 q 268 517 214 506 q 281 557 275 539 q 294 598 288 575 q 313 652 301 621 q 342 733 325 683 q 383 857 358 783 q 394 888 388 867 q 401 929 401 910 q 398 944 401 940 q 383 949 394 949 q 324 923 353 949 q 271 858 294 897 q 233 776 247 818 q 219 701 219 733 q 222 676 219 689 q 231 643 224 663 q 153 668 176 643 q 129 731 129 693 q 158 825 129 778 q 231 912 186 872 q 325 976 275 951 q 417 1000 375 1000 q 474 977 458 1000 q 489 926 489 954 q 485 896 489 911 q 478 867 482 881 l 375 528 q 410 529 392 529 q 447 529 429 529 q 574 526 515 529 q 689 518 633 524 q 746 703 721 625 q 791 837 771 782 q 826 925 811 892 q 842 954 832 936 q 870 987 851 972 q 918 1001 889 1001 q 874 872 900 951 q 822 698 849 792 q 772 511 796 604 q 826 509 794 511 q 888 507 858 507 q 817 458 849 467 q 757 449 785 449 q 731 335 743 389 q 710 232 718 281 q 682 62 690 133 q 674 -56 674 -10 q 675 -91 674 -75 q 679 -121 676 -107 q 590 -87 614 -114 q 565 1 565 -61 q 572 79 565 35 q 592 179 578 124 q 622 295 603 228 q 668 447 642 363 q 527 446 583 447 q 429 443 471 444 q 346 438 388 442 q 325 368 338 407 q 297 276 313 329 q 258 149 281 224 q 201 -28 235 75 q 151 -99 186 -78 q 92 -121 117 -121 z "},"I":{"ha":678,"x_min":-35,"x_max":810,"o":"m -35 -122 q 3 -40 -29 -65 q 88 -6 36 -14 q 200 1 140 1 q 249 131 225 56 q 294 293 272 207 q 338 469 317 379 q 377 644 358 560 q 413 796 396 728 q 444 907 429 864 q 319 902 372 906 q 219 892 265 899 q 121 875 172 885 q 204 969 133 939 q 419 999 275 999 q 569 993 492 999 q 710 981 646 988 q 810 968 774 974 q 727 918 767 928 q 657 908 688 908 q 576 908 613 908 q 507 907 540 908 q 487 801 499 867 q 460 656 475 735 q 431 497 446 578 q 402 346 417 417 q 375 226 388 275 q 330 89 356 149 q 269 0 304 29 q 420 -15 343 -6 q 579 -26 497 -24 q 481 -85 529 -74 q 401 -97 433 -97 q 263 -98 322 -97 q 156 -101 204 -99 q 63 -108 108 -103 q -35 -122 18 -114 z "},"J":{"ha":597,"x_min":-31,"x_max":747,"o":"m 132 -119 q 59 -106 97 -119 q -5 -53 21 -93 q -31 65 -31 -14 q -18 175 -31 121 q 19 266 -6 229 q 81 303 44 303 q 129 289 99 303 q 90 167 103 224 q 76 65 76 111 q 100 -25 76 8 q 164 -58 124 -58 q 226 -28 197 -58 q 283 82 254 3 q 329 226 306 142 q 376 408 353 311 q 422 599 400 504 q 460 776 443 694 q 488 914 478 858 q 370 910 419 914 q 281 901 321 907 q 196 883 240 894 q 262 970 204 943 q 438 997 319 997 q 555 992 494 997 q 667 979 615 986 q 747 967 719 972 q 689 924 726 933 q 626 915 651 915 q 579 915 603 915 q 540 914 556 914 q 557 886 551 903 q 563 857 563 869 q 553 778 563 839 q 525 630 543 717 q 483 445 507 543 q 431 253 460 347 q 368 86 401 160 q 294 -40 332 6 q 215 -102 256 -85 q 132 -119 174 -119 z "},"K":{"ha":863,"x_min":54,"x_max":876,"o":"m 731 -121 q 657 -86 699 -121 q 568 6 615 -51 q 476 131 521 63 q 391 267 431 199 q 324 389 351 335 l 194 -28 q 160 -75 185 -61 q 108 -92 136 -89 q 54 -96 81 -96 q 92 -5 72 -54 q 135 115 111 44 q 194 284 160 185 q 276 524 228 383 q 393 857 325 665 q 403 885 396 867 q 410 919 410 904 q 403 941 410 933 q 381 949 397 949 q 317 922 347 949 q 264 856 288 896 q 226 775 240 817 q 213 701 213 733 q 224 643 213 672 q 146 668 169 643 q 122 731 122 693 q 151 825 122 778 q 225 912 181 872 q 319 976 269 951 q 411 1000 369 1000 q 468 976 454 1000 q 482 924 482 951 q 479 894 482 908 q 472 867 476 881 l 365 518 q 406 553 382 535 q 469 601 429 571 q 613 725 542 658 q 747 863 685 792 q 854 1003 810 935 q 872 968 868 990 q 876 932 876 946 q 841 838 876 889 q 749 733 806 788 q 624 626 692 679 q 488 526 556 572 q 367 446 421 481 q 451 315 410 376 q 540 193 492 253 q 655 69 589 133 q 813 -67 721 6 q 778 -105 801 -89 q 731 -121 754 -121 z "},"L":{"ha":828,"x_min":-93,"x_max":824,"o":"m 588 -121 q 474 -100 538 -121 q 345 -50 411 -79 q 215 7 279 -21 q 142 -53 181 -32 q 57 -74 103 -74 q -24 -52 10 -74 q -76 -1 -58 -31 q -93 53 -93 29 q -69 99 -93 79 q 17 119 -44 119 q 98 112 53 119 q 190 92 143 104 q 250 224 222 147 q 304 384 278 300 q 358 550 331 468 q 253 614 290 572 q 215 700 215 656 q 228 754 215 728 q 265 799 242 781 q 322 817 289 817 q 302 770 307 797 q 297 725 297 743 q 319 644 297 676 q 372 592 340 611 q 428 746 399 672 q 495 876 458 819 q 576 967 532 933 q 676 1000 621 1000 q 741 987 707 1000 q 799 942 775 974 q 824 853 824 911 q 803 751 824 806 q 742 648 783 697 q 634 566 700 599 q 476 532 568 533 q 470 532 474 532 q 458 532 467 532 q 402 366 432 450 q 338 206 372 282 q 265 71 304 129 q 388 34 322 54 q 519 1 454 14 q 633 -12 583 -12 q 692 -6 665 -12 q 747 15 719 1 q 683 -89 722 -57 q 588 -121 643 -121 m 46 -26 q 104 -10 81 -26 q 150 32 128 7 q 69 60 107 49 q 0 71 31 71 q -37 62 -26 71 q -49 39 -49 53 q -21 -5 -49 17 q 46 -26 7 -26 m 472 571 q 582 608 533 574 q 665 694 631 643 q 716 797 699 744 q 733 888 733 849 q 719 939 733 925 q 686 953 706 953 q 609 900 646 953 q 539 760 572 847 q 472 571 506 674 z "},"M":{"ha":1099,"x_min":-12,"x_max":1076,"o":"m -12 -121 q 30 -23 -6 -100 q 124 181 65 54 q 260 478 182 308 q 432 854 339 649 q 440 878 436 864 q 444 903 444 892 q 436 927 444 918 q 401 936 428 936 q 306 899 343 936 q 251 808 269 863 q 233 703 233 754 q 234 675 233 689 q 238 643 235 661 q 188 663 207 643 q 158 712 168 683 q 147 765 147 740 q 173 853 147 811 q 240 928 199 894 q 331 981 281 961 q 429 1000 381 1000 q 513 972 478 1000 q 565 873 547 944 q 583 667 583 801 q 577 484 583 578 q 564 305 571 390 q 556 156 557 219 q 623 332 582 239 q 712 517 664 425 q 806 692 760 610 q 890 834 853 774 q 947 924 928 894 q 981 968 967 953 q 1021 983 996 983 q 1076 969 1040 983 q 1049 888 1065 943 q 1013 760 1032 833 q 970 573 992 675 q 931 367 949 471 q 903 169 914 263 q 893 7 893 75 q 896 -47 893 -28 q 905 -81 899 -67 q 918 -121 911 -96 q 833 -103 863 -121 q 794 -49 804 -86 q 785 51 785 -11 q 822 386 785 210 q 910 751 860 563 q 828 620 871 697 q 744 456 786 543 q 665 284 703 369 q 599 126 628 199 q 556 4 571 53 q 540 -1 544 0 q 529 -3 536 -3 q 471 51 483 -3 q 458 201 458 106 q 460 324 458 256 q 466 463 463 392 q 472 601 469 533 q 474 728 474 669 q 473 770 474 750 q 472 808 472 790 q 290 380 364 557 q 165 92 217 203 q 73 -69 114 -18 q -12 -121 32 -121 z "},"N":{"ha":919,"x_min":74,"x_max":961,"o":"m 74 -121 q 119 30 93 -53 q 179 225 144 113 q 260 492 214 338 q 368 857 307 646 q 374 879 369 863 q 378 913 378 896 q 374 930 378 924 q 358 936 369 936 q 300 912 328 936 q 251 851 272 888 q 217 774 229 814 q 204 703 204 735 q 215 643 204 672 q 137 668 160 643 q 114 731 114 693 q 143 825 114 778 q 217 912 172 872 q 310 976 261 951 q 399 1000 358 1000 q 474 965 444 1000 q 523 868 504 929 q 555 729 542 807 q 579 565 568 651 q 603 402 593 469 q 619 288 613 335 q 632 207 626 242 q 643 139 638 172 q 675 281 657 204 q 713 440 693 358 q 752 598 732 521 q 792 742 772 675 q 828 857 811 808 q 857 929 844 906 q 894 976 868 950 q 961 1001 921 1001 q 908 845 938 938 q 847 645 878 753 q 788 426 817 538 q 737 210 760 314 q 701 19 714 106 q 688 -121 688 -67 q 608 -97 639 -121 q 563 -4 578 -72 q 546 82 557 24 q 522 217 535 140 q 494 376 508 293 q 467 540 481 460 q 443 685 454 621 q 425 788 432 750 q 316 394 361 556 q 238 133 271 233 q 178 -24 204 32 q 128 -100 153 -79 q 74 -121 103 -121 z "},"O":{"ha":894,"x_min":39,"x_max":875,"o":"m 322 -121 q 178 -78 242 -121 q 76 42 114 -36 q 39 226 39 119 q 73 442 39 333 q 165 651 107 551 q 300 830 224 751 q 462 953 376 908 q 636 999 547 999 q 679 994 654 999 q 726 967 704 989 q 710 969 718 968 q 694 969 703 969 q 549 923 622 969 q 408 799 475 876 q 290 623 342 721 q 207 419 238 525 q 176 214 176 314 q 195 78 176 142 q 257 -23 214 15 q 368 -61 300 -61 q 513 -15 446 -61 q 634 111 579 32 q 728 287 689 190 q 788 487 767 383 q 808 683 808 590 q 803 769 808 724 q 784 848 797 815 q 746 881 771 881 q 694 851 722 881 q 639 774 665 821 q 592 677 613 728 q 564 586 572 626 q 502 616 521 596 q 483 663 483 636 q 510 746 483 700 q 577 834 536 792 q 663 904 618 876 q 747 932 708 932 q 812 903 788 932 q 850 828 836 874 q 869 733 864 783 q 875 638 875 682 q 840 373 875 493 q 747 161 806 253 q 617 6 689 69 q 468 -89 544 -57 q 322 -121 392 -121 z "},"P":{"ha":761,"x_min":40,"x_max":853,"o":"m 149 -121 q 74 -99 108 -121 q 40 -44 40 -78 q 47 -7 40 -28 q 58 32 53 14 q 140 281 101 165 q 216 505 178 397 q 297 721 254 613 q 393 947 340 829 q 302 919 340 938 q 240 888 264 901 q 206 874 215 874 q 186 883 199 874 q 165 903 174 892 q 156 922 156 914 q 244 957 193 939 q 356 988 296 975 q 475 1000 415 1000 q 606 983 539 1000 q 728 931 672 965 q 818 847 783 897 q 853 729 853 797 q 819 603 853 656 q 732 515 786 551 q 615 457 678 479 q 490 424 553 435 q 378 408 428 413 q 306 404 329 404 l 296 404 q 218 128 256 265 q 149 -121 181 -10 m 306 440 q 461 467 383 446 q 603 525 539 488 q 706 619 667 563 q 744 751 744 676 q 708 868 744 824 q 615 935 672 913 q 492 958 557 957 q 395 724 442 860 q 306 440 349 588 z "},"Q":{"ha":994,"x_min":57,"x_max":919,"o":"m 756 -165 q 634 -131 690 -165 q 525 -53 578 -96 q 456 -79 492 -69 q 381 -89 419 -89 q 297 -74 329 -89 q 249 -39 265 -60 q 226 3 232 -18 q 219 36 219 24 q 244 90 219 63 q 329 117 268 117 q 442 91 386 117 q 556 31 497 65 q 663 167 615 85 q 742 344 710 250 q 791 531 774 439 q 808 694 808 622 q 764 879 808 808 q 621 950 719 950 q 471 903 540 950 q 346 780 401 857 q 250 607 290 703 q 189 408 210 511 q 168 213 168 306 q 172 150 168 183 q 183 81 175 117 q 106 109 133 81 q 68 183 79 138 q 57 278 57 228 q 85 485 57 382 q 163 681 113 589 q 284 846 214 774 q 440 959 354 918 q 619 1000 525 1000 q 840 908 760 1000 q 919 658 919 817 q 897 479 919 572 q 832 297 874 386 q 733 131 790 207 q 610 0 676 54 q 706 -40 656 -24 q 811 -57 757 -57 q 860 -51 844 -57 q 903 -37 876 -44 q 861 -121 888 -93 q 808 -157 835 -149 q 756 -165 781 -165 m 364 -49 q 429 -38 399 -49 q 482 -17 460 -28 q 400 44 442 18 q 314 69 358 69 q 272 58 285 69 q 260 29 260 46 q 269 -3 260 15 q 301 -35 278 -21 q 364 -49 324 -49 z "},"R":{"ha":838,"x_min":36,"x_max":844,"o":"m 682 -168 q 608 -131 650 -168 q 519 -35 565 -94 q 428 96 474 25 q 344 239 383 167 q 279 368 306 311 q 206 111 240 238 q 140 -122 171 -15 q 69 -101 101 -122 q 36 -44 36 -79 q 43 -8 36 -29 q 56 32 50 13 q 126 244 94 149 q 188 424 158 340 q 249 589 218 507 q 317 758 281 671 q 400 950 354 846 q 303 922 344 940 q 235 888 261 903 q 199 874 208 874 q 180 882 193 874 q 157 902 167 890 q 147 922 147 914 q 237 956 186 938 q 349 987 288 974 q 475 1000 410 1000 q 601 985 536 1000 q 722 939 667 971 q 810 856 776 907 q 844 735 844 806 q 815 620 844 668 q 735 539 785 572 q 627 485 686 506 q 509 453 568 464 q 401 438 450 442 q 321 432 351 433 q 407 293 365 361 q 497 158 449 225 q 609 24 544 92 q 763 -112 674 -43 q 729 -152 756 -136 q 682 -168 703 -168 m 307 468 q 460 492 385 472 q 599 548 536 513 q 699 637 661 583 q 736 763 736 690 q 700 878 736 836 q 607 939 664 921 q 488 958 550 957 q 395 735 440 864 q 307 468 350 607 z "},"S":{"ha":772,"x_min":1,"x_max":715,"o":"m 310 -121 q 160 -93 231 -121 q 45 -9 89 -65 q 1 132 1 47 q 33 247 1 206 q 111 306 64 289 q 203 322 158 322 q 138 228 160 278 q 117 132 117 178 q 140 41 117 83 q 213 -28 164 -1 q 333 -54 261 -54 q 455 -33 396 -54 q 552 32 514 -11 q 590 139 590 75 q 558 239 590 197 q 476 313 526 281 q 370 376 426 346 q 264 440 314 406 q 182 520 214 475 q 150 629 150 565 q 178 751 150 686 q 259 872 207 815 q 385 965 311 929 q 551 1000 460 1000 q 678 960 642 1000 q 715 857 715 919 q 698 747 715 806 q 655 637 681 689 q 606 547 629 585 q 563 571 576 554 q 550 614 550 588 q 562 680 550 643 q 590 756 574 717 q 618 833 606 796 q 631 899 631 869 q 615 940 631 925 q 554 954 600 954 q 433 924 489 954 q 337 849 378 894 q 273 753 296 803 q 250 661 250 703 q 281 575 250 611 q 362 510 313 539 q 467 451 411 481 q 572 385 522 421 q 652 299 621 349 q 683 178 683 250 q 651 50 683 106 q 565 -43 619 -6 q 443 -101 510 -81 q 310 -121 376 -121 z "},"T":{"ha":726,"x_min":103,"x_max":865,"o":"m 301 -121 q 203 -92 231 -121 q 175 -17 175 -62 q 191 80 175 24 q 224 188 207 136 q 290 369 254 275 q 362 557 325 464 q 435 736 399 650 q 503 893 471 822 q 341 888 408 892 q 219 879 274 885 q 103 863 164 874 q 155 947 108 917 q 281 988 201 976 q 460 1000 360 1000 q 586 996 529 1000 q 695 987 643 992 q 797 979 747 982 q 852 953 839 958 q 857 947 865 947 q 777 910 825 922 q 678 896 729 899 q 579 893 626 893 q 465 574 521 747 q 357 214 408 400 q 326 94 339 144 q 306 1 313 43 q 299 -83 299 -40 q 299 -99 299 -90 q 301 -121 300 -108 z "},"U":{"ha":1021,"x_min":42,"x_max":1036,"o":"m 794 -137 q 708 -92 743 -137 q 674 15 674 -47 q 675 53 674 29 q 679 106 676 76 q 556 -58 629 6 q 382 -122 483 -122 q 241 -67 290 -122 q 192 82 192 -11 q 208 213 192 140 q 251 365 225 286 q 301 525 276 444 q 343 682 326 606 q 360 824 360 758 q 285 949 360 949 q 220 924 247 949 q 176 864 193 900 q 149 790 158 828 q 140 725 140 753 q 145 682 140 704 q 156 643 150 660 q 68 673 94 643 q 42 746 42 703 q 63 833 42 789 q 122 915 83 878 q 210 976 160 953 q 318 999 260 999 q 435 951 399 999 q 472 824 472 904 q 460 710 472 772 q 428 581 447 647 q 388 450 408 514 q 331 253 354 340 q 307 100 307 167 q 333 -8 307 36 q 422 -53 360 -53 q 526 -17 479 -53 q 610 75 574 18 q 671 196 646 132 q 708 314 696 260 q 751 490 728 396 q 801 674 775 583 q 853 838 826 764 q 904 955 879 911 q 954 999 929 999 q 990 985 967 999 q 1036 949 1013 972 q 1000 890 1024 939 q 947 763 976 840 q 889 593 918 686 q 835 403 860 500 q 794 217 810 306 q 779 60 779 128 q 808 -59 779 -29 q 904 -89 836 -89 q 853 -125 885 -112 q 794 -137 821 -137 z "},"V":{"ha":911,"x_min":43,"x_max":942,"o":"m 324 -121 q 272 -112 303 -121 q 218 -77 242 -103 q 194 -1 194 -51 q 212 103 194 40 q 255 242 229 165 q 306 408 281 319 q 348 588 331 496 q 365 774 365 681 q 359 863 365 822 q 335 926 353 903 q 281 949 318 949 q 217 927 243 949 q 175 871 192 906 q 151 799 158 836 q 143 729 143 761 q 148 685 143 706 q 161 643 153 664 q 71 674 99 643 q 43 751 43 706 q 64 837 43 793 q 121 917 85 881 q 205 977 157 954 q 307 1000 253 1000 q 445 932 399 1000 q 492 746 492 864 q 474 583 492 668 q 431 413 457 499 q 379 249 406 328 q 335 101 353 169 q 318 -15 318 33 q 325 -51 318 -37 q 353 -65 332 -65 q 444 -27 393 -65 q 549 77 494 11 q 656 226 604 143 q 749 401 707 310 q 815 580 790 492 q 839 743 839 668 q 815 852 839 815 q 753 901 790 889 q 798 958 772 940 q 844 975 824 975 q 910 931 879 975 q 942 803 942 888 q 913 631 942 728 q 835 431 885 535 q 723 228 786 326 q 590 51 660 131 q 453 -74 521 -28 q 324 -121 385 -121 z "},"W":{"ha":1301,"x_min":43,"x_max":1332,"o":"m 325 -121 q 288 -117 310 -121 q 245 -101 267 -112 q 209 -65 224 -89 q 194 -1 194 -40 q 212 102 194 38 q 263 271 229 167 q 310 431 286 350 q 349 595 333 511 q 365 768 365 679 q 359 865 365 824 q 335 928 353 906 q 281 950 317 950 q 219 931 246 950 q 176 879 193 911 q 151 810 160 847 q 143 736 143 772 q 161 643 143 681 q 71 674 99 643 q 43 751 43 706 q 64 837 43 793 q 121 917 85 881 q 205 977 157 954 q 307 1000 253 1000 q 444 931 397 1000 q 492 740 492 863 q 465 535 492 642 q 401 311 439 429 q 365 201 385 258 q 332 90 346 144 q 318 -15 318 35 q 325 -53 318 -42 q 353 -65 332 -65 q 431 -33 389 -65 q 517 54 474 0 q 600 176 560 108 q 674 313 640 243 q 730 447 707 383 q 758 557 753 510 q 835 530 810 557 q 861 478 861 503 q 847 424 861 461 q 806 324 833 386 q 762 214 785 272 q 723 98 739 156 q 707 -10 707 40 q 715 -51 707 -37 q 744 -65 722 -65 q 834 -26 783 -65 q 940 79 885 13 q 1046 230 994 146 q 1139 404 1097 314 q 1205 582 1181 494 q 1229 743 1229 669 q 1204 849 1229 817 q 1142 893 1179 881 q 1190 949 1164 932 q 1238 967 1217 967 q 1300 927 1268 967 q 1332 803 1332 888 q 1303 631 1332 728 q 1226 431 1275 535 q 1115 229 1178 328 q 981 51 1051 131 q 840 -74 911 -28 q 707 -121 769 -121 q 647 -108 675 -121 q 601 -69 618 -94 q 585 -7 585 -43 q 590 34 585 11 q 603 83 594 57 q 463 -65 533 -8 q 325 -121 393 -121 z "},"X":{"ha":960,"x_min":53,"x_max":960,"o":"m 53 -156 q 66 -94 57 -118 q 89 -53 75 -71 q 124 -12 103 -35 q 208 78 169 36 q 282 160 246 119 q 357 248 318 201 q 442 351 396 294 q 434 438 438 399 q 428 515 431 478 q 424 588 425 551 q 422 665 424 625 q 414 829 418 765 q 394 924 410 893 q 340 954 378 954 q 280 933 306 954 q 237 877 254 911 q 210 805 219 843 q 201 733 201 767 q 217 651 201 686 q 128 681 154 651 q 103 753 103 711 q 125 841 103 797 q 184 922 147 885 q 269 981 221 958 q 371 1003 318 1003 q 470 971 433 1003 q 525 885 507 939 q 549 765 543 831 q 555 631 554 700 q 557 501 556 563 q 742 778 665 650 q 865 1008 818 906 q 890 979 876 1001 q 903 938 903 957 q 876 856 903 910 q 801 730 849 801 q 692 575 754 658 q 560 406 629 492 q 573 236 564 318 q 597 90 582 154 q 636 -12 613 25 q 692 -50 660 -50 q 796 28 736 -50 q 933 243 856 107 l 960 222 q 857 37 904 111 q 763 -76 810 -37 q 657 -114 715 -114 q 559 -78 597 -114 q 499 15 521 -43 q 465 139 476 72 q 449 268 454 206 q 290 85 368 171 q 149 -65 211 -1 q 53 -156 86 -129 z "},"Y":{"ha":961,"x_min":40,"x_max":1032,"o":"m 382 -260 q 242 -225 300 -260 q 185 -125 185 -190 q 210 -51 185 -83 q 283 -7 235 -19 q 273 -58 276 -39 q 269 -96 269 -78 q 300 -183 269 -151 q 394 -215 331 -215 q 483 -196 444 -215 q 552 -142 522 -176 q 603 -65 582 -107 q 641 24 625 -22 q 667 114 657 71 q 698 271 685 189 q 729 417 711 353 q 602 264 674 324 q 435 204 531 204 q 308 254 346 204 q 271 378 271 304 q 285 492 271 431 q 317 617 299 553 q 348 740 335 681 q 361 846 361 799 q 345 918 361 888 q 285 949 329 949 q 220 926 247 949 q 175 867 193 903 q 148 792 157 832 q 139 717 139 753 q 142 680 139 696 q 154 643 146 664 q 66 673 92 643 q 40 746 40 703 q 61 833 40 788 q 119 915 82 878 q 208 976 157 953 q 315 1000 258 1000 q 405 979 371 1000 q 456 924 439 958 q 472 851 472 890 q 460 770 472 818 q 431 654 449 722 q 397 523 411 586 q 382 404 382 460 q 404 309 382 346 q 479 272 426 272 q 570 301 528 272 q 650 377 613 329 q 718 485 688 425 q 771 610 749 546 q 808 738 789 671 q 849 865 828 806 q 894 963 871 925 q 943 1000 918 1000 q 984 987 958 1000 q 1032 950 1010 974 q 981 863 1003 904 q 941 772 960 821 q 903 658 922 724 q 860 497 883 592 q 803 268 836 403 q 763 122 785 197 q 709 -21 740 47 q 633 -143 678 -89 q 527 -228 589 -197 q 382 -260 465 -260 z "},"Z":{"ha":921,"x_min":-19,"x_max":969,"o":"m 660 -121 q 543 -101 606 -121 q 419 -52 481 -81 q 301 1 357 -24 q 208 -55 254 -35 q 119 -75 163 -75 q 44 -57 75 -75 q -3 -11 14 -39 q -19 43 -19 17 q 6 96 -19 72 q 94 119 32 119 q 185 110 136 119 q 289 85 235 100 q 422 245 354 151 q 553 439 490 339 q 468 434 508 438 q 368 422 428 431 l 325 417 q 357 485 328 461 q 435 518 386 508 q 539 528 483 528 q 573 527 558 528 q 603 525 588 526 q 697 697 656 615 q 761 838 739 779 q 709 855 735 846 q 650 875 683 864 q 487 930 554 911 q 371 949 419 949 q 292 931 328 949 q 237 869 257 913 q 217 744 217 825 q 218 739 217 747 q 222 719 219 731 q 226 701 225 708 q 156 737 178 710 q 133 808 133 764 q 206 951 133 901 q 413 1000 279 1000 q 553 987 488 1000 q 679 956 619 974 q 795 926 739 939 q 908 913 851 913 q 940 913 922 913 q 969 917 957 914 q 922 876 942 890 q 888 856 903 863 q 813 698 858 786 q 713 515 768 610 q 796 508 761 511 q 867 504 831 504 q 826 464 847 476 q 769 447 804 451 q 669 442 733 443 q 525 235 601 335 q 372 61 449 135 q 552 11 463 35 q 707 -12 642 -12 q 767 -6 740 -12 q 824 15 794 1 q 757 -90 796 -60 q 660 -121 718 -121 m 110 -32 q 165 -15 136 -32 q 229 31 194 3 q 147 61 186 49 q 78 74 107 74 q 35 63 47 74 q 24 38 24 53 q 48 -8 24 15 q 110 -32 72 -32 z "},"a":{"ha":613,"x_min":-36,"x_max":667,"o":"m 74 -65 q -3 -35 29 -65 q -36 54 -36 -6 q -14 161 -36 104 q 47 274 8 218 q 136 375 86 329 q 242 449 186 421 q 354 476 299 476 q 452 447 413 476 q 492 368 492 417 q 468 315 492 331 q 410 306 444 300 q 415 330 413 317 q 417 356 417 343 q 404 407 417 385 q 356 429 392 429 q 276 403 317 429 q 199 333 236 376 q 132 239 161 290 q 86 138 103 188 q 69 49 69 88 q 104 1 69 1 q 174 32 136 1 q 252 110 213 63 q 328 206 292 157 q 390 293 364 256 q 400 300 396 300 q 422 294 407 299 q 450 281 438 289 q 463 258 463 272 q 450 223 463 244 q 422 175 438 201 q 394 122 407 149 q 382 71 382 96 q 392 35 382 53 q 426 18 403 18 q 522 69 461 18 q 644 235 582 119 l 667 213 q 588 81 635 138 q 490 -9 542 24 q 388 -42 439 -42 q 306 -8 332 -42 q 276 67 279 26 q 277 76 276 71 q 278 85 278 81 q 174 -26 221 14 q 74 -65 126 -65 z "},"b":{"ha":561,"x_min":-15,"x_max":614,"o":"m 140 -101 q 24 -53 64 -101 q -15 81 -15 -4 q 8 242 -15 149 q 71 438 32 336 q 158 639 110 540 q 256 817 206 738 q 349 944 306 897 q 424 992 393 992 q 463 960 450 992 q 476 899 475 929 q 460 804 476 860 q 413 686 443 749 q 342 563 382 624 q 254 451 301 501 q 156 371 207 400 q 132 308 147 354 q 104 204 117 263 q 92 89 92 146 q 108 -6 92 32 q 165 -44 125 -44 q 245 -12 203 -44 q 314 69 288 21 q 237 147 263 97 q 211 251 211 197 q 247 360 211 319 q 333 401 283 401 q 404 368 376 401 q 432 267 432 335 q 420 178 432 225 q 388 88 408 132 q 401 85 394 86 q 417 85 407 85 q 499 110 465 85 q 557 172 533 136 q 594 238 581 208 l 614 213 q 526 87 578 126 q 403 47 475 47 q 385 48 394 47 q 368 50 376 49 q 274 -57 331 -12 q 140 -101 217 -101 m 335 110 q 354 169 347 139 q 361 235 361 200 q 349 310 361 285 q 319 335 338 335 q 286 308 300 335 q 272 244 272 282 q 285 173 272 213 q 335 110 299 133 m 179 447 q 249 523 215 479 q 313 616 283 567 q 365 713 342 665 q 401 798 388 760 q 417 858 415 836 q 417 865 417 863 q 415 867 417 867 q 374 827 403 864 q 308 730 344 790 q 238 596 272 669 q 179 447 203 522 z "},"c":{"ha":458,"x_min":-8,"x_max":513,"o":"m 154 -78 q 38 -33 83 -78 q -8 104 -8 13 q 19 238 -8 172 q 90 356 46 303 q 189 439 135 408 q 299 469 243 469 q 381 439 357 469 q 406 371 406 408 q 387 296 406 331 q 336 261 368 261 q 293 286 310 261 q 325 325 310 296 q 340 392 340 354 q 335 413 340 406 q 313 419 329 419 q 238 388 276 419 q 167 305 200 356 q 113 199 133 254 q 92 94 92 143 q 113 21 92 54 q 192 -12 133 -12 q 302 18 246 -12 q 408 104 358 49 q 488 236 458 160 l 513 214 q 422 65 479 131 q 294 -40 364 -1 q 154 -78 224 -78 z "},"d":{"ha":674,"x_min":-22,"x_max":779,"o":"m 92 -42 q 40 -29 65 -42 q -4 11 14 -17 q -22 81 -22 39 q 0 183 -22 126 q 60 297 22 240 q 149 401 99 354 q 254 478 199 449 q 365 507 310 507 q 413 497 396 507 q 431 463 431 486 q 428 449 431 456 q 419 435 426 442 q 399 448 413 444 q 369 451 386 451 q 282 426 324 451 q 205 358 240 400 q 144 269 169 317 q 104 176 118 221 q 90 99 90 131 q 102 54 90 71 q 136 38 114 38 q 226 83 174 38 q 334 212 279 128 q 433 411 389 296 q 497 573 464 490 q 564 733 531 656 q 629 869 597 810 q 690 965 661 929 q 744 1000 719 1000 q 769 989 758 1000 q 779 961 779 978 q 756 886 779 939 q 697 760 733 833 q 620 602 661 688 q 544 428 579 517 q 485 254 508 339 q 463 96 463 169 q 468 47 463 61 q 492 32 474 32 q 559 56 521 32 q 636 127 597 81 q 706 238 675 174 l 729 219 q 653 87 700 144 q 553 -3 607 29 q 449 -36 500 -36 q 373 -1 394 -36 q 351 79 351 35 q 356 130 351 101 q 367 189 360 158 q 275 70 324 122 q 180 -12 226 18 q 92 -42 133 -42 z "},"e":{"ha":469,"x_min":-22,"x_max":525,"o":"m 157 -61 q 24 -14 69 -61 q -22 104 -22 33 q 9 235 -22 167 q 93 365 40 304 q 209 463 146 425 q 335 501 272 501 q 401 483 369 501 q 432 411 432 465 q 401 312 432 358 q 319 229 369 265 q 206 170 268 193 q 83 142 144 147 q 81 125 82 133 q 79 103 79 117 q 83 73 79 92 q 97 35 86 54 q 129 4 107 17 q 188 -8 151 -8 q 305 25 246 -8 q 415 113 364 58 q 501 235 467 168 l 525 215 q 429 70 488 132 q 301 -26 371 8 q 157 -61 231 -61 m 96 185 q 178 213 132 192 q 265 267 224 235 q 334 339 307 300 q 361 418 361 378 q 356 440 361 433 q 336 447 350 447 q 267 423 303 447 q 198 360 232 399 q 138 276 164 322 q 96 185 111 229 z "},"f":{"ha":450,"x_min":-93,"x_max":564,"o":"m -7 -389 q -42 -379 -22 -389 q -78 -342 -62 -369 q -93 -260 -93 -314 q -72 -102 -93 -199 q -16 113 -51 -6 q 67 354 19 231 q 170 593 115 478 q 283 800 225 708 q 399 946 342 892 q 510 1000 457 1000 q 553 980 543 1000 q 564 932 564 960 q 531 801 564 872 q 444 659 499 731 q 324 524 390 588 q 188 414 257 460 q 176 384 182 399 q 164 354 169 369 q 188 335 179 349 q 199 307 197 322 q 221 199 210 246 q 255 124 232 151 q 321 97 278 97 q 406 133 369 97 q 481 235 442 169 l 507 215 q 412 88 467 128 q 314 49 357 49 q 263 59 289 49 q 214 89 238 69 q 194 -83 213 1 q 144 -237 175 -168 q 74 -347 113 -306 q -7 -389 35 -389 m 31 -310 q 64 -283 46 -310 q 99 -212 82 -256 q 131 -115 117 -168 q 155 -10 146 -62 q 164 83 164 42 q 154 158 164 125 q 121 232 144 190 q 62 42 88 133 q 22 -124 36 -50 q 7 -247 7 -199 q 31 -310 7 -310 m 221 497 q 370 656 308 578 q 465 795 432 735 q 497 881 497 856 q 483 894 497 894 q 406 841 450 894 q 314 697 361 788 q 221 497 267 607 z "},"g":{"ha":553,"x_min":-26,"x_max":607,"o":"m 64 -389 q 2 -369 31 -389 q -26 -303 -26 -349 q -1 -224 -26 -260 q 67 -159 25 -189 q 157 -104 108 -129 q 250 -57 206 -79 q 282 32 267 -15 q 311 136 297 79 q 206 26 261 69 q 94 -18 151 -18 q 10 20 42 -18 q -21 121 -21 58 q 16 259 -21 194 q 110 374 53 324 q 234 453 168 425 q 358 482 300 482 q 422 467 401 482 q 443 432 443 451 q 434 408 443 417 q 422 397 425 399 q 397 416 411 411 q 363 421 382 421 q 258 390 308 421 q 169 311 208 360 q 108 210 131 263 q 86 115 86 158 q 99 70 86 86 q 131 54 111 54 q 226 106 171 54 q 333 232 282 158 q 340 257 338 246 q 344 282 342 268 q 374 351 356 325 q 426 376 392 376 q 443 376 433 376 q 464 372 453 375 q 450 290 464 347 q 413 156 436 232 q 358 -1 389 79 q 447 51 403 18 q 528 131 490 85 q 585 232 565 176 l 607 211 q 539 95 585 147 q 440 5 493 43 q 342 -54 386 -33 q 260 -222 303 -146 q 168 -344 217 -299 q 64 -389 119 -389 m 58 -332 q 130 -282 85 -332 q 228 -112 175 -232 q 131 -166 175 -139 q 58 -224 86 -193 q 31 -289 31 -254 q 39 -320 31 -308 q 58 -332 47 -332 z "},"h":{"ha":678,"x_min":7,"x_max":732,"o":"m 64 -53 q 21 -6 35 -53 q 7 100 7 40 q 29 256 7 165 q 88 447 51 346 q 169 644 124 547 q 262 819 214 740 q 353 944 310 897 q 428 992 396 992 q 469 960 456 992 q 483 897 483 929 q 466 803 483 858 q 418 686 449 749 q 347 563 388 624 q 258 451 306 501 q 160 371 211 401 q 132 283 143 326 q 116 199 121 239 q 111 122 111 158 q 112 103 111 113 q 114 88 113 94 q 140 153 124 113 q 178 240 156 194 q 233 328 201 286 q 304 395 264 369 q 393 421 344 421 q 463 401 438 421 q 499 350 489 381 q 510 288 510 319 q 495 205 510 244 q 466 130 481 165 q 451 63 451 94 q 463 26 451 38 q 490 15 474 15 q 562 46 521 15 q 642 127 603 76 q 711 239 682 178 l 732 218 q 658 92 701 149 q 565 1 615 35 q 457 -33 514 -33 q 379 -6 406 -33 q 353 61 353 21 q 363 126 353 90 q 383 198 374 161 q 393 265 393 235 q 378 313 393 299 q 343 326 364 326 q 281 299 308 326 q 230 228 253 271 q 188 137 207 185 q 149 45 168 89 q 110 -26 131 1 q 64 -53 89 -53 m 186 449 q 257 526 222 481 q 322 621 292 571 q 374 718 351 671 q 409 803 396 765 q 424 861 422 840 q 423 865 424 864 q 421 867 422 867 q 385 831 413 867 q 320 736 357 796 q 247 601 283 676 q 186 449 211 526 z "},"i":{"ha":338,"x_min":-10,"x_max":389,"o":"m 107 -40 q 19 -5 49 -40 q -10 82 -10 31 q 1 163 -10 114 q 33 265 13 211 q 79 365 53 318 q 135 442 106 413 q 194 472 165 472 q 222 463 210 472 q 233 435 233 453 q 212 381 233 417 q 161 297 190 344 q 110 197 132 249 q 89 99 89 146 q 106 38 89 53 q 154 22 122 22 q 256 69 201 22 q 371 235 311 117 l 389 215 q 267 26 343 93 q 107 -40 192 -40 m 272 590 q 227 603 247 590 q 207 640 207 615 q 242 697 207 674 q 315 719 278 719 q 354 708 339 719 q 369 671 369 697 q 339 616 369 642 q 272 590 308 590 z "},"j":{"ha":311,"x_min":-271,"x_max":364,"o":"m -189 -389 q -249 -367 -228 -389 q -271 -311 -271 -344 q -222 -199 -271 -257 q -94 -94 -172 -140 q -49 -72 -72 -83 q -1 -50 -26 -61 q 45 87 24 11 q 83 253 67 163 q 53 204 68 226 q 29 163 39 182 l 8 194 q 53 291 33 240 q 90 385 72 342 q 126 457 107 429 q 169 485 146 485 q 199 471 188 485 q 210 436 210 457 q 203 379 210 421 q 183 276 196 338 q 150 144 169 215 q 106 1 131 74 q 185 51 146 25 q 263 117 224 76 q 342 226 303 158 l 364 213 q 275 77 324 125 q 178 1 226 29 q 86 -53 129 -26 q 14 -215 56 -137 q -79 -340 -28 -292 q -189 -389 -131 -389 m -203 -329 q -128 -274 -178 -329 q -28 -112 -79 -219 q -174 -212 -125 -161 q -222 -301 -222 -262 q -217 -323 -222 -317 q -203 -329 -211 -329 m 192 594 q 147 607 167 594 q 126 644 126 619 q 144 686 126 668 q 187 715 161 704 q 236 725 213 725 q 274 714 258 725 q 289 679 289 703 q 259 620 289 646 q 192 594 229 594 z "},"k":{"ha":635,"x_min":4,"x_max":685,"o":"m 431 -53 q 358 -26 389 -53 q 310 43 328 1 q 283 128 292 85 q 274 203 274 171 q 321 214 292 206 q 381 237 350 222 q 432 274 411 251 q 453 329 453 297 q 435 372 453 356 q 389 388 417 388 q 313 360 349 388 q 247 290 276 333 q 193 195 217 246 q 151 98 169 144 q 121 18 133 51 q 94 -31 108 -18 q 56 -43 79 -43 q 29 -33 42 -43 q 10 3 17 -22 q 4 69 4 28 q 28 249 4 150 q 91 453 51 349 q 178 653 131 557 q 273 825 225 749 q 363 947 321 901 q 431 992 404 992 q 467 964 453 992 q 482 894 482 936 q 461 789 482 847 q 402 672 440 731 q 312 560 364 613 q 196 469 260 507 q 134 276 156 371 q 108 113 113 182 q 164 231 132 169 q 235 349 196 293 q 321 438 275 404 q 418 472 367 472 q 512 435 472 472 q 551 340 551 397 q 528 267 551 299 q 473 217 506 236 q 408 188 440 197 q 353 178 375 178 q 363 133 356 161 q 383 77 369 106 q 415 29 396 49 q 461 10 435 10 q 535 41 499 10 q 606 124 571 72 q 668 240 640 176 l 685 219 q 622 88 663 151 q 532 -14 582 25 q 431 -53 482 -53 m 231 550 q 322 644 278 590 q 394 756 365 699 q 424 860 422 814 q 423 865 424 864 q 422 867 422 867 q 377 819 408 864 q 307 705 346 775 q 231 550 268 635 z "},"l":{"ha":336,"x_min":3,"x_max":496,"o":"m 118 -42 q 28 1 54 -42 q 3 104 3 44 q 28 264 3 172 q 94 456 53 356 q 184 653 135 557 q 283 828 233 750 q 374 953 332 907 q 442 1000 417 1000 q 470 982 458 1000 q 489 938 482 964 q 496 892 496 913 q 477 794 496 854 q 424 660 458 733 q 344 512 390 588 q 242 367 297 436 q 122 249 186 299 q 112 179 117 214 q 107 115 107 144 q 123 40 107 64 q 167 15 139 15 q 240 49 203 15 q 310 133 276 82 q 368 238 343 183 l 397 221 q 268 29 339 100 q 118 -42 197 -42 m 143 322 q 235 433 192 372 q 315 559 278 494 q 379 684 351 624 q 422 792 407 744 q 439 868 438 840 q 438 876 439 874 q 436 878 436 878 q 399 845 425 878 q 340 757 374 813 q 269 629 306 701 q 200 478 233 557 q 143 322 167 399 z "},"m":{"ha":910,"x_min":-49,"x_max":963,"o":"m 718 -43 q 640 -12 665 -43 q 615 63 615 19 q 625 128 615 96 q 645 193 635 161 q 656 251 656 225 q 645 286 656 276 q 621 296 635 296 q 546 245 588 296 q 440 100 504 194 q 400 31 418 67 q 367 -32 382 -6 q 336 -28 356 -32 q 302 -17 317 -24 q 288 1 288 -10 q 301 50 288 14 q 333 135 315 86 q 365 231 351 183 q 378 313 378 279 q 371 345 378 333 q 347 357 364 357 q 276 322 318 357 q 189 229 235 286 q 103 102 143 172 q 39 -37 64 32 q 3 -32 24 -37 q -33 -18 -18 -26 q -49 -3 -49 -10 q -37 40 -49 1 q -10 136 -26 79 q 20 253 6 193 q 43 358 35 313 q 72 382 49 371 q 115 393 96 393 q 147 382 135 393 q 158 351 158 371 q 151 303 158 336 q 133 231 144 271 q 196 313 163 272 q 266 388 229 354 q 340 441 303 421 q 413 461 376 461 q 478 426 461 461 q 496 349 496 392 q 491 300 496 325 q 480 253 486 275 q 465 208 474 231 q 525 290 492 251 q 596 352 558 329 q 676 375 633 375 q 747 344 728 375 q 767 276 767 314 q 755 199 767 240 q 731 122 743 158 q 718 58 718 85 q 726 31 718 43 q 756 18 733 18 q 828 53 793 18 q 892 138 863 88 q 942 235 921 189 l 963 210 q 906 93 940 151 q 824 -4 871 35 q 718 -43 776 -43 z "},"n":{"ha":654,"x_min":-53,"x_max":707,"o":"m 461 -28 q 383 -1 410 -28 q 356 65 356 25 q 365 126 356 94 q 385 190 375 157 q 394 253 394 222 q 379 299 394 286 q 343 311 364 311 q 258 276 301 311 q 172 190 214 242 q 94 81 131 138 q 32 -21 58 24 q -15 -12 7 -21 q -53 17 -37 -4 q -37 59 -51 24 q -4 145 -22 94 q 28 250 14 196 q 43 350 43 304 q 72 371 53 360 q 113 382 92 382 q 157 342 157 382 q 149 284 157 324 q 126 197 140 244 q 207 297 163 249 q 300 375 251 344 q 399 406 349 406 q 483 366 456 406 q 510 278 510 326 q 496 199 510 236 q 469 130 482 163 q 456 65 456 97 q 466 31 456 42 q 492 21 476 21 q 560 53 525 21 q 628 135 596 86 q 686 235 661 185 l 707 217 q 642 93 678 149 q 561 5 606 38 q 461 -28 517 -28 z "},"o":{"ha":514,"x_min":-15,"x_max":565,"o":"m 93 -44 q 8 -5 32 -44 q -15 85 -15 35 q -1 175 -15 129 q 36 261 13 221 q 89 326 60 301 q 149 351 118 351 q 169 348 157 351 q 186 339 181 344 q 153 292 171 322 q 122 226 136 261 q 98 155 107 190 q 89 90 89 119 q 100 40 89 58 q 136 22 111 22 q 202 52 164 22 q 275 125 240 82 q 212 212 232 163 q 192 324 192 261 q 207 397 192 358 q 254 463 222 436 q 338 489 286 489 q 419 456 396 489 q 442 378 442 424 q 415 262 442 326 q 350 139 388 197 q 393 128 369 128 q 443 138 414 128 q 499 170 472 147 q 543 231 526 193 l 565 214 q 485 115 536 146 q 388 83 435 83 q 351 87 369 83 q 318 97 333 90 q 212 -3 271 39 q 93 -44 153 -44 m 307 167 q 365 272 342 215 q 388 375 388 328 q 377 426 388 410 q 349 442 367 442 q 293 403 321 442 q 265 307 265 365 q 276 233 265 274 q 307 167 286 192 z "},"p":{"ha":564,"x_min":-132,"x_max":521,"o":"m -81 -389 q -103 -381 -92 -389 q -124 -362 -115 -372 q -132 -349 -132 -353 q -81 -191 -103 -258 q -41 -61 -58 -124 q -8 74 -24 1 q 22 247 7 147 q 54 489 38 346 q 61 511 57 504 q 86 518 65 518 q 144 496 126 518 q 163 447 163 474 q 156 392 163 432 q 139 297 150 353 q 199 380 164 340 q 276 446 233 419 q 369 472 319 472 q 478 427 436 472 q 521 308 521 382 q 497 194 521 254 q 428 80 472 133 q 323 -8 385 26 q 188 -42 261 -42 q 121 -31 146 -42 q 96 -10 96 -21 q 106 1 96 -1 q 129 3 117 3 q 244 30 192 3 q 335 100 296 57 q 397 193 375 143 q 418 293 418 243 q 399 366 418 335 q 340 397 381 397 q 269 374 304 397 q 203 317 233 351 q 149 246 172 283 q 113 179 125 208 q 63 -9 86 83 q 20 -180 40 -101 q -20 -311 0 -258 q -60 -381 -40 -364 q -81 -389 -69 -389 z "},"q":{"ha":572,"x_min":-19,"x_max":625,"o":"m 290 -389 q 251 -367 268 -389 q 233 -282 233 -344 q 242 -169 233 -237 q 267 -26 251 -101 q 303 117 282 50 q 194 -1 247 44 q 92 -47 142 -47 q 42 -35 68 -47 q -2 6 15 -22 q -19 78 -19 33 q 3 183 -19 126 q 65 296 25 240 q 155 397 104 351 q 263 469 206 442 q 379 496 321 496 q 465 475 431 496 q 499 421 499 454 q 493 396 499 410 q 475 375 488 382 q 446 374 465 368 q 426 423 446 403 q 368 443 406 443 q 280 417 322 443 q 203 349 238 390 q 142 261 168 308 q 103 169 117 214 q 89 94 89 125 q 101 50 89 68 q 136 32 114 32 q 194 58 163 32 q 260 127 226 85 q 327 220 293 169 q 394 319 361 271 q 414 346 406 336 q 432 364 422 356 q 461 367 442 371 q 488 356 481 363 q 496 332 496 346 q 474 269 496 306 q 423 178 451 233 q 375 40 394 124 q 492 90 433 47 q 604 231 551 133 l 625 211 q 509 59 576 107 q 374 1 442 11 q 391 -71 385 -33 q 397 -149 397 -108 q 384 -270 397 -215 q 346 -357 371 -325 q 290 -389 321 -389 m 322 -303 q 337 -278 331 -303 q 346 -215 343 -253 q 349 -139 349 -176 q 347 -96 349 -114 q 342 -60 346 -78 q 322 -176 329 -122 q 314 -271 314 -229 q 316 -296 314 -289 q 322 -303 318 -303 z "},"r":{"ha":497,"x_min":0,"x_max":556,"o":"m 251 -36 q 171 -10 201 -36 q 140 61 140 17 q 160 145 140 100 q 199 234 179 190 q 219 313 219 278 q 197 370 219 349 q 147 407 174 392 q 78 256 115 328 q 18 144 42 183 l 0 179 q 51 283 19 215 q 113 435 83 350 q 99 471 99 449 q 122 539 99 508 q 163 569 144 569 q 184 552 178 569 q 190 528 190 535 q 183 502 190 521 q 175 476 176 483 q 198 445 175 460 q 249 410 221 431 q 300 362 278 390 q 322 289 322 333 q 304 206 322 247 q 268 126 286 164 q 250 63 250 89 q 261 33 250 40 q 288 26 272 26 q 357 47 321 26 q 427 100 393 68 q 488 167 461 132 q 528 232 514 203 l 556 211 q 481 94 529 151 q 372 1 432 38 q 251 -36 313 -36 z "},"s":{"ha":485,"x_min":-28,"x_max":535,"o":"m 157 -71 q 48 -42 89 -71 q -10 29 7 -14 q -28 117 -28 72 q -17 179 -28 157 q 11 213 -6 201 q 42 229 28 224 q 63 240 57 235 q 136 329 100 281 q 199 435 172 378 l 199 450 q 217 526 199 504 q 258 549 235 549 q 281 541 274 549 q 288 524 288 533 q 284 504 288 517 q 281 471 281 492 q 300 374 281 428 q 339 261 319 321 q 358 139 358 201 q 357 106 358 121 q 351 78 356 92 q 439 124 397 88 q 519 235 481 161 l 535 222 q 458 98 508 143 q 342 43 407 53 q 269 -43 319 -15 q 157 -71 219 -71 m 151 -14 q 200 -1 175 -14 q 240 44 225 13 q 137 90 182 57 q 67 157 92 122 q 44 115 44 153 q 72 27 44 68 q 151 -14 99 -14 m 250 81 q 253 106 253 92 q 254 131 254 119 q 238 256 253 194 q 208 381 222 318 q 147 284 181 333 q 83 204 113 235 q 148 129 104 164 q 250 81 192 94 z "},"t":{"ha":399,"x_min":-8,"x_max":454,"o":"m 124 -64 q 27 -28 63 -64 q -8 79 -8 7 q 14 224 -8 138 q 69 401 36 310 q 45 406 58 404 q 21 414 32 408 l 21 451 q 53 447 39 449 q 85 444 68 446 q 148 588 114 518 q 215 711 182 657 q 279 797 249 765 q 332 829 310 829 q 357 819 346 829 q 368 792 368 810 q 340 713 368 765 q 269 591 311 661 q 188 440 226 521 q 210 440 199 440 q 233 440 222 440 q 339 442 289 440 q 440 450 389 444 l 440 411 q 301 399 364 403 q 183 394 238 394 q 174 394 179 394 q 165 394 169 394 q 113 250 135 324 q 92 107 92 176 q 110 24 92 49 q 168 0 128 0 q 310 64 238 0 q 435 236 382 128 l 454 222 q 367 76 419 142 q 252 -26 314 11 q 124 -64 190 -64 z "},"u":{"ha":611,"x_min":-1,"x_max":664,"o":"m 106 -42 q 28 1 58 -42 q -1 101 -1 44 q 12 193 -1 140 q 44 297 25 246 q 85 381 64 347 q 124 414 107 414 q 152 404 133 414 q 185 381 171 394 q 148 311 169 358 q 110 210 126 264 q 93 113 93 157 q 95 84 93 106 q 106 44 97 63 q 138 26 115 26 q 189 52 161 26 q 245 119 217 78 q 300 210 274 161 q 349 303 326 258 q 385 378 371 347 q 415 372 396 376 q 448 358 433 367 q 463 335 463 350 q 449 300 463 331 q 418 226 436 269 q 387 139 400 183 q 374 61 374 94 q 382 25 374 40 q 414 10 390 10 q 484 36 443 10 q 568 113 525 63 q 644 233 611 164 l 664 218 q 585 84 633 143 q 483 -8 538 25 q 376 -42 428 -42 q 317 -24 338 -42 q 288 21 296 -7 q 281 78 281 49 q 281 99 281 88 q 283 119 282 110 q 231 42 260 79 q 172 -18 203 6 q 106 -42 140 -42 z "},"v":{"ha":568,"x_min":13,"x_max":618,"o":"m 99 -54 q 31 -9 50 -54 q 13 108 13 36 q 14 159 13 119 q 18 279 15 199 q 28 334 21 319 q 68 349 35 349 q 105 337 99 349 q 111 289 111 325 q 107 194 111 246 q 103 94 103 142 q 108 33 103 53 q 129 13 113 13 q 184 40 154 13 q 244 112 214 68 q 303 206 275 156 q 351 303 331 257 q 373 429 354 397 q 421 461 392 461 q 465 440 453 461 q 478 403 478 419 q 466 365 478 383 q 443 317 454 347 q 432 226 432 286 q 435 182 432 206 q 452 142 439 158 q 493 126 465 126 q 547 149 521 126 q 601 229 574 172 l 618 215 q 548 113 586 142 q 474 85 510 85 q 399 121 428 85 q 357 217 369 157 q 280 90 324 151 q 190 -13 236 28 q 99 -54 143 -54 z "},"w":{"ha":869,"x_min":-1,"x_max":922,"o":"m 400 -53 q 338 -12 354 -53 q 321 85 322 28 q 322 135 321 104 q 326 189 324 165 q 262 80 297 133 q 188 -8 226 26 q 106 -42 149 -42 q 29 1 60 -42 q -1 101 -1 43 q 12 194 -1 142 q 45 298 25 247 q 87 382 65 349 q 124 415 108 415 q 157 405 133 415 q 183 379 181 394 q 147 309 168 356 q 109 209 125 263 q 93 111 93 156 q 95 81 93 103 q 107 43 97 60 q 138 26 117 26 q 203 65 168 26 q 273 161 238 103 q 339 281 308 219 q 360 365 351 339 q 376 399 368 392 q 397 406 385 406 q 435 397 421 406 q 449 369 449 388 q 447 358 449 367 q 443 347 444 350 q 426 272 433 317 q 414 179 418 228 q 410 83 410 131 q 415 31 410 50 q 436 13 419 13 q 482 37 456 13 q 538 101 508 61 q 594 190 567 142 q 644 285 622 238 q 655 394 644 357 q 682 447 665 432 q 718 461 699 461 q 763 440 750 461 q 775 404 775 419 q 769 380 775 392 q 758 358 764 368 q 739 307 749 338 q 729 228 729 276 q 733 180 729 204 q 751 140 738 156 q 792 124 765 124 q 844 147 818 124 q 899 229 869 169 l 922 210 q 853 113 892 139 q 781 88 815 88 q 705 119 736 88 q 657 203 674 151 q 579 83 622 142 q 490 -15 536 24 q 400 -53 444 -53 z "},"x":{"ha":592,"x_min":13,"x_max":643,"o":"m 71 -82 q 56 -74 61 -82 q 50 -57 50 -65 q 79 5 50 -37 q 156 103 108 47 q 257 218 203 160 q 236 326 247 286 q 194 365 225 365 q 136 335 163 365 q 85 260 110 306 q 32 167 60 214 l 13 200 q 49 276 32 236 q 88 351 67 315 q 140 410 108 388 q 218 432 171 432 q 301 398 274 432 q 342 310 329 364 q 458 417 406 374 q 528 461 510 461 q 551 454 536 461 q 571 432 565 447 q 519 407 553 432 q 442 339 486 382 q 353 244 399 296 q 360 180 357 217 q 369 108 363 143 q 391 49 376 72 q 431 25 406 25 q 482 46 454 25 q 537 99 510 67 q 587 167 564 132 q 624 233 610 203 l 643 214 q 581 95 621 153 q 491 0 540 38 q 390 -37 442 -37 q 323 -11 347 -37 q 286 56 299 15 q 267 140 274 96 q 163 18 210 75 q 93 -71 117 -39 q 71 -82 83 -82 z "},"y":{"ha":550,"x_min":-28,"x_max":601,"o":"m 64 -389 q 1 -368 29 -389 q -28 -304 -28 -347 q -3 -224 -28 -260 q 63 -160 22 -189 q 151 -106 103 -131 q 246 -57 199 -81 q 282 49 263 -14 q 317 172 301 111 q 224 60 274 108 q 115 13 175 13 q 63 23 90 13 q 18 59 36 33 q 0 126 0 85 q 13 215 0 164 q 47 315 26 267 q 88 397 67 364 q 126 429 110 429 q 149 424 133 429 q 178 408 164 418 q 196 388 193 399 q 168 339 183 371 q 139 268 153 307 q 116 192 125 229 q 107 128 107 154 q 116 90 107 106 q 150 75 125 75 q 212 100 179 75 q 276 165 244 125 q 333 246 308 204 q 340 277 338 258 q 349 317 343 296 q 372 360 354 339 q 421 382 389 382 q 440 381 431 382 q 461 376 449 379 q 447 295 461 356 q 408 155 432 235 q 354 -6 385 75 q 478 74 415 18 q 579 229 540 131 l 601 213 q 538 92 581 143 q 443 6 496 42 q 338 -53 390 -29 q 257 -220 300 -143 q 166 -343 214 -297 q 64 -389 118 -389 m 53 -340 q 126 -285 78 -340 q 224 -110 174 -229 q 129 -165 175 -135 q 53 -228 83 -194 q 22 -300 22 -261 q 29 -326 22 -312 q 53 -340 36 -340 z "},"z":{"ha":453,"x_min":-96,"x_max":501,"o":"m 6 -389 q -69 -371 -42 -389 q -96 -311 -96 -353 q -66 -228 -96 -265 q 15 -156 -36 -190 q 126 -87 65 -122 q 249 -11 188 -53 q 224 76 249 35 q 139 161 200 117 q 228 210 192 176 q 283 283 264 243 q 301 360 301 324 q 289 407 301 386 q 246 428 276 428 q 167 392 203 428 q 99 299 131 356 q 36 176 67 242 l 13 196 q 76 344 43 278 q 156 451 110 411 q 267 490 201 490 q 358 459 319 490 q 396 369 396 428 q 374 282 396 324 q 315 207 351 240 q 236 151 279 174 q 293 96 269 126 q 329 33 317 65 q 421 121 381 74 q 483 229 461 168 l 501 208 q 439 94 481 147 q 342 1 397 42 q 346 -19 344 -8 q 347 -44 347 -31 q 319 -167 347 -107 q 243 -278 292 -228 q 133 -358 194 -328 q 6 -389 72 -389 m -11 -340 q 53 -321 14 -340 q 135 -265 93 -301 q 207 -177 176 -229 q 247 -58 238 -125 q 141 -123 194 -93 q 44 -181 88 -153 q -24 -239 1 -210 q -50 -300 -50 -268 q -39 -331 -50 -321 q -11 -340 -28 -340 z "},"!":{"ha":393,"x_min":-10,"x_max":496,"o":"m 150 410 q 210 563 178 482 q 275 722 242 644 q 341 862 308 799 q 404 963 374 925 q 461 1000 435 1000 q 485 989 475 1000 q 496 961 496 978 q 474 887 496 942 q 415 754 451 832 q 335 589 379 676 q 244 416 290 501 q 157 259 199 331 q 86 143 115 188 q 79 146 82 144 q 74 149 76 147 q 92 241 79 193 q 121 333 104 289 q 150 410 138 378 m 42 -14 q 6 -3 21 -14 q -10 31 -10 7 q 18 74 -10 56 q 76 93 46 93 q 108 84 96 93 q 121 53 121 75 q 97 8 121 31 q 42 -14 72 -14 z "},"":{"ha":397,"x_min":-92,"x_max":414,"o":"m -57 -347 q -81 -336 -71 -347 q -92 -308 -92 -325 q -70 -233 -92 -289 q -12 -101 -49 -178 q 69 64 24 -24 q 160 238 114 151 q 247 395 206 324 q 318 510 288 467 q 324 507 321 508 q 331 504 326 506 q 313 413 326 461 q 283 320 299 364 q 254 243 267 276 q 194 90 226 171 q 129 -68 163 10 q 63 -209 96 -146 q 0 -310 31 -272 q -57 -347 -31 -347 m 326 561 q 295 570 307 561 q 283 600 283 579 q 308 645 283 624 q 361 667 333 667 q 398 656 382 667 q 414 624 414 646 q 386 580 414 599 q 326 561 358 561 z "},"?":{"ha":629,"x_min":160,"x_max":663,"o":"m 353 168 q 310 199 321 185 q 300 242 300 213 q 326 360 300 307 q 392 463 353 414 q 472 560 432 511 q 538 667 511 610 q 564 794 564 724 q 533 910 564 871 q 457 950 503 950 q 360 912 408 950 q 281 810 313 874 q 250 668 250 746 q 253 624 250 644 q 264 578 257 603 q 181 619 201 589 q 160 692 160 649 q 197 841 160 771 q 302 956 233 911 q 461 1000 371 1000 q 608 951 553 1000 q 663 811 663 903 q 640 702 663 750 q 584 613 618 654 q 512 531 550 572 q 441 441 474 489 q 389 329 408 393 q 372 246 375 282 q 353 168 369 210 m 294 -14 q 258 -3 274 -14 q 243 29 243 8 q 272 74 243 56 q 329 93 300 93 q 361 84 349 93 q 374 56 374 75 q 349 8 374 31 q 294 -14 325 -14 z "},"":{"ha":597,"x_min":-61,"x_max":442,"o":"m 140 -389 q -6 -342 50 -389 q -61 -206 -61 -294 q -39 -111 -61 -153 q 17 -34 -17 -69 q 90 37 51 1 q 160 115 128 72 q 211 213 193 157 q 229 294 226 260 q 249 369 232 329 q 291 340 281 353 q 301 299 301 328 q 274 193 301 240 q 208 103 247 146 q 130 17 169 61 q 63 -77 90 -26 q 36 -190 36 -128 q 67 -302 36 -264 q 144 -340 99 -340 q 240 -303 193 -340 q 319 -204 288 -267 q 351 -68 351 -142 q 348 -26 351 -46 q 338 18 344 -6 q 421 -19 400 10 q 442 -92 442 -49 q 404 -235 442 -167 q 299 -346 367 -303 q 140 -389 232 -389 m 271 444 q 239 453 251 444 q 226 482 226 463 q 251 530 226 508 q 306 551 275 551 q 342 541 326 551 q 357 508 357 531 q 328 463 357 482 q 271 444 300 444 z "},",":{"ha":290,"x_min":0,"x_max":128,"o":"m 32 -122 q 8 -97 17 -112 q 0 -64 0 -82 q 13 -2 0 -36 q 45 56 25 32 q 86 81 65 81 q 115 67 103 81 q 128 38 128 54 q 74 -38 92 -1 q 32 -122 56 -75 z "},".":{"ha":322,"x_min":29,"x_max":157,"o":"m 85 -14 q 43 1 57 -14 q 29 33 29 15 q 43 65 29 49 q 76 91 57 81 q 114 101 96 101 q 144 93 131 101 q 157 63 157 85 q 148 32 157 50 q 123 0 139 14 q 85 -14 107 -14 z "},":":{"ha":332,"x_min":35,"x_max":243,"o":"m 165 322 q 130 333 146 322 q 114 365 114 343 q 143 410 114 392 q 200 428 172 428 q 232 419 221 428 q 243 388 243 410 q 219 344 243 367 q 165 322 196 322 m 86 -14 q 51 -3 67 -14 q 35 29 35 7 q 63 74 35 56 q 121 92 90 92 q 152 83 140 92 q 164 51 164 74 q 140 8 164 31 q 86 -14 115 -14 z "},";":{"ha":329,"x_min":22,"x_max":244,"o":"m 56 -122 q 30 -97 38 -112 q 22 -64 22 -81 q 35 1 22 -35 q 68 62 47 36 q 111 88 89 88 q 141 74 128 88 q 156 43 154 61 q 99 -34 119 4 q 56 -122 78 -72 m 165 324 q 129 334 144 324 q 114 367 114 344 q 142 411 114 393 q 200 429 169 429 q 232 421 219 429 q 244 390 244 413 q 220 346 244 368 q 165 324 196 324 z "},"":{"ha":751,"x_min":29,"x_max":586,"o":"m 514 -14 q 472 1 486 -14 q 458 33 458 15 q 472 65 458 49 q 505 91 485 81 q 543 101 525 101 q 573 93 560 101 q 586 63 586 85 q 577 32 586 50 q 551 0 568 14 q 514 -14 535 -14 m 85 -14 q 43 1 57 -14 q 29 33 29 15 q 43 65 29 49 q 76 91 57 81 q 114 101 96 101 q 144 93 131 101 q 157 63 157 85 q 148 32 157 50 q 123 0 139 14 q 85 -14 107 -14 m 294 -14 q 253 1 267 -14 q 240 33 240 15 q 253 65 240 49 q 287 91 267 81 q 325 101 307 101 q 353 93 340 101 q 367 63 367 85 q 358 32 367 50 q 333 0 349 14 q 294 -14 317 -14 z "},"":{"ha":319,"x_min":71,"x_max":200,"o":"m 124 164 q 83 178 96 164 q 71 211 71 192 q 85 241 71 226 q 119 265 99 256 q 157 275 139 275 q 186 267 172 275 q 200 238 200 260 q 190 208 200 225 q 163 177 179 190 q 124 164 146 164 z "},"-":{"ha":693,"x_min":68,"x_max":579,"o":"m 68 199 q 103 242 76 225 q 166 267 131 258 q 238 277 201 275 q 303 279 275 279 q 367 278 328 279 q 449 275 406 276 q 527 272 492 274 q 579 268 563 269 q 503 221 553 236 q 400 206 454 206 q 326 208 368 206 q 238 211 283 211 q 174 209 207 211 q 113 204 140 207 q 68 199 85 201 z "},"'":{"ha":201,"x_min":200,"x_max":329,"o":"m 233 800 q 208 825 215 810 q 200 858 200 840 q 213 919 200 886 q 245 977 225 953 q 288 1001 265 1001 q 315 988 303 1001 q 329 954 328 975 q 271 878 296 921 q 233 800 246 835 z "},"\"":{"ha":363,"x_min":200,"x_max":490,"o":"m 394 800 q 369 825 378 810 q 361 858 361 840 q 374 919 361 886 q 406 977 386 953 q 449 1001 426 1001 q 476 988 464 1001 q 490 954 489 975 q 433 878 457 921 q 394 800 410 836 m 233 800 q 208 825 215 810 q 200 858 200 840 q 213 919 200 886 q 245 977 225 953 q 288 1001 265 1001 q 315 988 303 1001 q 329 954 328 975 q 272 878 296 921 q 233 800 247 836 z "},"":{"ha":236,"x_min":194,"x_max":335,"o":"m 294 797 q 254 853 278 824 q 213 911 231 883 q 194 958 196 939 q 209 990 194 976 q 240 1004 224 1004 q 272 950 249 979 q 315 894 294 921 q 335 849 335 868 q 322 819 335 833 q 294 797 310 806 z "},"":{"ha":210,"x_min":190,"x_max":331,"o":"m 229 796 q 203 817 215 804 q 190 846 190 831 q 210 894 190 867 q 253 949 231 921 q 283 1001 275 976 q 316 988 301 1001 q 331 957 331 975 q 313 909 331 938 q 271 851 294 881 q 229 796 247 822 z "},"":{"ha":290,"x_min":0,"x_max":128,"o":"m 32 -122 q 8 -97 17 -112 q 0 -64 0 -82 q 13 -2 0 -36 q 45 56 25 32 q 86 81 65 81 q 115 67 103 81 q 128 38 128 54 q 74 -38 92 -1 q 32 -122 56 -75 z "},"":{"ha":401,"x_min":194,"x_max":500,"o":"m 460 797 q 419 853 443 824 q 378 911 396 883 q 360 958 361 939 q 374 990 360 976 q 407 1004 389 1004 q 437 951 414 979 q 480 896 460 922 q 500 849 500 869 q 488 819 500 833 q 460 797 475 806 m 294 797 q 254 853 278 824 q 213 911 231 883 q 194 958 196 939 q 209 990 194 976 q 240 1004 224 1004 q 272 951 249 979 q 315 896 294 922 q 335 849 335 869 q 322 819 335 833 q 294 797 310 806 z "},"":{"ha":376,"x_min":190,"x_max":497,"o":"m 396 797 q 369 819 382 806 q 356 849 356 833 q 376 896 356 869 q 419 951 397 922 q 450 1004 442 979 q 483 990 468 1004 q 497 958 497 976 q 479 911 497 939 q 438 853 461 883 q 396 797 414 824 m 231 797 q 203 819 217 806 q 190 849 190 833 q 211 896 190 869 q 254 951 232 922 q 285 1004 276 979 q 316 990 301 1004 q 331 958 331 976 q 313 911 331 939 q 272 853 294 883 q 231 797 249 824 z "},"":{"ha":443,"x_min":0,"x_max":281,"o":"m 185 -122 q 161 -97 169 -112 q 153 -64 153 -82 q 165 -2 153 -36 q 198 56 178 32 q 239 81 218 81 q 268 67 256 81 q 281 38 281 54 q 226 -38 244 -1 q 185 -122 208 -75 m 32 -122 q 8 -97 17 -112 q 0 -64 0 -82 q 13 -2 0 -36 q 45 56 25 32 q 86 81 65 81 q 115 67 103 81 q 128 38 128 54 q 74 -38 92 -1 q 32 -122 56 -75 z "},"(":{"ha":392,"x_min":97,"x_max":532,"o":"m 231 -121 q 163 -43 193 -100 q 115 94 132 14 q 97 265 97 175 q 129 510 97 397 q 212 715 161 624 q 322 869 263 806 q 436 966 381 932 q 532 1000 492 1000 q 377 844 442 933 q 272 655 313 756 q 213 449 232 554 q 193 243 193 343 q 213 51 193 135 q 265 -85 232 -32 q 249 -107 258 -99 q 231 -121 240 -115 z "},")":{"ha":415,"x_min":-60,"x_max":388,"o":"m -18 -121 q -42 -105 -31 -119 q -60 -78 -54 -90 q 122 94 40 -11 q 252 336 203 199 q 301 640 301 474 q 281 819 301 729 q 186 1004 260 910 q 276 944 229 994 q 356 807 324 893 q 388 603 388 721 q 356 367 388 478 q 276 167 325 257 q 170 13 226 78 q 64 -86 114 -51 q -18 -121 14 -121 z "},"[":{"ha":588,"x_min":58,"x_max":651,"o":"m 306 -121 q 212 -115 261 -121 q 122 -103 163 -110 q 58 -92 81 -96 q 65 -75 61 -85 q 76 -41 69 -65 q 92 32 82 -17 q 117 164 101 81 q 156 376 132 247 q 211 690 179 506 q 265 870 233 808 q 333 955 297 932 q 399 978 368 978 q 444 976 417 978 q 501 974 472 974 q 578 979 539 974 q 651 1004 617 985 q 626 920 649 947 q 570 885 604 893 q 496 876 536 876 q 422 885 461 876 q 346 900 383 893 q 308 761 326 842 q 272 589 289 681 q 238 403 254 497 q 206 224 221 310 q 179 72 192 139 q 156 -32 167 6 q 280 -31 231 -32 q 365 -26 329 -29 q 431 -18 401 -24 q 493 -3 460 -12 q 447 -92 492 -62 q 306 -121 403 -121 z "},"]":{"ha":613,"x_min":6,"x_max":596,"o":"m 6 -122 q 33 -52 10 -76 q 91 -19 56 -28 q 164 -10 126 -10 q 247 -14 200 -10 q 335 -21 293 -18 q 381 143 358 44 q 426 353 404 242 q 469 575 449 465 q 506 777 489 685 q 536 926 524 869 l 444 926 q 297 919 364 925 q 164 894 229 913 q 213 982 164 963 q 346 1001 263 1001 q 469 994 406 1001 q 596 972 532 986 q 586 898 593 950 q 569 775 579 846 q 546 624 558 704 q 520 465 533 544 q 494 313 507 385 q 472 188 482 242 q 455 107 467 154 q 422 13 443 60 q 369 -66 401 -35 q 286 -97 336 -97 q 137 -101 210 -97 q 6 -122 64 -104 z "},"{":{"ha":401,"x_min":74,"x_max":469,"o":"m 176 -121 q 96 -91 118 -121 q 74 -24 74 -61 q 89 56 74 14 q 125 145 104 99 q 161 238 146 192 q 176 328 176 283 q 164 399 176 363 q 111 465 151 435 q 194 508 167 471 q 231 603 221 546 q 246 724 240 661 q 256 824 250 775 q 274 913 261 872 q 314 976 288 953 q 388 1000 340 1000 q 424 993 404 1000 q 457 967 444 986 q 463 913 469 949 q 431 928 442 924 q 411 933 419 933 q 368 899 383 933 q 344 813 353 865 q 329 703 336 761 q 313 587 322 642 q 285 494 303 532 q 235 447 268 457 q 259 408 251 429 q 267 353 267 386 q 251 240 267 293 q 215 138 236 186 q 179 48 194 90 q 164 -35 164 6 q 176 -63 164 -53 q 207 -74 188 -74 q 249 -61 229 -74 q 224 -110 246 -99 q 176 -121 201 -121 z "},"}":{"ha":397,"x_min":-6,"x_max":400,"o":"m 81 -121 q 42 -112 63 -121 q 8 -84 22 -104 q -4 -29 -6 -64 q 51 -51 29 -51 q 94 -17 78 -51 q 119 72 110 18 q 135 183 129 126 q 152 306 142 244 q 182 414 163 367 q 239 483 201 461 q 213 530 219 506 q 206 581 206 554 q 220 674 206 625 q 254 771 235 724 q 288 858 274 818 q 303 921 303 897 q 295 942 303 936 q 276 947 288 947 q 256 943 268 947 q 232 929 244 939 q 253 983 229 958 q 324 1008 276 1008 q 379 993 358 1008 q 400 949 400 978 q 385 883 400 922 q 349 798 369 844 q 314 701 329 751 q 299 601 299 651 q 310 530 299 567 q 361 468 322 493 q 278 413 307 454 q 239 311 250 371 q 222 186 228 251 q 213 75 218 131 q 195 -24 207 19 q 156 -94 183 -68 q 81 -121 129 -121 z "},"&":{"ha":910,"x_min":14,"x_max":939,"o":"m 303 -121 q 150 -85 215 -121 q 49 8 85 -50 q 14 136 14 65 q 41 259 14 199 q 116 369 68 319 q 229 453 164 419 q 371 496 294 486 q 294 596 319 540 q 268 708 268 651 q 306 849 268 783 q 410 957 343 915 q 565 999 478 999 q 688 960 646 999 q 731 847 731 921 q 713 744 731 794 q 669 662 694 694 q 618 629 643 629 q 584 645 600 629 q 557 682 568 661 q 640 771 607 725 q 674 867 674 817 q 651 933 674 907 q 581 958 629 958 q 474 921 517 958 q 408 824 431 883 q 385 693 385 764 q 391 622 385 661 q 418 545 397 583 q 479 474 439 507 q 310 404 382 458 q 198 278 238 350 q 158 135 158 206 q 176 47 158 92 q 233 -30 193 1 q 339 -61 274 -61 q 481 -25 413 -61 q 606 71 550 11 q 699 206 663 131 q 744 361 735 282 q 692 357 717 360 q 638 349 668 354 q 557 333 607 343 q 604 422 560 400 q 710 444 649 444 q 791 439 754 444 q 864 428 828 433 q 939 421 900 422 q 903 372 919 381 q 871 364 886 364 q 828 363 846 364 q 792 363 810 363 q 739 181 782 268 q 628 26 696 94 q 478 -81 561 -42 q 303 -121 394 -121 z "},"":{"ha":858,"x_min":-8,"x_max":951,"o":"m 50 -121 q 2 -78 13 -100 q -8 -39 -8 -56 q 19 63 -8 -1 q 94 210 47 128 q 199 383 140 293 q 115 388 153 386 q 28 389 76 389 l -4 389 q 55 455 14 436 q 151 474 96 474 q 201 471 175 474 q 254 465 226 468 q 393 660 324 567 q 524 826 463 753 q 632 944 586 900 q 719 1001 690 1001 q 760 988 738 1001 q 807 951 782 974 q 772 894 793 940 q 726 776 750 847 q 677 621 701 706 q 633 449 653 536 q 602 283 614 363 q 590 143 590 204 q 601 61 590 89 q 639 33 613 33 q 719 83 672 33 q 824 240 767 132 l 844 218 q 734 32 801 104 q 592 -40 667 -40 q 502 15 529 -40 q 475 165 475 69 q 480 246 475 201 q 494 349 485 290 q 385 364 433 358 q 293 375 336 369 q 165 130 228 257 q 50 -121 103 3 m 507 410 q 552 583 526 496 q 606 749 578 669 q 661 892 635 829 q 566 797 619 861 q 454 643 513 732 q 335 450 396 554 q 422 430 379 440 q 507 410 465 419 m 799 1039 q 776 1060 783 1046 q 769 1082 769 1075 q 783 1119 769 1093 q 819 1174 797 1146 q 867 1224 842 1203 q 913 1244 892 1244 q 938 1234 926 1244 q 951 1197 949 1224 q 865 1115 901 1151 q 799 1039 828 1078 z "},"":{"ha":858,"x_min":-8,"x_max":985,"o":"m 50 -121 q 2 -78 13 -100 q -8 -39 -8 -56 q 19 63 -8 -1 q 94 210 47 128 q 199 383 140 293 q 115 388 153 386 q 28 389 76 389 l -4 389 q 55 455 14 436 q 151 474 96 474 q 201 471 175 474 q 254 465 226 468 q 393 660 324 567 q 524 826 463 753 q 632 944 586 900 q 719 1001 690 1001 q 760 988 738 1001 q 807 951 782 974 q 772 894 793 940 q 726 776 750 847 q 677 621 701 706 q 633 449 653 536 q 602 283 614 363 q 590 143 590 204 q 601 61 590 89 q 639 33 613 33 q 719 83 672 33 q 824 240 767 132 l 844 218 q 734 32 801 104 q 592 -40 667 -40 q 502 15 529 -40 q 475 165 475 69 q 480 246 475 201 q 494 349 485 290 q 385 364 433 358 q 293 375 336 369 q 165 130 228 257 q 50 -121 103 3 m 507 410 q 552 583 526 496 q 606 749 578 669 q 661 892 635 829 q 566 797 619 861 q 454 643 513 732 q 335 450 396 554 q 422 430 379 440 q 507 410 465 419 m 835 1053 q 746 1075 779 1053 q 698 1127 713 1097 q 683 1183 683 1157 q 693 1225 683 1208 q 721 1251 703 1242 q 753 1172 726 1208 q 838 1135 781 1135 q 919 1159 889 1135 q 967 1208 950 1183 q 980 1186 976 1199 q 983 1164 983 1174 q 938 1085 983 1117 q 835 1053 893 1053 z "},"":{"ha":858,"x_min":-8,"x_max":985,"o":"m 50 -121 q 2 -78 13 -100 q -8 -39 -8 -56 q 19 63 -8 -1 q 94 210 47 128 q 199 383 140 293 q 115 388 153 386 q 28 389 76 389 l -4 389 q 55 455 14 436 q 151 474 96 474 q 201 471 175 474 q 254 465 226 468 q 393 660 324 567 q 524 826 463 753 q 632 944 586 900 q 719 1001 690 1001 q 760 988 738 1001 q 807 951 782 974 q 772 894 793 940 q 726 776 750 847 q 677 621 701 706 q 633 449 653 536 q 602 283 614 363 q 590 143 590 204 q 601 61 590 89 q 639 33 613 33 q 719 83 672 33 q 824 240 767 132 l 844 218 q 734 32 801 104 q 592 -40 667 -40 q 502 15 529 -40 q 475 165 475 69 q 480 246 475 201 q 494 349 485 290 q 385 364 433 358 q 293 375 336 369 q 165 130 228 257 q 50 -121 103 3 m 507 410 q 552 583 526 496 q 606 749 578 669 q 661 892 635 829 q 566 797 619 861 q 454 643 513 732 q 335 450 396 554 q 422 430 379 440 q 507 410 465 419 m 835 1053 q 746 1075 779 1053 q 698 1127 713 1097 q 683 1183 683 1157 q 693 1225 683 1208 q 721 1251 703 1242 q 753 1172 726 1208 q 838 1135 781 1135 q 919 1159 889 1135 q 967 1208 950 1183 q 980 1187 976 1199 q 983 1164 983 1175 q 938 1085 983 1117 q 835 1053 893 1053 m 846 1199 q 822 1217 829 1206 q 814 1242 814 1229 q 826 1278 814 1256 q 858 1324 839 1301 q 900 1364 878 1347 q 940 1381 922 1381 q 965 1370 954 1381 q 979 1333 976 1360 q 935 1293 960 1317 q 886 1244 910 1269 q 846 1199 863 1219 z "},"":{"ha":858,"x_min":-8,"x_max":985,"o":"m 50 -121 q 2 -78 13 -100 q -8 -39 -8 -56 q 19 63 -8 -1 q 94 210 47 128 q 199 383 140 293 q 115 388 153 386 q 28 389 76 389 l -4 389 q 55 455 14 436 q 151 474 96 474 q 201 471 175 474 q 254 465 226 468 q 393 660 324 567 q 524 826 463 753 q 632 944 586 900 q 719 1001 690 1001 q 760 988 738 1001 q 807 951 782 974 q 772 894 793 940 q 726 776 750 847 q 677 621 701 706 q 633 449 653 536 q 602 283 614 363 q 590 143 590 204 q 601 61 590 89 q 639 33 613 33 q 719 83 672 33 q 824 240 767 132 l 844 218 q 734 32 801 104 q 592 -40 667 -40 q 502 15 529 -40 q 475 165 475 69 q 480 246 475 201 q 494 349 485 290 q 385 364 433 358 q 293 375 336 369 q 165 130 228 257 q 50 -121 103 3 m 507 410 q 552 583 526 496 q 606 749 578 669 q 661 892 635 829 q 566 797 619 861 q 454 643 513 732 q 335 450 396 554 q 422 430 379 440 q 507 410 465 419 m 835 1053 q 746 1075 779 1053 q 698 1127 713 1097 q 683 1183 683 1157 q 693 1225 683 1208 q 721 1251 703 1242 q 753 1172 726 1208 q 838 1135 781 1135 q 919 1159 889 1135 q 967 1208 950 1183 q 980 1186 976 1199 q 983 1164 983 1174 q 938 1085 983 1117 q 835 1053 893 1053 m 267 -265 q 224 -252 240 -265 q 207 -214 207 -239 q 238 -162 207 -182 q 300 -143 268 -143 q 341 -156 328 -143 q 354 -192 354 -169 q 326 -243 354 -221 q 267 -265 299 -265 z "},"":{"ha":858,"x_min":-8,"x_max":985,"o":"m 50 -121 q 2 -78 13 -100 q -8 -39 -8 -56 q 19 63 -8 -1 q 94 210 47 128 q 199 383 140 293 q 115 388 153 386 q 28 389 76 389 l -4 389 q 55 455 14 436 q 151 474 96 474 q 201 471 175 474 q 254 465 226 468 q 393 660 324 567 q 524 826 463 753 q 632 944 586 900 q 719 1001 690 1001 q 760 988 738 1001 q 807 951 782 974 q 772 894 793 940 q 726 776 750 847 q 677 621 701 706 q 633 449 653 536 q 602 283 614 363 q 590 143 590 204 q 601 61 590 89 q 639 33 613 33 q 719 83 672 33 q 824 240 767 132 l 844 218 q 734 32 801 104 q 592 -40 667 -40 q 502 15 529 -40 q 475 165 475 69 q 480 246 475 201 q 494 349 485 290 q 385 364 433 358 q 293 375 336 369 q 165 130 228 257 q 50 -121 103 3 m 507 410 q 552 583 526 496 q 606 749 578 669 q 661 892 635 829 q 566 797 619 861 q 454 643 513 732 q 335 450 396 554 q 422 430 379 440 q 507 410 465 419 m 835 1053 q 746 1075 779 1053 q 698 1127 713 1097 q 683 1183 683 1157 q 693 1225 683 1208 q 721 1251 703 1242 q 753 1172 726 1208 q 838 1135 781 1135 q 919 1159 889 1135 q 967 1208 950 1183 q 980 1187 976 1199 q 983 1164 983 1175 q 938 1085 983 1117 q 835 1053 893 1053 m 860 1199 q 819 1245 843 1219 q 771 1294 794 1271 q 726 1333 747 1318 q 740 1371 729 1361 q 764 1381 750 1381 q 806 1365 783 1381 q 847 1325 828 1349 q 879 1278 867 1301 q 892 1243 892 1256 q 884 1217 892 1229 q 860 1199 876 1206 z "},"":{"ha":858,"x_min":-8,"x_max":985,"o":"m 50 -121 q 2 -78 13 -100 q -8 -39 -8 -56 q 19 63 -8 -1 q 94 210 47 128 q 199 383 140 293 q 115 388 153 386 q 28 389 76 389 l -4 389 q 55 455 14 436 q 151 474 96 474 q 201 471 175 474 q 254 465 226 468 q 393 660 324 567 q 524 826 463 753 q 632 944 586 900 q 719 1001 690 1001 q 760 988 738 1001 q 807 951 782 974 q 772 894 793 940 q 726 776 750 847 q 677 621 701 706 q 633 449 653 536 q 602 283 614 363 q 590 143 590 204 q 601 61 590 89 q 639 33 613 33 q 719 83 672 33 q 824 240 767 132 l 844 218 q 734 32 801 104 q 592 -40 667 -40 q 502 15 529 -40 q 475 165 475 69 q 480 246 475 201 q 494 349 485 290 q 385 364 433 358 q 293 375 336 369 q 165 130 228 257 q 50 -121 103 3 m 507 410 q 552 583 526 496 q 606 749 578 669 q 661 892 635 829 q 566 797 619 861 q 454 643 513 732 q 335 450 396 554 q 422 430 379 440 q 507 410 465 419 m 835 1053 q 746 1075 779 1053 q 698 1127 713 1097 q 683 1183 683 1157 q 693 1225 683 1208 q 721 1251 703 1242 q 753 1172 726 1208 q 838 1135 781 1135 q 919 1159 889 1135 q 967 1208 950 1183 q 980 1186 976 1199 q 983 1164 983 1174 q 938 1085 983 1117 q 835 1053 893 1053 m 854 1192 q 826 1197 839 1192 q 806 1207 814 1201 q 871 1226 843 1213 q 899 1272 899 1240 q 868 1314 899 1301 q 771 1326 838 1326 q 790 1376 771 1356 q 846 1397 808 1397 q 924 1366 893 1397 q 954 1290 954 1335 q 926 1219 954 1247 q 854 1192 899 1192 z "},"":{"ha":858,"x_min":-8,"x_max":1090,"o":"m 50 -121 q 2 -78 13 -100 q -8 -39 -8 -56 q 19 63 -8 -1 q 94 210 47 128 q 199 383 140 293 q 115 388 153 386 q 28 389 76 389 l -4 389 q 55 455 14 436 q 151 474 96 474 q 201 471 175 474 q 254 465 226 468 q 393 660 324 567 q 524 826 463 753 q 632 944 586 900 q 719 1001 690 1001 q 760 988 738 1001 q 807 951 782 974 q 772 894 793 940 q 726 776 750 847 q 677 621 701 706 q 633 449 653 536 q 602 283 614 363 q 590 143 590 204 q 601 61 590 89 q 639 33 613 33 q 719 83 672 33 q 824 240 767 132 l 844 218 q 734 32 801 104 q 592 -40 667 -40 q 502 15 529 -40 q 475 165 475 69 q 480 246 475 201 q 494 349 485 290 q 385 364 433 358 q 293 375 336 369 q 165 130 228 257 q 50 -121 103 3 m 507 410 q 552 583 526 496 q 606 749 578 669 q 661 892 635 829 q 566 797 619 861 q 454 643 513 732 q 335 450 396 554 q 422 430 379 440 q 507 410 465 419 m 835 1053 q 746 1075 779 1053 q 698 1127 713 1097 q 683 1183 683 1157 q 693 1225 683 1208 q 721 1251 703 1242 q 753 1172 726 1208 q 838 1135 781 1135 q 919 1159 889 1135 q 967 1208 950 1183 q 980 1186 976 1199 q 983 1164 983 1174 q 938 1085 983 1117 q 835 1053 893 1053 m 975 1238 q 895 1254 936 1238 q 813 1287 854 1271 q 733 1303 772 1303 q 692 1299 713 1303 q 649 1285 671 1296 q 701 1344 669 1325 q 772 1363 732 1363 q 852 1346 811 1363 q 935 1313 893 1329 q 1021 1296 978 1296 q 1090 1308 1056 1296 q 1042 1255 1069 1272 q 975 1238 1014 1238 z "},"":{"ha":858,"x_min":-8,"x_max":954,"o":"m 50 -121 q 2 -78 13 -100 q -8 -39 -8 -56 q 19 63 -8 -1 q 94 210 47 128 q 199 383 140 293 q 115 388 153 386 q 28 389 76 389 l -4 389 q 55 455 14 436 q 151 474 96 474 q 201 471 175 474 q 254 465 226 468 q 393 660 324 567 q 524 826 463 753 q 632 944 586 900 q 719 1001 690 1001 q 760 988 738 1001 q 807 951 782 974 q 772 894 793 940 q 726 776 750 847 q 677 621 701 706 q 633 449 653 536 q 602 283 614 363 q 590 143 590 204 q 601 61 590 89 q 639 33 613 33 q 719 83 672 33 q 824 240 767 132 l 844 218 q 734 32 801 104 q 592 -40 667 -40 q 502 15 529 -40 q 475 165 475 69 q 480 246 475 201 q 494 349 485 290 q 385 364 433 358 q 293 375 336 369 q 165 130 228 257 q 50 -121 103 3 m 507 410 q 552 583 526 496 q 606 749 578 669 q 661 892 635 829 q 566 797 619 861 q 454 643 513 732 q 335 450 396 554 q 422 430 379 440 q 507 410 465 419 m 922 1033 q 877 1099 901 1072 q 822 1153 853 1125 q 748 1121 782 1139 q 679 1078 714 1103 q 667 1096 671 1085 q 663 1113 663 1107 q 681 1154 663 1133 q 728 1193 700 1175 q 782 1222 756 1211 q 824 1233 808 1233 q 863 1219 840 1233 q 906 1181 885 1204 q 940 1131 926 1157 q 953 1083 953 1106 q 947 1056 953 1069 q 922 1033 940 1042 z "},"":{"ha":858,"x_min":-8,"x_max":1117,"o":"m 50 -121 q 2 -78 13 -100 q -8 -39 -8 -56 q 19 63 -8 -1 q 94 210 47 128 q 199 383 140 293 q 115 388 153 386 q 28 389 76 389 l -4 389 q 55 455 14 436 q 151 474 96 474 q 201 471 175 474 q 254 465 226 468 q 393 660 324 567 q 524 826 463 753 q 632 944 586 900 q 719 1001 690 1001 q 760 988 738 1001 q 807 951 782 974 q 772 894 793 940 q 726 776 750 847 q 677 621 701 706 q 633 449 653 536 q 602 283 614 363 q 590 143 590 204 q 601 61 590 89 q 639 33 613 33 q 719 83 672 33 q 824 240 767 132 l 844 218 q 734 32 801 104 q 592 -40 667 -40 q 502 15 529 -40 q 475 165 475 69 q 480 246 475 201 q 494 349 485 290 q 385 364 433 358 q 293 375 336 369 q 165 130 228 257 q 50 -121 103 3 m 507 410 q 552 583 526 496 q 606 749 578 669 q 661 892 635 829 q 566 797 619 861 q 454 643 513 732 q 335 450 396 554 q 422 430 379 440 q 507 410 465 419 m 983 1168 q 959 1187 967 1175 q 951 1213 951 1199 q 964 1248 951 1225 q 996 1294 976 1271 q 1038 1334 1015 1318 q 1079 1350 1060 1350 q 1103 1340 1093 1350 q 1117 1303 1114 1331 q 1073 1264 1097 1288 q 1025 1215 1049 1240 q 983 1168 1001 1189 m 922 1033 q 877 1099 901 1072 q 822 1153 853 1125 q 748 1121 782 1139 q 679 1078 714 1103 q 667 1096 671 1085 q 663 1113 663 1107 q 681 1154 663 1133 q 728 1193 700 1175 q 782 1222 756 1211 q 824 1233 808 1233 q 863 1219 840 1233 q 906 1181 885 1204 q 940 1131 926 1157 q 953 1083 953 1106 q 947 1056 953 1069 q 922 1033 940 1042 z "},"":{"ha":858,"x_min":-8,"x_max":954,"o":"m 50 -121 q 2 -78 13 -100 q -8 -39 -8 -56 q 19 63 -8 -1 q 94 210 47 128 q 199 383 140 293 q 115 388 153 386 q 28 389 76 389 l -4 389 q 55 455 14 436 q 151 474 96 474 q 201 471 175 474 q 254 465 226 468 q 393 660 324 567 q 524 826 463 753 q 632 944 586 900 q 719 1001 690 1001 q 760 988 738 1001 q 807 951 782 974 q 772 894 793 940 q 726 776 750 847 q 677 621 701 706 q 633 449 653 536 q 602 283 614 363 q 590 143 590 204 q 601 61 590 89 q 639 33 613 33 q 719 83 672 33 q 824 240 767 132 l 844 218 q 734 32 801 104 q 592 -40 667 -40 q 502 15 529 -40 q 475 165 475 69 q 480 246 475 201 q 494 349 485 290 q 385 364 433 358 q 293 375 336 369 q 165 130 228 257 q 50 -121 103 3 m 507 410 q 552 583 526 496 q 606 749 578 669 q 661 892 635 829 q 566 797 619 861 q 454 643 513 732 q 335 450 396 554 q 422 430 379 440 q 507 410 465 419 m 922 1033 q 877 1099 901 1072 q 822 1153 853 1125 q 748 1121 782 1139 q 679 1078 714 1103 q 667 1096 671 1085 q 663 1113 663 1107 q 681 1154 663 1133 q 728 1193 700 1175 q 782 1222 756 1211 q 824 1233 808 1233 q 863 1219 840 1233 q 906 1181 885 1204 q 940 1131 926 1157 q 953 1083 953 1106 q 947 1056 953 1069 q 922 1033 940 1042 m 267 -265 q 224 -252 240 -265 q 207 -214 207 -239 q 238 -162 207 -182 q 300 -143 268 -143 q 341 -156 328 -143 q 354 -192 354 -169 q 326 -243 354 -221 q 267 -265 299 -265 z "},"":{"ha":858,"x_min":-8,"x_max":1031,"o":"m 50 -121 q 2 -78 13 -100 q -8 -39 -8 -56 q 19 63 -8 -1 q 94 210 47 128 q 199 383 140 293 q 115 388 153 386 q 28 389 76 389 l -4 389 q 55 455 14 436 q 151 474 96 474 q 201 471 175 474 q 254 465 226 468 q 393 660 324 567 q 524 826 463 753 q 632 944 586 900 q 719 1001 690 1001 q 760 988 738 1001 q 807 951 782 974 q 772 894 793 940 q 726 776 750 847 q 677 621 701 706 q 633 449 653 536 q 602 283 614 363 q 590 143 590 204 q 601 61 590 89 q 639 33 613 33 q 719 83 672 33 q 824 240 767 132 l 844 218 q 734 32 801 104 q 592 -40 667 -40 q 502 15 529 -40 q 475 165 475 69 q 480 246 475 201 q 494 349 485 290 q 385 364 433 358 q 293 375 336 369 q 165 130 228 257 q 50 -121 103 3 m 507 410 q 552 583 526 496 q 606 749 578 669 q 661 892 635 829 q 566 797 619 861 q 454 643 513 732 q 335 450 396 554 q 422 430 379 440 q 507 410 465 419 m 999 1164 q 965 1215 986 1188 q 923 1269 944 1243 q 883 1314 901 1296 q 898 1345 888 1338 q 922 1353 908 1353 q 960 1335 940 1353 q 994 1293 979 1318 q 1019 1243 1010 1268 q 1029 1206 1029 1218 q 999 1164 1029 1175 m 922 1033 q 877 1099 901 1072 q 822 1153 853 1125 q 748 1121 782 1139 q 679 1078 714 1103 q 667 1096 671 1085 q 663 1113 663 1107 q 681 1154 663 1133 q 728 1193 700 1175 q 782 1222 756 1211 q 824 1233 808 1233 q 863 1219 840 1233 q 906 1181 885 1204 q 940 1131 926 1157 q 953 1083 953 1106 q 947 1056 953 1069 q 922 1033 940 1042 z "},"":{"ha":858,"x_min":-8,"x_max":1097,"o":"m 50 -121 q 2 -78 13 -100 q -8 -39 -8 -56 q 19 63 -8 -1 q 94 210 47 128 q 199 383 140 293 q 115 388 153 386 q 28 389 76 389 l -4 389 q 55 455 14 436 q 151 474 96 474 q 201 471 175 474 q 254 465 226 468 q 393 660 324 567 q 524 826 463 753 q 632 944 586 900 q 719 1001 690 1001 q 760 988 738 1001 q 807 951 782 974 q 772 894 793 940 q 726 776 750 847 q 677 621 701 706 q 633 449 653 536 q 602 283 614 363 q 590 143 590 204 q 601 61 590 89 q 639 33 613 33 q 719 83 672 33 q 824 240 767 132 l 844 218 q 734 32 801 104 q 592 -40 667 -40 q 502 15 529 -40 q 475 165 475 69 q 480 246 475 201 q 494 349 485 290 q 385 364 433 358 q 293 375 336 369 q 165 130 228 257 q 50 -121 103 3 m 507 410 q 552 583 526 496 q 606 749 578 669 q 661 892 635 829 q 566 797 619 861 q 454 643 513 732 q 335 450 396 554 q 422 430 379 440 q 507 410 465 419 m 1015 1156 q 990 1160 1001 1156 q 971 1168 978 1164 q 1022 1188 1001 1174 q 1042 1226 1042 1203 q 1010 1272 1042 1257 q 914 1288 979 1288 q 933 1338 914 1317 q 988 1358 951 1358 q 1065 1325 1035 1358 q 1096 1243 1096 1292 q 1074 1180 1096 1204 q 1015 1156 1051 1156 m 922 1033 q 877 1099 901 1072 q 822 1153 853 1125 q 748 1121 782 1139 q 679 1078 714 1103 q 667 1096 671 1085 q 663 1113 663 1107 q 681 1154 663 1133 q 728 1193 700 1175 q 782 1222 756 1211 q 824 1233 808 1233 q 863 1219 840 1233 q 906 1181 885 1204 q 940 1131 926 1157 q 953 1083 953 1106 q 947 1056 953 1069 q 922 1033 940 1042 z "},"":{"ha":858,"x_min":-8,"x_max":1090,"o":"m 50 -121 q 2 -78 13 -100 q -8 -39 -8 -56 q 19 63 -8 -1 q 94 210 47 128 q 199 383 140 293 q 115 388 153 386 q 28 389 76 389 l -4 389 q 55 455 14 436 q 151 474 96 474 q 201 471 175 474 q 254 465 226 468 q 393 660 324 567 q 524 826 463 753 q 632 944 586 900 q 719 1001 690 1001 q 760 988 738 1001 q 807 951 782 974 q 772 894 793 940 q 726 776 750 847 q 677 621 701 706 q 633 449 653 536 q 602 283 614 363 q 590 143 590 204 q 601 61 590 89 q 639 33 613 33 q 719 83 672 33 q 824 240 767 132 l 844 218 q 734 32 801 104 q 592 -40 667 -40 q 502 15 529 -40 q 475 165 475 69 q 480 246 475 201 q 494 349 485 290 q 385 364 433 358 q 293 375 336 369 q 165 130 228 257 q 50 -121 103 3 m 507 410 q 552 583 526 496 q 606 749 578 669 q 661 892 635 829 q 566 797 619 861 q 454 643 513 732 q 335 450 396 554 q 422 430 379 440 q 507 410 465 419 m 835 1053 q 746 1075 779 1053 q 698 1127 713 1097 q 683 1183 683 1157 q 693 1225 683 1208 q 721 1251 703 1242 q 753 1172 726 1208 q 838 1135 781 1135 q 919 1159 889 1135 q 967 1208 950 1183 q 980 1186 976 1199 q 983 1164 983 1174 q 938 1085 983 1117 q 835 1053 893 1053 m 975 1238 q 895 1254 936 1238 q 813 1287 854 1271 q 733 1303 772 1303 q 692 1299 713 1303 q 649 1285 671 1296 q 701 1344 669 1325 q 772 1363 732 1363 q 852 1346 811 1363 q 935 1313 893 1329 q 1021 1296 978 1296 q 1090 1308 1056 1296 q 1042 1255 1069 1272 q 975 1238 1014 1238 z "},"":{"ha":858,"x_min":-8,"x_max":878,"o":"m 50 -121 q 2 -78 13 -100 q -8 -39 -8 -56 q 19 63 -8 -1 q 94 210 47 128 q 199 383 140 293 q 115 388 153 386 q 28 389 76 389 l -4 389 q 55 455 14 436 q 151 474 96 474 q 201 471 175 474 q 254 465 226 468 q 393 660 324 567 q 524 826 463 753 q 632 944 586 900 q 719 1001 690 1001 q 760 988 738 1001 q 807 951 782 974 q 772 894 793 940 q 726 776 750 847 q 677 621 701 706 q 633 449 653 536 q 602 283 614 363 q 590 143 590 204 q 601 61 590 89 q 639 33 613 33 q 719 83 672 33 q 824 240 767 132 l 844 218 q 734 32 801 104 q 592 -40 667 -40 q 502 15 529 -40 q 475 165 475 69 q 480 246 475 201 q 494 349 485 290 q 385 364 433 358 q 293 375 336 369 q 165 130 228 257 q 50 -121 103 3 m 507 410 q 552 583 526 496 q 606 749 578 669 q 661 892 635 829 q 566 797 619 861 q 454 643 513 732 q 335 450 396 554 q 422 430 379 440 q 507 410 465 419 m 747 1043 q 683 1127 718 1083 q 608 1217 649 1171 q 630 1234 618 1226 q 657 1242 642 1242 q 694 1222 675 1242 q 731 1175 714 1203 q 758 1121 747 1147 q 769 1082 769 1094 q 747 1043 769 1056 m 844 1046 q 801 1124 826 1082 q 743 1204 775 1165 q 761 1231 750 1221 q 786 1240 772 1240 q 822 1223 806 1240 q 851 1181 839 1206 q 870 1133 863 1157 q 878 1093 878 1108 q 867 1059 878 1069 q 844 1046 857 1049 z "},"":{"ha":858,"x_min":-8,"x_max":983,"o":"m 50 -121 q 2 -78 13 -100 q -8 -39 -8 -56 q 19 63 -8 -1 q 94 210 47 128 q 199 383 140 293 q 115 388 153 386 q 28 389 76 389 l -4 389 q 55 455 14 436 q 151 474 96 474 q 201 471 175 474 q 254 465 226 468 q 393 660 324 567 q 524 826 463 753 q 632 944 586 900 q 719 1001 690 1001 q 760 988 738 1001 q 807 951 782 974 q 772 894 793 940 q 726 776 750 847 q 677 621 701 706 q 633 449 653 536 q 602 283 614 363 q 590 143 590 204 q 601 61 590 89 q 639 33 613 33 q 719 83 672 33 q 824 240 767 132 l 844 218 q 734 32 801 104 q 592 -40 667 -40 q 502 15 529 -40 q 475 165 475 69 q 480 246 475 201 q 494 349 485 290 q 385 364 433 358 q 293 375 336 369 q 165 130 228 257 q 50 -121 103 3 m 507 410 q 552 583 526 496 q 606 749 578 669 q 661 892 635 829 q 566 797 619 861 q 454 643 513 732 q 335 450 396 554 q 422 430 379 440 q 507 410 465 419 m 899 1046 q 860 1057 876 1046 q 843 1092 843 1068 q 874 1138 843 1118 q 935 1157 904 1157 q 969 1148 956 1157 q 983 1114 983 1139 q 957 1068 983 1090 q 899 1046 931 1046 m 699 1074 q 659 1085 676 1074 q 642 1119 642 1096 q 672 1166 642 1146 q 735 1186 703 1186 q 769 1177 756 1186 q 782 1143 782 1168 q 756 1097 782 1119 q 699 1074 731 1074 z "},"":{"ha":858,"x_min":-8,"x_max":844,"o":"m 50 -121 q 2 -78 13 -100 q -8 -39 -8 -56 q 19 63 -8 -1 q 94 210 47 128 q 199 383 140 293 q 115 388 153 386 q 28 389 76 389 l -4 389 q 55 455 14 436 q 151 474 96 474 q 201 471 175 474 q 254 465 226 468 q 393 660 324 567 q 524 826 463 753 q 632 944 586 900 q 719 1001 690 1001 q 760 988 738 1001 q 807 951 782 974 q 772 894 793 940 q 726 776 750 847 q 677 621 701 706 q 633 449 653 536 q 602 283 614 363 q 590 143 590 204 q 601 61 590 89 q 639 33 613 33 q 719 83 672 33 q 824 240 767 132 l 844 218 q 734 32 801 104 q 592 -40 667 -40 q 502 15 529 -40 q 475 165 475 69 q 480 246 475 201 q 494 349 485 290 q 385 364 433 358 q 293 375 336 369 q 165 130 228 257 q 50 -121 103 3 m 507 410 q 552 583 526 496 q 606 749 578 669 q 661 892 635 829 q 566 797 619 861 q 454 643 513 732 q 335 450 396 554 q 422 430 379 440 q 507 410 465 419 m 267 -265 q 224 -252 240 -265 q 207 -214 207 -239 q 238 -162 207 -182 q 300 -143 268 -143 q 341 -156 328 -143 q 354 -192 354 -169 q 326 -243 354 -221 q 267 -265 299 -265 z "},"":{"ha":858,"x_min":-8,"x_max":844,"o":"m 50 -121 q 2 -78 13 -100 q -8 -39 -8 -56 q 19 63 -8 -1 q 94 210 47 128 q 199 383 140 293 q 115 388 153 386 q 28 389 76 389 l -4 389 q 55 455 14 436 q 151 474 96 474 q 201 471 175 474 q 254 465 226 468 q 393 660 324 567 q 524 826 463 753 q 632 944 586 900 q 719 1001 690 1001 q 760 988 738 1001 q 807 951 782 974 q 772 894 793 940 q 726 776 750 847 q 677 621 701 706 q 633 449 653 536 q 602 283 614 363 q 590 143 590 204 q 601 61 590 89 q 639 33 613 33 q 719 83 672 33 q 824 240 767 132 l 844 218 q 734 32 801 104 q 592 -40 667 -40 q 502 15 529 -40 q 475 165 475 69 q 480 246 475 201 q 494 349 485 290 q 385 364 433 358 q 293 375 336 369 q 165 130 228 257 q 50 -121 103 3 m 507 410 q 552 583 526 496 q 606 749 578 669 q 661 892 635 829 q 566 797 619 861 q 454 643 513 732 q 335 450 396 554 q 422 430 379 440 q 507 410 465 419 m 789 1039 q 721 1115 758 1078 q 629 1194 683 1151 q 644 1233 632 1221 q 669 1244 656 1244 q 716 1225 690 1244 q 765 1177 742 1206 q 803 1123 789 1149 q 818 1085 818 1097 q 811 1061 818 1076 q 789 1039 804 1046 z "},"":{"ha":858,"x_min":-8,"x_max":913,"o":"m 50 -121 q 2 -78 13 -100 q -8 -39 -8 -56 q 19 63 -8 -1 q 94 210 47 128 q 199 383 140 293 q 115 388 153 386 q 28 389 76 389 l -4 389 q 55 455 14 436 q 151 474 96 474 q 201 471 175 474 q 254 465 226 468 q 393 660 324 567 q 524 826 463 753 q 632 944 586 900 q 719 1001 690 1001 q 760 988 738 1001 q 807 951 782 974 q 772 894 793 940 q 726 776 750 847 q 677 621 701 706 q 633 449 653 536 q 602 283 614 363 q 590 143 590 204 q 601 61 590 89 q 639 33 613 33 q 719 83 672 33 q 824 240 767 132 l 844 218 q 734 32 801 104 q 592 -40 667 -40 q 502 15 529 -40 q 475 165 475 69 q 480 246 475 201 q 494 349 485 290 q 385 364 433 358 q 293 375 336 369 q 165 130 228 257 q 50 -121 103 3 m 507 410 q 552 583 526 496 q 606 749 578 669 q 661 892 635 829 q 566 797 619 861 q 454 643 513 732 q 335 450 396 554 q 422 430 379 440 q 507 410 465 419 m 813 1047 q 785 1052 797 1047 q 764 1063 772 1057 q 829 1082 801 1068 q 857 1128 857 1096 q 826 1169 857 1157 q 729 1182 796 1182 q 748 1232 729 1211 q 804 1253 767 1253 q 882 1222 851 1253 q 913 1146 913 1190 q 885 1075 913 1103 q 813 1047 857 1047 z "},"":{"ha":858,"x_min":-8,"x_max":961,"o":"m 50 -121 q 2 -78 13 -100 q -8 -39 -8 -56 q 19 63 -8 -1 q 94 210 47 128 q 199 383 140 293 q 115 388 153 386 q 28 389 76 389 l -4 389 q 55 455 14 436 q 151 474 96 474 q 201 471 175 474 q 254 465 226 468 q 393 660 324 567 q 524 826 463 753 q 632 944 586 900 q 719 1001 690 1001 q 760 988 738 1001 q 807 951 782 974 q 772 894 793 940 q 726 776 750 847 q 677 621 701 706 q 633 449 653 536 q 602 283 614 363 q 590 143 590 204 q 601 61 590 89 q 639 33 613 33 q 719 83 672 33 q 824 240 767 132 l 844 218 q 734 32 801 104 q 592 -40 667 -40 q 502 15 529 -40 q 475 165 475 69 q 480 246 475 201 q 494 349 485 290 q 385 364 433 358 q 293 375 336 369 q 165 130 228 257 q 50 -121 103 3 m 507 410 q 552 583 526 496 q 606 749 578 669 q 661 892 635 829 q 566 797 619 861 q 454 643 513 732 q 335 450 396 554 q 422 430 379 440 q 507 410 465 419 m 925 1017 q 891 1097 918 1060 q 804 1133 864 1133 q 724 1109 754 1133 q 679 1060 694 1085 q 665 1082 669 1069 q 661 1104 661 1094 q 706 1184 661 1153 q 810 1215 750 1215 q 899 1194 865 1215 q 947 1142 932 1172 q 961 1088 961 1113 q 952 1044 961 1061 q 925 1017 943 1028 z "},"":{"ha":858,"x_min":-8,"x_max":983,"o":"m 50 -121 q 2 -78 13 -100 q -8 -39 -8 -56 q 19 63 -8 -1 q 94 210 47 128 q 199 383 140 293 q 115 388 153 386 q 28 389 76 389 l -4 389 q 55 455 14 436 q 151 474 96 474 q 201 471 175 474 q 254 465 226 468 q 393 660 324 567 q 524 826 463 753 q 632 944 586 900 q 719 1001 690 1001 q 760 988 738 1001 q 807 951 782 974 q 772 894 793 940 q 726 776 750 847 q 677 621 701 706 q 633 449 653 536 q 602 283 614 363 q 590 143 590 204 q 601 61 590 89 q 639 33 613 33 q 719 83 672 33 q 824 240 767 132 l 844 218 q 734 32 801 104 q 592 -40 667 -40 q 502 15 529 -40 q 475 165 475 69 q 480 246 475 201 q 494 349 485 290 q 385 364 433 358 q 293 375 336 369 q 165 130 228 257 q 50 -121 103 3 m 507 410 q 552 583 526 496 q 606 749 578 669 q 661 892 635 829 q 566 797 619 861 q 454 643 513 732 q 335 450 396 554 q 422 430 379 440 q 507 410 465 419 m 928 1051 q 850 1059 896 1051 q 753 1078 804 1067 q 657 1099 703 1089 q 579 1113 611 1108 q 647 1153 594 1153 q 756 1142 697 1153 q 875 1117 815 1132 q 983 1085 935 1101 q 928 1051 965 1051 z "},"":{"ha":858,"x_min":-8,"x_max":844,"o":"m 50 -121 q 2 -78 13 -100 q -8 -39 -8 -56 q 19 63 -8 -1 q 94 210 47 128 q 199 383 140 293 q 115 388 153 386 q 28 389 76 389 l -4 389 q 55 455 14 436 q 151 474 96 474 q 201 471 175 474 q 254 465 226 468 q 393 660 324 567 q 524 826 463 753 q 632 944 586 900 q 719 1001 690 1001 q 760 988 738 1001 q 807 951 782 974 q 772 894 793 940 q 726 776 750 847 q 677 621 701 706 q 633 449 653 536 q 602 283 614 363 q 590 143 590 204 q 601 61 590 89 q 639 33 613 33 q 719 83 672 33 q 824 240 767 132 l 844 218 q 734 32 801 104 q 592 -40 667 -40 q 502 15 529 -40 q 475 165 475 69 q 480 246 475 201 q 494 349 485 290 q 385 364 433 358 q 293 375 336 369 q 165 130 228 257 q 50 -121 103 3 m 507 410 q 552 583 526 496 q 606 749 578 669 q 661 892 635 829 q 566 797 619 861 q 454 643 513 732 q 335 450 396 554 q 422 430 379 440 q 507 410 465 419 m 688 -214 q 614 -185 642 -214 q 586 -114 586 -157 q 618 -38 586 -68 q 692 -4 650 -8 q 660 -38 672 -18 q 649 -85 649 -58 q 664 -125 649 -107 q 710 -143 679 -143 q 750 -136 732 -143 q 786 -117 768 -129 q 758 -188 785 -162 q 688 -214 731 -214 z "},"":{"ha":858,"x_min":-8,"x_max":965,"o":"m 50 -121 q 2 -78 13 -100 q -8 -39 -8 -56 q 19 63 -8 -1 q 94 210 47 128 q 199 383 140 293 q 115 388 153 386 q 28 389 76 389 l -4 389 q 55 455 14 436 q 151 474 96 474 q 201 471 175 474 q 254 465 226 468 q 393 660 324 567 q 524 826 463 753 q 632 944 586 900 q 719 1001 690 1001 q 760 988 738 1001 q 807 951 782 974 q 772 894 793 940 q 726 776 750 847 q 677 621 701 706 q 633 449 653 536 q 602 283 614 363 q 590 143 590 204 q 601 61 590 89 q 639 33 613 33 q 719 83 672 33 q 824 240 767 132 l 844 218 q 734 32 801 104 q 592 -40 667 -40 q 502 15 529 -40 q 475 165 475 69 q 480 246 475 201 q 494 349 485 290 q 385 364 433 358 q 293 375 336 369 q 165 130 228 257 q 50 -121 103 3 m 507 410 q 552 583 526 496 q 606 749 578 669 q 661 892 635 829 q 566 797 619 861 q 454 643 513 732 q 335 450 396 554 q 422 430 379 440 q 507 410 465 419 m 788 1047 q 708 1070 733 1047 q 682 1125 682 1093 q 705 1194 682 1158 q 766 1253 728 1229 q 854 1278 804 1278 q 940 1255 914 1278 q 965 1200 965 1232 q 941 1132 965 1168 q 877 1072 917 1096 q 788 1047 838 1047 m 800 1089 q 848 1106 825 1089 q 885 1146 871 1122 q 900 1190 900 1169 q 888 1219 900 1207 q 847 1232 876 1232 q 799 1217 822 1232 q 763 1178 776 1201 q 749 1133 749 1156 q 762 1104 750 1119 q 800 1089 774 1089 z "},"":{"ha":858,"x_min":-8,"x_max":1076,"o":"m 50 -121 q 2 -78 13 -100 q -8 -39 -8 -56 q 19 63 -8 -1 q 94 210 47 128 q 199 383 140 293 q 115 388 153 386 q 28 389 76 389 l -4 389 q 55 455 14 436 q 151 474 96 474 q 201 471 175 474 q 254 465 226 468 q 393 660 324 567 q 524 826 463 753 q 632 944 586 900 q 719 1001 690 1001 q 760 988 738 1001 q 807 951 782 974 q 772 894 793 940 q 726 776 750 847 q 677 621 701 706 q 633 449 653 536 q 602 283 614 363 q 590 143 590 204 q 601 61 590 89 q 639 33 613 33 q 719 83 672 33 q 824 240 767 132 l 844 218 q 734 32 801 104 q 592 -40 667 -40 q 502 15 529 -40 q 475 165 475 69 q 480 246 475 201 q 494 349 485 290 q 385 364 433 358 q 293 375 336 369 q 165 130 228 257 q 50 -121 103 3 m 507 410 q 552 583 526 496 q 606 749 578 669 q 661 892 635 829 q 566 797 619 861 q 454 643 513 732 q 335 450 396 554 q 422 430 379 440 q 507 410 465 419 m 788 1047 q 708 1070 733 1047 q 682 1125 682 1093 q 705 1194 682 1158 q 766 1253 728 1229 q 854 1278 804 1278 q 940 1255 914 1278 q 965 1200 965 1232 q 941 1132 965 1168 q 877 1072 917 1096 q 788 1047 838 1047 m 800 1089 q 848 1106 825 1089 q 885 1146 871 1122 q 900 1190 900 1169 q 888 1219 900 1207 q 847 1232 876 1232 q 799 1217 822 1232 q 763 1178 776 1201 q 749 1133 749 1156 q 762 1104 750 1119 q 800 1089 774 1089 m 925 1317 q 903 1338 910 1324 q 896 1360 896 1353 q 910 1397 896 1371 q 946 1452 924 1424 q 993 1501 968 1481 q 1039 1522 1018 1522 q 1064 1512 1053 1522 q 1078 1475 1075 1501 q 991 1392 1028 1429 q 925 1317 954 1356 z "},"":{"ha":858,"x_min":-8,"x_max":1021,"o":"m 50 -121 q 2 -78 13 -100 q -8 -39 -8 -56 q 19 63 -8 -1 q 94 210 47 128 q 199 383 140 293 q 115 388 153 386 q 28 389 76 389 l -4 389 q 55 455 14 436 q 151 474 96 474 q 201 471 175 474 q 254 465 226 468 q 393 660 324 567 q 524 826 463 753 q 632 944 586 900 q 719 1001 690 1001 q 760 988 738 1001 q 807 951 782 974 q 772 894 793 940 q 726 776 750 847 q 677 621 701 706 q 633 449 653 536 q 602 283 614 363 q 590 143 590 204 q 601 61 590 89 q 639 33 613 33 q 719 83 672 33 q 824 240 767 132 l 844 218 q 734 32 801 104 q 592 -40 667 -40 q 502 15 529 -40 q 475 165 475 69 q 480 246 475 201 q 494 349 485 290 q 385 364 433 358 q 293 375 336 369 q 165 130 228 257 q 50 -121 103 3 m 507 410 q 552 583 526 496 q 606 749 578 669 q 661 892 635 829 q 566 797 619 861 q 454 643 513 732 q 335 450 396 554 q 422 430 379 440 q 507 410 465 419 m 904 1051 q 824 1068 865 1051 q 742 1101 783 1085 q 663 1117 701 1117 q 621 1113 642 1117 q 578 1099 600 1110 q 630 1158 599 1139 q 701 1176 661 1176 q 781 1160 740 1176 q 865 1126 822 1143 q 950 1110 907 1110 q 1019 1122 985 1110 q 971 1069 999 1086 q 904 1051 943 1051 z "},"":{"ha":1076,"x_min":-8,"x_max":1171,"o":"m 49 -121 q 1 -78 11 -100 q -8 -40 -8 -56 q 19 63 -8 -3 q 92 210 46 128 q 197 383 139 293 q 114 388 149 386 q 56 389 79 389 l -4 389 q 55 455 14 436 q 151 474 96 474 q 200 471 175 474 q 253 465 225 468 q 397 667 325 571 q 534 840 469 764 q 647 958 599 915 q 719 1001 694 1001 q 842 998 776 1001 q 971 990 907 994 q 1087 979 1035 985 q 1171 969 1139 974 q 1124 931 1161 944 q 1033 913 1086 917 q 919 908 979 908 q 845 909 881 908 q 775 911 810 910 q 722 776 753 864 q 664 583 692 689 q 837 569 763 582 q 963 551 911 557 q 915 512 953 525 q 824 494 878 499 q 711 489 771 489 q 672 489 688 489 q 640 490 656 489 q 603 298 617 392 q 589 136 589 204 q 590 109 589 121 q 593 86 592 97 q 694 74 639 79 q 806 65 750 69 q 909 56 861 61 q 986 44 957 51 q 940 5 976 18 q 849 -12 903 -8 q 736 -17 796 -17 q 620 -16 676 -17 q 521 -11 564 -15 q 483 60 494 13 q 472 165 472 108 q 478 253 472 207 q 493 349 485 299 q 384 364 432 358 q 293 375 336 369 q 164 130 226 257 q 49 -121 101 3 m 506 410 q 551 583 525 496 q 605 749 576 669 q 660 892 633 829 q 565 797 618 861 q 453 643 513 732 q 335 450 394 554 q 424 429 379 440 q 506 410 469 418 z "},"":{"ha":1076,"x_min":-8,"x_max":1171,"o":"m 49 -121 q 1 -78 11 -100 q -8 -40 -8 -56 q 19 63 -8 -3 q 92 210 46 128 q 197 383 139 293 q 114 388 149 386 q 56 389 79 389 l -4 389 q 55 455 14 436 q 151 474 96 474 q 200 471 175 474 q 253 465 225 468 q 397 667 325 571 q 534 840 469 764 q 647 958 599 915 q 719 1001 694 1001 q 842 998 776 1001 q 971 990 907 994 q 1087 979 1035 985 q 1171 969 1139 974 q 1124 931 1161 944 q 1033 913 1086 917 q 919 908 979 908 q 845 909 881 908 q 775 911 810 910 q 722 776 753 864 q 664 583 692 689 q 837 569 763 582 q 963 551 911 557 q 915 512 953 525 q 824 494 878 499 q 711 489 771 489 q 672 489 688 489 q 640 490 656 489 q 603 298 617 392 q 589 136 589 204 q 590 109 589 121 q 593 86 592 97 q 694 74 639 79 q 806 65 750 69 q 909 56 861 61 q 986 44 957 51 q 940 5 976 18 q 849 -12 903 -8 q 736 -17 796 -17 q 620 -16 676 -17 q 521 -11 564 -15 q 483 60 494 13 q 472 165 472 108 q 478 253 472 207 q 493 349 485 299 q 384 364 432 358 q 293 375 336 369 q 164 130 226 257 q 49 -121 101 3 m 506 410 q 551 583 525 496 q 605 749 576 669 q 660 892 633 829 q 565 797 618 861 q 453 643 513 732 q 335 450 394 554 q 424 429 379 440 q 506 410 469 418 m 850 1039 q 828 1060 835 1046 q 821 1082 821 1075 q 835 1119 821 1093 q 871 1174 849 1146 q 918 1224 893 1203 q 964 1244 943 1244 q 989 1234 978 1244 q 1003 1197 1000 1224 q 916 1115 953 1151 q 850 1039 879 1078 z "},"":{"ha":775,"x_min":40,"x_max":868,"o":"m 332 -121 q 165 -71 229 -121 q 70 58 100 -21 q 40 221 40 136 q 74 441 40 331 q 165 652 107 551 q 298 831 224 753 q 456 953 372 908 q 624 999 540 999 q 723 971 683 999 q 763 875 763 943 q 748 782 763 833 q 709 683 733 731 q 655 606 685 636 q 594 575 625 575 q 568 584 582 575 q 543 614 554 593 q 590 672 564 638 q 639 746 615 707 q 678 822 663 785 q 693 888 693 858 q 678 928 693 913 q 628 944 664 944 q 503 897 568 944 q 379 772 439 850 q 271 597 319 693 q 194 398 222 500 q 167 204 167 296 q 186 76 167 138 q 250 -23 206 15 q 365 -61 294 -61 q 514 -19 440 -61 q 649 90 588 22 q 749 238 711 158 l 779 217 q 664 48 731 125 q 513 -75 597 -29 q 332 -121 429 -121 m 715 1038 q 693 1059 700 1044 q 686 1081 686 1074 q 700 1118 686 1092 q 736 1173 714 1144 q 783 1222 758 1201 q 829 1243 808 1243 q 854 1233 843 1243 q 868 1196 865 1222 q 781 1113 818 1150 q 715 1038 744 1076 z "},"":{"ha":775,"x_min":40,"x_max":857,"o":"m 332 -121 q 165 -71 229 -121 q 70 58 100 -21 q 40 221 40 136 q 74 441 40 331 q 165 652 107 551 q 298 831 224 753 q 456 953 372 908 q 624 999 540 999 q 723 971 683 999 q 763 875 763 943 q 748 782 763 833 q 709 683 733 731 q 655 606 685 636 q 594 575 625 575 q 568 584 582 575 q 543 614 554 593 q 590 672 564 638 q 639 746 615 707 q 678 822 663 785 q 693 888 693 858 q 678 928 693 913 q 628 944 664 944 q 503 897 568 944 q 379 772 439 850 q 271 597 319 693 q 194 398 222 500 q 167 204 167 296 q 186 76 167 138 q 250 -23 206 15 q 365 -61 294 -61 q 514 -19 440 -61 q 649 90 588 22 q 749 238 711 158 l 779 217 q 664 48 731 125 q 513 -75 597 -29 q 332 -121 429 -121 m 694 1046 q 653 1062 676 1046 q 608 1103 629 1078 q 574 1157 588 1129 q 560 1208 560 1185 q 567 1236 560 1224 q 590 1256 574 1249 q 636 1185 611 1215 q 696 1122 661 1154 q 773 1159 738 1139 q 838 1204 808 1179 q 853 1189 847 1199 q 858 1169 858 1179 q 839 1127 858 1149 q 792 1087 819 1106 q 737 1057 764 1068 q 694 1046 710 1046 z "},"":{"ha":775,"x_min":40,"x_max":779,"o":"m 332 -121 q 165 -71 229 -121 q 70 58 100 -21 q 40 221 40 136 q 74 441 40 331 q 165 652 107 551 q 298 831 224 753 q 456 953 372 908 q 624 999 540 999 q 723 971 683 999 q 763 875 763 943 q 748 782 763 833 q 709 683 733 731 q 655 606 685 636 q 594 575 625 575 q 568 584 582 575 q 543 614 554 593 q 590 672 564 638 q 639 746 615 707 q 678 822 663 785 q 693 888 693 858 q 678 928 693 913 q 628 944 664 944 q 503 897 568 944 q 379 772 439 850 q 271 597 319 693 q 194 398 222 500 q 167 204 167 296 q 186 76 167 138 q 250 -23 206 15 q 365 -61 294 -61 q 514 -19 440 -61 q 649 90 588 22 q 749 238 711 158 l 779 217 q 664 48 731 125 q 513 -75 597 -29 q 332 -121 429 -121 m 524 -314 q 459 -296 483 -314 q 435 -258 435 -278 q 444 -233 435 -247 q 475 -204 454 -218 q 500 -252 485 -237 q 531 -267 515 -267 q 581 -247 556 -267 q 626 -199 607 -226 q 644 -149 644 -171 q 639 -130 644 -137 q 622 -122 633 -122 q 582 -135 604 -122 q 540 -162 560 -149 q 510 -176 521 -176 q 490 -165 497 -176 q 483 -144 483 -153 q 496 -124 483 -142 q 526 -82 508 -107 q 563 -34 544 -57 q 596 0 582 -11 l 617 0 l 549 -107 q 583 -92 561 -100 q 629 -85 604 -85 q 681 -101 661 -85 q 700 -150 700 -118 q 676 -226 700 -189 q 611 -289 651 -264 q 524 -314 571 -314 z "},"":{"ha":775,"x_min":40,"x_max":871,"o":"m 332 -121 q 165 -71 229 -121 q 70 58 100 -21 q 40 221 40 136 q 74 441 40 331 q 165 652 107 551 q 298 831 224 753 q 456 953 372 908 q 624 999 540 999 q 723 971 683 999 q 763 875 763 943 q 748 782 763 833 q 709 683 733 731 q 655 606 685 636 q 594 575 625 575 q 568 584 582 575 q 543 614 554 593 q 590 672 564 638 q 639 746 615 707 q 678 822 663 785 q 693 888 693 858 q 678 928 693 913 q 628 944 664 944 q 503 897 568 944 q 379 772 439 850 q 271 597 319 693 q 194 398 222 500 q 167 204 167 296 q 186 76 167 138 q 250 -23 206 15 q 365 -61 294 -61 q 514 -19 440 -61 q 649 90 588 22 q 749 238 711 158 l 779 217 q 664 48 731 125 q 513 -75 597 -29 q 332 -121 429 -121 m 840 1032 q 795 1097 819 1071 q 740 1151 771 1124 q 666 1119 700 1138 q 597 1076 632 1101 q 585 1094 589 1083 q 581 1111 581 1106 q 599 1153 581 1132 q 646 1192 618 1174 q 700 1221 674 1210 q 742 1232 726 1232 q 781 1217 758 1232 q 824 1179 803 1203 q 858 1130 844 1156 q 871 1082 871 1104 q 865 1054 871 1068 q 840 1032 858 1040 z "},"":{"ha":775,"x_min":40,"x_max":793,"o":"m 332 -121 q 165 -71 229 -121 q 70 58 100 -21 q 40 221 40 136 q 74 441 40 331 q 165 652 107 551 q 298 831 224 753 q 456 953 372 908 q 624 999 540 999 q 723 971 683 999 q 763 875 763 943 q 748 782 763 833 q 709 683 733 731 q 655 606 685 636 q 594 575 625 575 q 568 584 582 575 q 543 614 554 593 q 590 672 564 638 q 639 746 615 707 q 678 822 663 785 q 693 888 693 858 q 678 928 693 913 q 628 944 664 944 q 503 897 568 944 q 379 772 439 850 q 271 597 319 693 q 194 398 222 500 q 167 204 167 296 q 186 76 167 138 q 250 -23 206 15 q 365 -61 294 -61 q 514 -19 440 -61 q 649 90 588 22 q 749 238 711 158 l 779 217 q 664 48 731 125 q 513 -75 597 -29 q 332 -121 429 -121 m 707 1065 q 664 1078 681 1065 q 647 1117 647 1092 q 678 1168 647 1149 q 740 1188 708 1188 q 781 1174 768 1188 q 794 1139 794 1161 q 767 1088 794 1110 q 707 1065 739 1065 z "},"":{"ha":1838,"x_min":90,"x_max":1885,"o":"m 251 -121 q 163 -108 206 -121 q 90 -54 121 -96 q 116 59 99 -10 q 157 209 133 128 q 206 374 181 290 q 256 532 232 457 q 300 663 281 607 q 329 746 319 719 q 343 779 333 757 q 367 824 353 801 q 401 863 382 847 q 444 879 421 879 q 492 863 467 879 q 405 644 449 764 q 322 399 361 525 q 249 152 282 272 q 194 -67 215 32 q 226 -73 208 -71 q 261 -75 244 -75 q 433 -32 350 -75 q 585 83 515 11 q 706 247 654 156 q 787 438 758 339 q 815 628 815 536 q 778 812 815 740 q 675 917 740 883 q 524 950 610 950 q 361 916 433 950 q 248 824 289 882 q 207 693 207 767 q 210 661 207 676 q 217 631 213 646 q 139 656 163 631 q 115 717 115 681 q 151 815 115 765 q 248 906 186 864 q 392 974 310 949 q 568 1000 474 1000 q 780 949 700 1000 q 896 810 860 897 q 932 614 932 722 q 894 385 932 494 q 790 183 857 275 q 635 23 722 92 q 450 -83 549 -46 q 251 -121 351 -121 m 1576 -121 q 1460 -101 1522 -121 q 1335 -52 1397 -81 q 1218 1 1274 -24 q 1125 -55 1171 -35 q 1036 -75 1079 -75 q 961 -57 992 -75 q 914 -11 931 -39 q 897 43 897 17 q 923 96 897 72 q 1011 119 949 119 q 1102 110 1053 119 q 1206 85 1151 100 q 1339 245 1271 151 q 1469 439 1407 339 q 1385 434 1425 438 q 1285 422 1344 431 l 1242 417 q 1274 485 1244 461 q 1351 518 1303 508 q 1456 528 1400 528 q 1490 527 1475 528 q 1519 525 1504 526 q 1614 697 1572 615 q 1678 838 1656 779 q 1626 855 1651 846 q 1567 875 1600 864 q 1403 930 1471 911 q 1288 949 1336 949 q 1209 931 1244 949 q 1153 869 1174 913 q 1133 744 1133 825 q 1135 739 1133 747 q 1139 719 1136 731 q 1143 701 1142 708 q 1072 737 1094 710 q 1050 808 1050 764 q 1123 951 1050 901 q 1329 1000 1196 1000 q 1470 987 1404 1000 q 1596 956 1536 974 q 1712 926 1656 939 q 1825 913 1768 913 q 1856 913 1839 913 q 1886 917 1874 914 q 1839 876 1858 890 q 1804 856 1819 863 q 1730 698 1775 786 q 1629 515 1685 610 q 1713 508 1678 511 q 1783 504 1747 504 q 1742 464 1764 476 q 1685 447 1721 451 q 1586 442 1650 443 q 1442 235 1518 335 q 1289 61 1365 135 q 1469 11 1379 35 q 1624 -12 1558 -12 q 1684 -6 1657 -12 q 1740 15 1711 1 q 1674 -90 1713 -60 q 1576 -121 1635 -121 m 1026 -32 q 1082 -15 1053 -32 q 1146 31 1111 3 q 1063 61 1103 49 q 994 74 1024 74 q 952 63 964 74 q 940 38 940 53 q 965 -8 940 15 q 1026 -32 989 -32 m 1554 1047 q 1513 1063 1536 1047 q 1468 1105 1489 1079 q 1433 1158 1447 1131 q 1419 1210 1419 1186 q 1426 1238 1419 1225 q 1450 1257 1433 1250 q 1496 1186 1471 1217 q 1556 1124 1521 1156 q 1633 1160 1597 1140 q 1697 1206 1668 1181 q 1713 1190 1707 1200 q 1718 1171 1718 1181 q 1699 1128 1718 1150 q 1651 1088 1679 1107 q 1597 1058 1624 1069 q 1554 1047 1569 1047 z "},"":{"ha":939,"x_min":40,"x_max":933,"o":"m 253 -121 q 164 -108 206 -121 q 92 -54 122 -96 q 143 160 111 42 q 210 389 175 278 q 130 383 172 388 q 40 372 88 379 q 110 431 60 414 q 231 453 161 449 q 289 631 261 550 q 329 746 317 713 q 343 779 333 757 q 368 824 353 801 q 403 863 383 847 q 444 879 422 879 q 492 863 467 879 q 414 669 453 774 q 340 456 375 564 q 481 450 413 456 q 585 442 549 444 q 495 400 539 410 q 419 390 451 390 l 319 390 q 249 149 281 267 q 194 -67 217 32 q 224 -71 211 -69 q 250 -72 236 -72 q 422 -33 339 -72 q 577 76 506 7 q 703 235 649 146 q 787 424 757 324 q 817 625 817 525 q 735 871 817 792 q 524 950 654 950 q 362 916 433 950 q 249 824 290 882 q 207 693 207 765 q 210 661 207 676 q 218 631 213 646 q 140 656 163 631 q 117 717 117 681 q 151 815 117 765 q 249 906 186 864 q 392 974 311 949 q 567 1000 474 1000 q 781 947 700 1000 q 897 806 861 894 q 933 610 933 717 q 895 380 933 489 q 790 180 857 271 q 637 22 724 89 q 451 -83 550 -46 q 253 -121 353 -121 z "},"":{"ha":938,"x_min":90,"x_max":932,"o":"m 251 -121 q 163 -108 206 -121 q 90 -54 121 -96 q 116 59 99 -10 q 157 209 133 128 q 206 374 181 290 q 256 532 232 457 q 300 663 281 607 q 329 746 319 719 q 343 779 333 757 q 367 824 353 801 q 401 863 382 847 q 444 879 421 879 q 492 863 467 879 q 405 644 449 764 q 322 399 361 525 q 249 152 282 272 q 194 -67 215 32 q 226 -73 208 -71 q 261 -75 244 -75 q 433 -32 350 -75 q 585 83 515 11 q 706 247 654 156 q 787 438 758 339 q 815 628 815 536 q 778 812 815 740 q 675 917 740 883 q 524 950 610 950 q 361 916 433 950 q 248 824 289 882 q 207 693 207 767 q 210 661 207 676 q 217 631 213 646 q 139 656 163 631 q 115 717 115 681 q 151 815 115 765 q 248 906 186 864 q 392 974 310 949 q 568 1000 474 1000 q 780 949 700 1000 q 896 810 860 897 q 932 614 932 722 q 894 385 932 494 q 790 183 857 275 q 635 23 722 92 q 450 -83 549 -46 q 251 -121 351 -121 m 708 1047 q 667 1063 690 1047 q 622 1105 643 1079 q 588 1158 601 1131 q 574 1210 574 1186 q 581 1238 574 1225 q 604 1257 588 1250 q 650 1186 625 1217 q 710 1124 675 1156 q 787 1160 751 1140 q 851 1206 822 1181 q 867 1190 861 1200 q 872 1171 872 1181 q 853 1128 872 1150 q 806 1088 833 1107 q 751 1058 778 1069 q 708 1047 724 1047 z "},"":{"ha":939,"x_min":40,"x_max":933,"o":"m 253 -121 q 164 -108 206 -121 q 92 -54 122 -96 q 143 160 111 42 q 210 389 175 278 q 130 383 172 388 q 40 372 88 379 q 110 431 60 414 q 231 453 161 449 q 289 631 261 550 q 329 746 317 713 q 343 779 333 757 q 368 824 353 801 q 403 863 383 847 q 444 879 422 879 q 492 863 467 879 q 414 669 453 774 q 340 456 375 564 q 481 450 413 456 q 585 442 549 444 q 495 400 539 410 q 419 390 451 390 l 319 390 q 249 149 281 267 q 194 -67 217 32 q 224 -71 211 -69 q 250 -72 236 -72 q 422 -33 339 -72 q 577 76 506 7 q 703 235 649 146 q 787 424 757 324 q 817 625 817 525 q 735 871 817 792 q 524 950 654 950 q 362 916 433 950 q 249 824 290 882 q 207 693 207 765 q 210 661 207 676 q 218 631 213 646 q 140 656 163 631 q 117 717 117 681 q 151 815 117 765 q 249 906 186 864 q 392 974 311 949 q 567 1000 474 1000 q 781 947 700 1000 q 897 806 861 894 q 933 610 933 717 q 895 380 933 489 q 790 180 857 271 q 637 22 724 89 q 451 -83 550 -46 q 253 -121 353 -121 z "},"":{"ha":1364,"x_min":90,"x_max":1411,"o":"m 251 -121 q 163 -108 206 -121 q 90 -54 121 -96 q 116 59 99 -10 q 157 209 133 128 q 206 374 181 290 q 256 532 232 457 q 300 663 281 607 q 329 746 319 719 q 343 779 333 757 q 367 824 353 801 q 401 863 382 847 q 444 879 421 879 q 492 863 467 879 q 405 644 449 764 q 322 399 361 525 q 249 152 282 272 q 194 -67 215 32 q 226 -73 208 -71 q 261 -75 244 -75 q 433 -32 350 -75 q 585 83 515 11 q 706 247 654 156 q 787 438 758 339 q 815 628 815 536 q 778 812 815 740 q 675 917 740 883 q 524 950 610 950 q 361 916 433 950 q 248 824 289 882 q 207 693 207 767 q 210 661 207 676 q 217 631 213 646 q 139 656 163 631 q 115 717 115 681 q 151 815 115 765 q 248 906 186 864 q 392 974 310 949 q 568 1000 474 1000 q 780 949 700 1000 q 896 810 860 897 q 932 614 932 722 q 894 385 932 494 q 790 183 857 275 q 635 23 722 92 q 450 -83 549 -46 q 251 -121 351 -121 m 915 -389 q 841 -371 868 -389 q 814 -311 814 -353 q 844 -228 814 -265 q 924 -156 874 -190 q 1036 -87 975 -122 q 1158 -11 1097 -53 q 1134 76 1158 35 q 1049 161 1110 117 q 1138 210 1101 176 q 1192 283 1174 243 q 1211 360 1211 324 q 1199 407 1211 386 q 1156 428 1186 428 q 1076 392 1113 428 q 1008 299 1040 356 q 946 176 976 242 l 922 196 q 986 344 953 278 q 1065 451 1019 411 q 1176 490 1111 490 q 1267 459 1229 490 q 1306 369 1306 428 q 1283 282 1306 324 q 1225 207 1261 240 q 1146 151 1189 174 q 1203 96 1179 126 q 1239 33 1226 65 q 1331 121 1290 74 q 1393 229 1371 168 l 1411 208 q 1349 94 1390 147 q 1251 1 1307 42 q 1256 -19 1254 -8 q 1257 -44 1257 -31 q 1229 -167 1257 -107 q 1153 -278 1201 -228 q 1043 -358 1104 -328 q 915 -389 982 -389 m 899 -340 q 963 -321 924 -340 q 1044 -265 1003 -301 q 1117 -177 1086 -229 q 1157 -58 1147 -125 q 1051 -123 1104 -93 q 954 -181 997 -153 q 885 -239 911 -210 q 860 -300 860 -268 q 871 -331 860 -321 q 899 -340 882 -340 m 1247 590 q 1206 606 1229 590 q 1161 648 1182 622 q 1126 701 1140 674 q 1113 753 1113 729 q 1119 781 1113 768 q 1143 800 1126 793 q 1189 729 1164 760 q 1249 667 1214 699 q 1326 703 1290 683 q 1390 749 1361 724 q 1406 733 1400 743 q 1411 714 1411 724 q 1392 672 1411 693 q 1344 631 1372 650 q 1290 601 1317 613 q 1247 590 1263 590 z "},"":{"ha":724,"x_min":-11,"x_max":772,"o":"m 276 -121 q 124 -85 189 -121 q 24 8 60 -50 q -11 138 -11 67 q 16 260 -11 200 q 92 369 43 319 q 205 453 140 419 q 346 496 269 486 q 269 596 294 540 q 243 710 243 651 q 281 849 243 783 q 385 957 318 915 q 540 999 453 999 q 666 958 622 999 q 710 842 710 918 q 691 740 710 789 q 645 660 672 690 q 593 629 618 629 q 559 645 575 629 q 532 682 543 661 q 617 772 582 725 q 653 871 653 819 q 626 935 653 913 q 553 957 599 957 q 447 919 490 957 q 381 820 403 881 q 360 693 360 760 q 379 576 360 636 q 454 474 399 517 q 285 404 357 458 q 173 278 213 350 q 133 135 133 206 q 151 45 133 92 q 208 -33 168 -1 q 314 -64 247 -64 q 463 -22 389 -64 q 597 90 536 21 q 696 238 658 158 l 728 217 q 608 44 676 121 q 457 -76 540 -32 q 276 -121 374 -121 m 619 1039 q 597 1060 604 1046 q 590 1082 590 1075 q 604 1119 590 1093 q 640 1174 618 1146 q 688 1224 663 1203 q 733 1244 713 1244 q 758 1234 747 1244 q 772 1197 769 1224 q 685 1115 722 1151 q 619 1039 649 1078 z "},"":{"ha":724,"x_min":-11,"x_max":806,"o":"m 276 -121 q 124 -85 189 -121 q 24 8 60 -50 q -11 138 -11 67 q 16 260 -11 200 q 92 369 43 319 q 205 453 140 419 q 346 496 269 486 q 269 596 294 540 q 243 710 243 651 q 281 849 243 783 q 385 957 318 915 q 540 999 453 999 q 666 958 622 999 q 710 842 710 918 q 691 740 710 789 q 645 660 672 690 q 593 629 618 629 q 559 645 575 629 q 532 682 543 661 q 617 772 582 725 q 653 871 653 819 q 626 935 653 913 q 553 957 599 957 q 447 919 490 957 q 381 820 403 881 q 360 693 360 760 q 379 576 360 636 q 454 474 399 517 q 285 404 357 458 q 173 278 213 350 q 133 135 133 206 q 151 45 133 92 q 208 -33 168 -1 q 314 -64 247 -64 q 463 -22 389 -64 q 597 90 536 21 q 696 238 658 158 l 728 217 q 608 44 676 121 q 457 -76 540 -32 q 276 -121 374 -121 m 657 1053 q 568 1075 601 1053 q 520 1127 535 1097 q 506 1183 506 1157 q 515 1225 506 1208 q 543 1251 525 1242 q 576 1172 549 1208 q 660 1135 603 1135 q 742 1159 711 1135 q 789 1208 772 1183 q 802 1186 799 1199 q 806 1164 806 1174 q 760 1085 806 1117 q 657 1053 715 1053 z "},"":{"ha":724,"x_min":-11,"x_max":761,"o":"m 276 -121 q 124 -85 189 -121 q 24 8 60 -50 q -11 138 -11 67 q 16 260 -11 200 q 92 369 43 319 q 205 453 140 419 q 346 496 269 486 q 269 596 294 540 q 243 710 243 651 q 281 849 243 783 q 385 957 318 915 q 540 999 453 999 q 666 958 622 999 q 710 842 710 918 q 691 740 710 789 q 645 660 672 690 q 593 629 618 629 q 559 645 575 629 q 532 682 543 661 q 617 772 582 725 q 653 871 653 819 q 626 935 653 913 q 553 957 599 957 q 447 919 490 957 q 381 820 403 881 q 360 693 360 760 q 379 576 360 636 q 454 474 399 517 q 285 404 357 458 q 173 278 213 350 q 133 135 133 206 q 151 45 133 92 q 208 -33 168 -1 q 314 -64 247 -64 q 463 -22 389 -64 q 597 90 536 21 q 696 238 658 158 l 728 217 q 608 44 676 121 q 457 -76 540 -32 q 276 -121 374 -121 m 599 1047 q 557 1063 581 1047 q 513 1105 533 1079 q 478 1158 492 1131 q 464 1210 464 1186 q 471 1238 464 1225 q 494 1257 478 1250 q 540 1186 515 1217 q 600 1124 565 1156 q 677 1160 642 1140 q 742 1206 713 1181 q 757 1190 751 1200 q 763 1171 763 1181 q 743 1128 763 1150 q 696 1088 724 1107 q 641 1058 668 1069 q 599 1047 614 1047 z "},"":{"ha":724,"x_min":-11,"x_max":775,"o":"m 276 -121 q 124 -85 189 -121 q 24 8 60 -50 q -11 138 -11 67 q 16 260 -11 200 q 92 369 43 319 q 205 453 140 419 q 346 496 269 486 q 269 596 294 540 q 243 710 243 651 q 281 849 243 783 q 385 957 318 915 q 540 999 453 999 q 666 958 622 999 q 710 842 710 918 q 691 740 710 789 q 645 660 672 690 q 593 629 618 629 q 559 645 575 629 q 532 682 543 661 q 617 772 582 725 q 653 871 653 819 q 626 935 653 913 q 553 957 599 957 q 447 919 490 957 q 381 820 403 881 q 360 693 360 760 q 379 576 360 636 q 454 474 399 517 q 285 404 357 458 q 173 278 213 350 q 133 135 133 206 q 151 45 133 92 q 208 -33 168 -1 q 314 -64 247 -64 q 463 -22 389 -64 q 597 90 536 21 q 696 238 658 158 l 728 217 q 608 44 676 121 q 457 -76 540 -32 q 276 -121 374 -121 m 744 1033 q 699 1099 724 1072 q 644 1153 675 1125 q 570 1121 604 1139 q 501 1078 536 1103 q 489 1096 493 1085 q 485 1113 485 1107 q 503 1154 485 1133 q 550 1193 522 1175 q 604 1222 578 1211 q 646 1233 631 1233 q 685 1219 663 1233 q 728 1181 707 1204 q 762 1131 749 1157 q 775 1083 775 1106 q 769 1056 775 1069 q 744 1033 763 1042 z "},"":{"ha":724,"x_min":-11,"x_max":939,"o":"m 276 -121 q 124 -85 189 -121 q 24 8 60 -50 q -11 138 -11 67 q 16 260 -11 200 q 92 369 43 319 q 205 453 140 419 q 346 496 269 486 q 269 596 294 540 q 243 710 243 651 q 281 849 243 783 q 385 957 318 915 q 540 999 453 999 q 666 958 622 999 q 710 842 710 918 q 691 740 710 789 q 645 660 672 690 q 593 629 618 629 q 559 645 575 629 q 532 682 543 661 q 617 772 582 725 q 653 871 653 819 q 626 935 653 913 q 553 957 599 957 q 447 919 490 957 q 381 820 403 881 q 360 693 360 760 q 379 576 360 636 q 454 474 399 517 q 285 404 357 458 q 173 278 213 350 q 133 135 133 206 q 151 45 133 92 q 208 -33 168 -1 q 314 -64 247 -64 q 463 -22 389 -64 q 597 90 536 21 q 696 238 658 158 l 728 217 q 608 44 676 121 q 457 -76 540 -32 q 276 -121 374 -121 m 806 1168 q 781 1187 789 1175 q 774 1213 774 1199 q 786 1248 774 1225 q 818 1294 799 1271 q 860 1334 838 1318 q 901 1350 882 1350 q 926 1340 915 1350 q 939 1303 936 1331 q 895 1264 919 1288 q 847 1215 871 1240 q 806 1168 824 1189 m 744 1033 q 699 1099 724 1072 q 644 1153 675 1125 q 570 1121 604 1139 q 501 1078 536 1103 q 489 1096 493 1085 q 485 1113 485 1107 q 503 1154 485 1133 q 550 1193 522 1175 q 604 1222 578 1211 q 646 1233 631 1233 q 685 1219 663 1233 q 728 1181 707 1204 q 762 1131 749 1157 q 775 1083 775 1106 q 769 1056 775 1069 q 744 1033 763 1042 z "},"":{"ha":724,"x_min":-11,"x_max":775,"o":"m 276 -121 q 124 -85 189 -121 q 24 8 60 -50 q -11 138 -11 67 q 16 260 -11 200 q 92 369 43 319 q 205 453 140 419 q 346 496 269 486 q 269 596 294 540 q 243 710 243 651 q 281 849 243 783 q 385 957 318 915 q 540 999 453 999 q 666 958 622 999 q 710 842 710 918 q 691 740 710 789 q 645 660 672 690 q 593 629 618 629 q 559 645 575 629 q 532 682 543 661 q 617 772 582 725 q 653 871 653 819 q 626 935 653 913 q 553 957 599 957 q 447 919 490 957 q 381 820 403 881 q 360 693 360 760 q 379 576 360 636 q 454 474 399 517 q 285 404 357 458 q 173 278 213 350 q 133 135 133 206 q 151 45 133 92 q 208 -33 168 -1 q 314 -64 247 -64 q 463 -22 389 -64 q 597 90 536 21 q 696 238 658 158 l 728 217 q 608 44 676 121 q 457 -76 540 -32 q 276 -121 374 -121 m 744 1033 q 699 1099 724 1072 q 644 1153 675 1125 q 570 1121 604 1139 q 501 1078 536 1103 q 489 1096 493 1085 q 485 1113 485 1107 q 503 1154 485 1133 q 550 1193 522 1175 q 604 1222 578 1211 q 646 1233 631 1233 q 685 1219 663 1233 q 728 1181 707 1204 q 762 1131 749 1157 q 775 1083 775 1106 q 769 1056 775 1069 q 744 1033 763 1042 m 222 -353 q 179 -340 196 -353 q 163 -301 163 -326 q 193 -250 163 -269 q 256 -231 224 -231 q 297 -244 283 -231 q 310 -279 310 -257 q 282 -331 310 -308 q 222 -353 254 -353 z "},"":{"ha":724,"x_min":-11,"x_max":851,"o":"m 276 -121 q 124 -85 189 -121 q 24 8 60 -50 q -11 138 -11 67 q 16 260 -11 200 q 92 369 43 319 q 205 453 140 419 q 346 496 269 486 q 269 596 294 540 q 243 710 243 651 q 281 849 243 783 q 385 957 318 915 q 540 999 453 999 q 666 958 622 999 q 710 842 710 918 q 691 740 710 789 q 645 660 672 690 q 593 629 618 629 q 559 645 575 629 q 532 682 543 661 q 617 772 582 725 q 653 871 653 819 q 626 935 653 913 q 553 957 599 957 q 447 919 490 957 q 381 820 403 881 q 360 693 360 760 q 379 576 360 636 q 454 474 399 517 q 285 404 357 458 q 173 278 213 350 q 133 135 133 206 q 151 45 133 92 q 208 -33 168 -1 q 314 -64 247 -64 q 463 -22 389 -64 q 597 90 536 21 q 696 238 658 158 l 728 217 q 608 44 676 121 q 457 -76 540 -32 q 276 -121 374 -121 m 821 1164 q 788 1215 808 1188 q 745 1269 767 1243 q 706 1314 724 1296 q 720 1345 710 1338 q 744 1353 731 1353 q 782 1335 763 1353 q 817 1293 801 1318 q 842 1243 832 1268 q 851 1206 851 1218 q 821 1164 851 1175 m 744 1033 q 699 1099 724 1072 q 644 1153 675 1125 q 570 1121 604 1139 q 501 1078 536 1103 q 489 1096 493 1085 q 485 1113 485 1107 q 503 1154 485 1133 q 550 1193 522 1175 q 604 1222 578 1211 q 646 1233 631 1233 q 685 1219 663 1233 q 728 1181 707 1204 q 762 1131 749 1157 q 775 1083 775 1106 q 769 1056 775 1069 q 744 1033 763 1042 z "},"":{"ha":724,"x_min":-11,"x_max":918,"o":"m 276 -121 q 124 -85 189 -121 q 24 8 60 -50 q -11 138 -11 67 q 16 260 -11 200 q 92 369 43 319 q 205 453 140 419 q 346 496 269 486 q 269 596 294 540 q 243 710 243 651 q 281 849 243 783 q 385 957 318 915 q 540 999 453 999 q 666 958 622 999 q 710 842 710 918 q 691 740 710 789 q 645 660 672 690 q 593 629 618 629 q 559 645 575 629 q 532 682 543 661 q 617 772 582 725 q 653 871 653 819 q 626 935 653 913 q 553 957 599 957 q 447 919 490 957 q 381 820 403 881 q 360 693 360 760 q 379 576 360 636 q 454 474 399 517 q 285 404 357 458 q 173 278 213 350 q 133 135 133 206 q 151 45 133 92 q 208 -33 168 -1 q 314 -64 247 -64 q 463 -22 389 -64 q 597 90 536 21 q 696 238 658 158 l 728 217 q 608 44 676 121 q 457 -76 540 -32 q 276 -121 374 -121 m 838 1156 q 812 1160 824 1156 q 793 1168 800 1164 q 844 1188 824 1174 q 864 1226 864 1203 q 833 1272 864 1257 q 736 1288 801 1288 q 755 1338 736 1317 q 810 1358 774 1358 q 888 1325 857 1358 q 918 1243 918 1292 q 896 1180 918 1204 q 838 1156 874 1156 m 744 1033 q 699 1099 724 1072 q 644 1153 675 1125 q 570 1121 604 1139 q 501 1078 536 1103 q 489 1096 493 1085 q 485 1113 485 1107 q 503 1154 485 1133 q 550 1193 522 1175 q 604 1222 578 1211 q 646 1233 631 1233 q 685 1219 663 1233 q 728 1181 707 1204 q 762 1131 749 1157 q 775 1083 775 1106 q 769 1056 775 1069 q 744 1033 763 1042 z "},"":{"ha":724,"x_min":-11,"x_max":911,"o":"m 276 -121 q 124 -85 189 -121 q 24 8 60 -50 q -11 138 -11 67 q 16 260 -11 200 q 92 369 43 319 q 205 453 140 419 q 346 496 269 486 q 269 596 294 540 q 243 710 243 651 q 281 849 243 783 q 385 957 318 915 q 540 999 453 999 q 666 958 622 999 q 710 842 710 918 q 691 740 710 789 q 645 660 672 690 q 593 629 618 629 q 559 645 575 629 q 532 682 543 661 q 617 772 582 725 q 653 871 653 819 q 626 935 653 913 q 553 957 599 957 q 447 919 490 957 q 381 820 403 881 q 360 693 360 760 q 379 576 360 636 q 454 474 399 517 q 285 404 357 458 q 173 278 213 350 q 133 135 133 206 q 151 45 133 92 q 208 -33 168 -1 q 314 -64 247 -64 q 463 -22 389 -64 q 597 90 536 21 q 696 238 658 158 l 728 217 q 608 44 676 121 q 457 -76 540 -32 q 276 -121 374 -121 m 657 1053 q 568 1075 601 1053 q 520 1127 535 1097 q 506 1183 506 1157 q 515 1225 506 1208 q 543 1251 525 1242 q 576 1172 549 1208 q 660 1135 603 1135 q 742 1159 711 1135 q 789 1208 772 1183 q 802 1186 799 1199 q 806 1164 806 1174 q 760 1085 806 1117 q 657 1053 715 1053 m 796 1238 q 716 1254 757 1238 q 634 1287 675 1271 q 554 1303 593 1303 q 513 1299 533 1303 q 469 1285 492 1296 q 522 1344 490 1325 q 593 1363 553 1363 q 673 1346 632 1363 q 756 1313 714 1329 q 842 1296 799 1296 q 911 1308 876 1296 q 863 1255 890 1272 q 796 1238 835 1238 z "},"":{"ha":724,"x_min":-11,"x_max":728,"o":"m 276 -121 q 124 -85 189 -121 q 24 8 60 -50 q -11 138 -11 67 q 16 260 -11 200 q 92 369 43 319 q 205 453 140 419 q 346 496 269 486 q 269 596 294 540 q 243 710 243 651 q 281 849 243 783 q 385 957 318 915 q 540 999 453 999 q 666 958 622 999 q 710 842 710 918 q 691 740 710 789 q 645 660 672 690 q 593 629 618 629 q 559 645 575 629 q 532 682 543 661 q 617 772 582 725 q 653 871 653 819 q 626 935 653 913 q 553 957 599 957 q 447 919 490 957 q 381 820 403 881 q 360 693 360 760 q 379 576 360 636 q 454 474 399 517 q 285 404 357 458 q 173 278 213 350 q 133 135 133 206 q 151 45 133 92 q 208 -33 168 -1 q 314 -64 247 -64 q 463 -22 389 -64 q 597 90 536 21 q 696 238 658 158 l 728 217 q 608 44 676 121 q 457 -76 540 -32 q 276 -121 374 -121 m 569 1043 q 506 1127 540 1083 q 431 1217 471 1171 q 452 1234 440 1226 q 479 1242 464 1242 q 517 1222 497 1242 q 553 1175 536 1203 q 581 1121 569 1147 q 592 1082 592 1094 q 569 1043 592 1056 m 667 1046 q 623 1124 649 1082 q 565 1204 597 1165 q 583 1231 572 1221 q 608 1240 594 1240 q 644 1223 628 1240 q 673 1181 661 1206 q 692 1133 685 1157 q 700 1093 700 1108 q 690 1059 700 1069 q 667 1046 679 1049 z "},"":{"ha":724,"x_min":-11,"x_max":804,"o":"m 276 -121 q 124 -85 189 -121 q 24 8 60 -50 q -11 138 -11 67 q 16 260 -11 200 q 92 369 43 319 q 205 453 140 419 q 346 496 269 486 q 269 596 294 540 q 243 710 243 651 q 281 849 243 783 q 385 957 318 915 q 540 999 453 999 q 666 958 622 999 q 710 842 710 918 q 691 740 710 789 q 645 660 672 690 q 593 629 618 629 q 559 645 575 629 q 532 682 543 661 q 617 772 582 725 q 653 871 653 819 q 626 935 653 913 q 553 957 599 957 q 447 919 490 957 q 381 820 403 881 q 360 693 360 760 q 379 576 360 636 q 454 474 399 517 q 285 404 357 458 q 173 278 213 350 q 133 135 133 206 q 151 45 133 92 q 208 -33 168 -1 q 314 -64 247 -64 q 463 -22 389 -64 q 597 90 536 21 q 696 238 658 158 l 728 217 q 608 44 676 121 q 457 -76 540 -32 q 276 -121 374 -121 m 721 1046 q 682 1057 699 1046 q 665 1092 665 1068 q 696 1138 665 1118 q 757 1157 726 1157 q 792 1148 778 1157 q 806 1114 806 1139 q 779 1068 806 1090 q 721 1046 753 1046 m 521 1074 q 481 1085 499 1074 q 464 1119 464 1096 q 494 1166 464 1146 q 557 1186 525 1186 q 591 1177 578 1186 q 604 1143 604 1168 q 578 1097 604 1119 q 521 1074 553 1074 z "},"":{"ha":724,"x_min":-11,"x_max":728,"o":"m 276 -121 q 124 -85 189 -121 q 24 8 60 -50 q -11 138 -11 67 q 16 260 -11 200 q 92 369 43 319 q 205 453 140 419 q 346 496 269 486 q 269 596 294 540 q 243 710 243 651 q 281 849 243 783 q 385 957 318 915 q 540 999 453 999 q 666 958 622 999 q 710 842 710 918 q 691 740 710 789 q 645 660 672 690 q 593 629 618 629 q 559 645 575 629 q 532 682 543 661 q 617 772 582 725 q 653 871 653 819 q 626 935 653 913 q 553 957 599 957 q 447 919 490 957 q 381 820 403 881 q 360 693 360 760 q 379 576 360 636 q 454 474 399 517 q 285 404 357 458 q 173 278 213 350 q 133 135 133 206 q 151 45 133 92 q 208 -33 168 -1 q 314 -64 247 -64 q 463 -22 389 -64 q 597 90 536 21 q 696 238 658 158 l 728 217 q 608 44 676 121 q 457 -76 540 -32 q 276 -121 374 -121 m 611 1067 q 568 1080 585 1067 q 551 1118 551 1093 q 582 1169 551 1150 q 644 1189 613 1189 q 685 1176 672 1189 q 699 1140 699 1163 q 671 1089 699 1111 q 611 1067 643 1067 z "},"":{"ha":724,"x_min":-11,"x_max":728,"o":"m 276 -121 q 124 -85 189 -121 q 24 8 60 -50 q -11 138 -11 67 q 16 260 -11 200 q 92 369 43 319 q 205 453 140 419 q 346 496 269 486 q 269 596 294 540 q 243 710 243 651 q 281 849 243 783 q 385 957 318 915 q 540 999 453 999 q 666 958 622 999 q 710 842 710 918 q 691 740 710 789 q 645 660 672 690 q 593 629 618 629 q 559 645 575 629 q 532 682 543 661 q 617 772 582 725 q 653 871 653 819 q 626 935 653 913 q 553 957 599 957 q 447 919 490 957 q 381 820 403 881 q 360 693 360 760 q 379 576 360 636 q 454 474 399 517 q 285 404 357 458 q 173 278 213 350 q 133 135 133 206 q 151 45 133 92 q 208 -33 168 -1 q 314 -64 247 -64 q 463 -22 389 -64 q 597 90 536 21 q 696 238 658 158 l 728 217 q 608 44 676 121 q 457 -76 540 -32 q 276 -121 374 -121 m 222 -353 q 179 -340 196 -353 q 163 -301 163 -326 q 193 -250 163 -269 q 256 -231 224 -231 q 297 -244 283 -231 q 310 -279 310 -257 q 282 -331 310 -308 q 222 -353 254 -353 z "},"":{"ha":724,"x_min":-11,"x_max":728,"o":"m 276 -121 q 124 -85 189 -121 q 24 8 60 -50 q -11 138 -11 67 q 16 260 -11 200 q 92 369 43 319 q 205 453 140 419 q 346 496 269 486 q 269 596 294 540 q 243 710 243 651 q 281 849 243 783 q 385 957 318 915 q 540 999 453 999 q 666 958 622 999 q 710 842 710 918 q 691 740 710 789 q 645 660 672 690 q 593 629 618 629 q 559 645 575 629 q 532 682 543 661 q 617 772 582 725 q 653 871 653 819 q 626 935 653 913 q 553 957 599 957 q 447 919 490 957 q 381 820 403 881 q 360 693 360 760 q 379 576 360 636 q 454 474 399 517 q 285 404 357 458 q 173 278 213 350 q 133 135 133 206 q 151 45 133 92 q 208 -33 168 -1 q 314 -64 247 -64 q 463 -22 389 -64 q 597 90 536 21 q 696 238 658 158 l 728 217 q 608 44 676 121 q 457 -76 540 -32 q 276 -121 374 -121 m 611 1039 q 543 1115 581 1078 q 451 1194 506 1151 q 466 1233 454 1221 q 492 1244 478 1244 q 538 1225 513 1244 q 588 1177 564 1206 q 626 1123 611 1149 q 640 1085 640 1097 q 633 1061 640 1076 q 611 1039 626 1046 z "},"":{"ha":724,"x_min":-11,"x_max":735,"o":"m 276 -121 q 124 -85 189 -121 q 24 8 60 -50 q -11 138 -11 67 q 16 260 -11 200 q 92 369 43 319 q 205 453 140 419 q 346 496 269 486 q 269 596 294 540 q 243 710 243 651 q 281 849 243 783 q 385 957 318 915 q 540 999 453 999 q 666 958 622 999 q 710 842 710 918 q 691 740 710 789 q 645 660 672 690 q 593 629 618 629 q 559 645 575 629 q 532 682 543 661 q 617 772 582 725 q 653 871 653 819 q 626 935 653 913 q 553 957 599 957 q 447 919 490 957 q 381 820 403 881 q 360 693 360 760 q 379 576 360 636 q 454 474 399 517 q 285 404 357 458 q 173 278 213 350 q 133 135 133 206 q 151 45 133 92 q 208 -33 168 -1 q 314 -64 247 -64 q 463 -22 389 -64 q 597 90 536 21 q 696 238 658 158 l 728 217 q 608 44 676 121 q 457 -76 540 -32 q 276 -121 374 -121 m 635 1047 q 607 1052 619 1047 q 586 1063 594 1057 q 651 1082 624 1068 q 679 1128 679 1096 q 649 1169 679 1157 q 551 1182 618 1182 q 570 1232 551 1211 q 626 1253 589 1253 q 704 1222 674 1253 q 735 1146 735 1190 q 707 1075 735 1103 q 635 1047 679 1047 z "},"":{"ha":724,"x_min":-11,"x_max":782,"o":"m 276 -121 q 124 -85 189 -121 q 24 8 60 -50 q -11 138 -11 67 q 16 260 -11 200 q 92 369 43 319 q 205 453 140 419 q 346 496 269 486 q 269 596 294 540 q 243 710 243 651 q 281 849 243 783 q 385 957 318 915 q 540 999 453 999 q 666 958 622 999 q 710 842 710 918 q 691 740 710 789 q 645 660 672 690 q 593 629 618 629 q 559 645 575 629 q 532 682 543 661 q 617 772 582 725 q 653 871 653 819 q 626 935 653 913 q 553 957 599 957 q 447 919 490 957 q 381 820 403 881 q 360 693 360 760 q 379 576 360 636 q 454 474 399 517 q 285 404 357 458 q 173 278 213 350 q 133 135 133 206 q 151 45 133 92 q 208 -33 168 -1 q 314 -64 247 -64 q 463 -22 389 -64 q 597 90 536 21 q 696 238 658 158 l 728 217 q 608 44 676 121 q 457 -76 540 -32 q 276 -121 374 -121 m 746 1017 q 712 1097 739 1060 q 625 1133 685 1133 q 545 1109 575 1133 q 500 1060 515 1085 q 486 1082 490 1069 q 482 1104 482 1094 q 526 1184 482 1153 q 631 1215 571 1215 q 719 1194 686 1215 q 767 1142 753 1172 q 782 1088 782 1113 q 773 1044 782 1061 q 746 1017 764 1028 z "},"":{"ha":724,"x_min":-11,"x_max":804,"o":"m 276 -121 q 124 -85 189 -121 q 24 8 60 -50 q -11 138 -11 67 q 16 260 -11 200 q 92 369 43 319 q 205 453 140 419 q 346 496 269 486 q 269 596 294 540 q 243 710 243 651 q 281 849 243 783 q 385 957 318 915 q 540 999 453 999 q 666 958 622 999 q 710 842 710 918 q 691 740 710 789 q 645 660 672 690 q 593 629 618 629 q 559 645 575 629 q 532 682 543 661 q 617 772 582 725 q 653 871 653 819 q 626 935 653 913 q 553 957 599 957 q 447 919 490 957 q 381 820 403 881 q 360 693 360 760 q 379 576 360 636 q 454 474 399 517 q 285 404 357 458 q 173 278 213 350 q 133 135 133 206 q 151 45 133 92 q 208 -33 168 -1 q 314 -64 247 -64 q 463 -22 389 -64 q 597 90 536 21 q 696 238 658 158 l 728 217 q 608 44 676 121 q 457 -76 540 -32 q 276 -121 374 -121 m 749 1051 q 671 1059 717 1051 q 574 1078 625 1067 q 478 1099 524 1089 q 400 1113 432 1108 q 468 1153 415 1153 q 577 1142 518 1153 q 696 1117 636 1132 q 804 1085 756 1101 q 749 1051 786 1051 z "},"":{"ha":724,"x_min":-11,"x_max":728,"o":"m 276 -121 q 124 -85 189 -121 q 24 8 60 -50 q -11 138 -11 67 q 16 260 -11 200 q 92 369 43 319 q 205 453 140 419 q 346 496 269 486 q 269 596 294 540 q 243 710 243 651 q 281 849 243 783 q 385 957 318 915 q 540 999 453 999 q 666 958 622 999 q 710 842 710 918 q 691 740 710 789 q 645 660 672 690 q 593 629 618 629 q 559 645 575 629 q 532 682 543 661 q 617 772 582 725 q 653 871 653 819 q 626 935 653 913 q 553 957 599 957 q 447 919 490 957 q 381 820 403 881 q 360 693 360 760 q 379 576 360 636 q 454 474 399 517 q 285 404 357 458 q 173 278 213 350 q 133 135 133 206 q 151 45 133 92 q 208 -33 168 -1 q 314 -64 247 -64 q 463 -22 389 -64 q 597 90 536 21 q 696 238 658 158 l 728 217 q 608 44 676 121 q 457 -76 540 -32 q 276 -121 374 -121 m 513 -249 q 439 -220 467 -249 q 411 -149 411 -192 q 443 -73 411 -103 q 517 -39 475 -43 q 485 -73 497 -53 q 474 -119 474 -93 q 489 -160 474 -142 q 535 -178 504 -178 q 575 -171 557 -178 q 611 -151 593 -164 q 583 -223 610 -197 q 513 -249 556 -249 z "},"":{"ha":724,"x_min":-11,"x_max":842,"o":"m 276 -121 q 124 -85 189 -121 q 24 8 60 -50 q -11 138 -11 67 q 16 260 -11 200 q 92 369 43 319 q 205 453 140 419 q 346 496 269 486 q 269 596 294 540 q 243 710 243 651 q 281 849 243 783 q 385 957 318 915 q 540 999 453 999 q 666 958 622 999 q 710 842 710 918 q 691 740 710 789 q 645 660 672 690 q 593 629 618 629 q 559 645 575 629 q 532 682 543 661 q 617 772 582 725 q 653 871 653 819 q 626 935 653 913 q 553 957 599 957 q 447 919 490 957 q 381 820 403 881 q 360 693 360 760 q 379 576 360 636 q 454 474 399 517 q 285 404 357 458 q 173 278 213 350 q 133 135 133 206 q 151 45 133 92 q 208 -33 168 -1 q 314 -64 247 -64 q 463 -22 389 -64 q 597 90 536 21 q 696 238 658 158 l 728 217 q 608 44 676 121 q 457 -76 540 -32 q 276 -121 374 -121 m 726 1051 q 647 1068 688 1051 q 565 1101 606 1085 q 485 1117 524 1117 q 443 1113 464 1117 q 400 1099 422 1110 q 452 1158 421 1139 q 524 1176 483 1176 q 603 1160 563 1176 q 687 1126 644 1143 q 772 1110 729 1110 q 842 1122 807 1110 q 793 1069 821 1086 q 726 1051 765 1051 z "},"":{"ha":797,"x_min":40,"x_max":910,"o":"m 317 -121 q 178 -80 240 -121 q 78 39 115 -39 q 40 226 40 117 q 74 443 40 333 q 165 652 107 553 q 297 830 222 751 q 455 953 372 908 q 621 999 538 999 q 714 976 679 999 q 764 916 749 953 q 779 838 779 879 q 762 741 779 789 q 715 661 744 693 q 651 629 686 629 q 623 638 636 629 q 599 671 610 647 q 644 720 618 685 q 689 799 669 756 q 708 876 708 842 q 690 925 708 906 q 631 944 672 944 q 503 897 568 944 q 378 772 438 850 q 269 596 318 693 q 193 398 221 499 q 165 207 165 297 q 219 10 165 81 q 351 -61 274 -61 q 456 -24 407 -61 q 541 74 504 14 q 600 206 578 135 q 628 343 622 276 q 553 355 588 351 q 482 358 518 358 q 440 358 461 358 q 393 357 418 357 q 431 423 404 403 q 497 443 457 443 q 581 430 539 443 q 666 401 624 417 q 746 378 708 386 l 733 333 q 692 208 708 260 q 667 120 676 157 q 656 54 658 83 q 653 -3 653 25 q 654 -60 653 -31 q 657 -126 656 -89 q 603 -103 622 -119 q 576 -62 583 -86 q 569 -15 569 -39 q 570 4 569 -6 q 574 25 571 14 q 461 -80 525 -39 q 317 -121 397 -121 m 761 1053 q 672 1075 706 1053 q 624 1127 639 1097 q 610 1183 610 1157 q 619 1225 610 1208 q 647 1251 629 1242 q 680 1172 653 1208 q 764 1135 707 1135 q 846 1159 815 1135 q 893 1208 876 1183 q 906 1186 903 1199 q 910 1164 910 1174 q 865 1085 910 1117 q 761 1053 819 1053 z "},"":{"ha":797,"x_min":40,"x_max":867,"o":"m 317 -121 q 178 -80 240 -121 q 78 39 115 -39 q 40 226 40 117 q 74 443 40 333 q 165 652 107 553 q 297 830 222 751 q 455 953 372 908 q 621 999 538 999 q 714 976 679 999 q 764 916 749 953 q 779 838 779 879 q 762 741 779 789 q 715 661 744 693 q 651 629 686 629 q 623 638 636 629 q 599 671 610 647 q 644 720 618 685 q 689 799 669 756 q 708 876 708 842 q 690 925 708 906 q 631 944 672 944 q 503 897 568 944 q 378 772 438 850 q 269 596 318 693 q 193 398 221 499 q 165 207 165 297 q 219 10 165 81 q 351 -61 274 -61 q 456 -24 407 -61 q 541 74 504 14 q 600 206 578 135 q 628 343 622 276 q 553 355 588 351 q 482 358 518 358 q 440 358 461 358 q 393 357 418 357 q 431 423 404 403 q 497 443 457 443 q 581 430 539 443 q 666 401 624 417 q 746 378 708 386 l 733 333 q 692 208 708 260 q 667 120 676 157 q 656 54 658 83 q 653 -3 653 25 q 654 -60 653 -31 q 657 -126 656 -89 q 603 -103 622 -119 q 576 -62 583 -86 q 569 -15 569 -39 q 570 4 569 -6 q 574 25 571 14 q 461 -80 525 -39 q 317 -121 397 -121 m 703 1047 q 661 1063 685 1047 q 617 1105 638 1079 q 582 1158 596 1131 q 568 1210 568 1186 q 575 1238 568 1225 q 599 1257 582 1250 q 644 1186 619 1217 q 704 1124 669 1156 q 781 1160 746 1140 q 846 1206 817 1181 q 861 1190 856 1200 q 867 1171 867 1181 q 847 1128 867 1150 q 800 1088 828 1107 q 745 1058 772 1069 q 703 1047 718 1047 z "},"":{"ha":797,"x_min":40,"x_max":881,"o":"m 317 -121 q 178 -80 240 -121 q 78 39 115 -39 q 40 226 40 117 q 74 443 40 333 q 165 652 107 553 q 297 830 222 751 q 455 953 372 908 q 621 999 538 999 q 714 976 679 999 q 764 916 749 953 q 779 838 779 879 q 762 741 779 789 q 715 661 744 693 q 651 629 686 629 q 623 638 636 629 q 599 671 610 647 q 644 720 618 685 q 689 799 669 756 q 708 876 708 842 q 690 925 708 906 q 631 944 672 944 q 503 897 568 944 q 378 772 438 850 q 269 596 318 693 q 193 398 221 499 q 165 207 165 297 q 219 10 165 81 q 351 -61 274 -61 q 456 -24 407 -61 q 541 74 504 14 q 600 206 578 135 q 628 343 622 276 q 553 355 588 351 q 482 358 518 358 q 440 358 461 358 q 393 357 418 357 q 431 423 404 403 q 497 443 457 443 q 581 430 539 443 q 666 401 624 417 q 746 378 708 386 l 733 333 q 692 208 708 260 q 667 120 676 157 q 656 54 658 83 q 653 -3 653 25 q 654 -60 653 -31 q 657 -126 656 -89 q 603 -103 622 -119 q 576 -62 583 -86 q 569 -15 569 -39 q 570 4 569 -6 q 574 25 571 14 q 461 -80 525 -39 q 317 -121 397 -121 m 849 1033 q 803 1099 828 1072 q 749 1153 779 1125 q 674 1121 708 1139 q 606 1078 640 1103 q 593 1096 597 1085 q 589 1113 589 1107 q 608 1154 589 1133 q 654 1193 626 1175 q 708 1222 682 1211 q 750 1233 735 1233 q 789 1219 767 1233 q 832 1181 811 1204 q 866 1131 853 1157 q 879 1083 879 1106 q 873 1056 879 1069 q 849 1033 867 1042 z "},"":{"ha":797,"x_min":40,"x_max":779,"o":"m 317 -121 q 178 -80 240 -121 q 78 39 115 -39 q 40 226 40 117 q 74 443 40 333 q 165 652 107 553 q 297 830 222 751 q 455 953 372 908 q 621 999 538 999 q 714 976 679 999 q 764 916 749 953 q 779 838 779 879 q 762 741 779 789 q 715 661 744 693 q 651 629 686 629 q 623 638 636 629 q 599 671 610 647 q 644 720 618 685 q 689 799 669 756 q 708 876 708 842 q 690 925 708 906 q 631 944 672 944 q 503 897 568 944 q 378 772 438 850 q 269 596 318 693 q 193 398 221 499 q 165 207 165 297 q 219 10 165 81 q 351 -61 274 -61 q 456 -24 407 -61 q 541 74 504 14 q 600 206 578 135 q 628 343 622 276 q 553 355 588 351 q 482 358 518 358 q 440 358 461 358 q 393 357 418 357 q 431 423 404 403 q 497 443 457 443 q 581 430 539 443 q 666 401 624 417 q 746 378 708 386 l 733 333 q 692 208 708 260 q 667 120 676 157 q 656 54 658 83 q 653 -3 653 25 q 654 -60 653 -31 q 657 -126 656 -89 q 603 -103 622 -119 q 576 -62 583 -86 q 569 -15 569 -39 q 570 4 569 -6 q 574 25 571 14 q 461 -80 525 -39 q 317 -121 397 -121 m 264 -386 q 240 -361 249 -376 q 232 -328 232 -346 q 244 -266 232 -300 q 277 -208 257 -232 q 318 -183 297 -183 q 347 -197 335 -183 q 360 -226 360 -210 q 306 -302 324 -265 q 264 -386 288 -339 z "},"":{"ha":797,"x_min":40,"x_max":803,"o":"m 317 -121 q 178 -80 240 -121 q 78 39 115 -39 q 40 226 40 117 q 74 443 40 333 q 165 652 107 553 q 297 830 222 751 q 455 953 372 908 q 621 999 538 999 q 714 976 679 999 q 764 916 749 953 q 779 838 779 879 q 762 741 779 789 q 715 661 744 693 q 651 629 686 629 q 623 638 636 629 q 599 671 610 647 q 644 720 618 685 q 689 799 669 756 q 708 876 708 842 q 690 925 708 906 q 631 944 672 944 q 503 897 568 944 q 378 772 438 850 q 269 596 318 693 q 193 398 221 499 q 165 207 165 297 q 219 10 165 81 q 351 -61 274 -61 q 456 -24 407 -61 q 541 74 504 14 q 600 206 578 135 q 628 343 622 276 q 553 355 588 351 q 482 358 518 358 q 440 358 461 358 q 393 357 418 357 q 431 423 404 403 q 497 443 457 443 q 581 430 539 443 q 666 401 624 417 q 746 378 708 386 l 733 333 q 692 208 708 260 q 667 120 676 157 q 656 54 658 83 q 653 -3 653 25 q 654 -60 653 -31 q 657 -126 656 -89 q 603 -103 622 -119 q 576 -62 583 -86 q 569 -15 569 -39 q 570 4 569 -6 q 574 25 571 14 q 461 -80 525 -39 q 317 -121 397 -121 m 715 1067 q 672 1080 689 1067 q 656 1118 656 1093 q 686 1169 656 1150 q 749 1189 717 1189 q 790 1176 776 1189 q 803 1140 803 1163 q 775 1089 803 1111 q 715 1067 747 1067 z "},"":{"ha":900,"x_min":92,"x_max":939,"o":"m 92 -121 q 119 19 104 -51 q 158 169 135 89 q 213 347 181 249 q 287 571 244 446 q 383 857 329 696 q 394 888 388 867 q 401 929 401 910 q 383 949 401 949 q 316 924 349 949 q 262 862 283 900 q 240 782 240 824 q 241 760 240 771 q 243 740 242 750 q 174 761 196 743 q 151 808 151 779 q 174 883 151 849 q 231 944 196 918 q 308 985 267 971 q 388 1000 349 1000 q 468 977 447 1000 q 489 926 489 954 q 485 896 489 911 q 478 867 482 881 q 409 646 439 742 q 357 475 379 550 q 316 339 335 400 q 279 222 297 278 q 243 105 261 165 q 201 -28 225 44 q 151 -99 186 -78 q 92 -121 117 -121 m 679 -121 q 590 -87 614 -114 q 565 1 565 -61 q 577 101 565 39 q 608 242 589 164 q 640 355 622 293 q 677 484 657 417 q 718 617 697 551 q 759 743 739 683 q 797 850 779 803 q 826 925 814 897 q 842 954 832 936 q 870 987 851 972 q 918 1001 889 1001 q 881 891 900 954 q 840 755 861 828 q 797 603 818 682 q 756 446 775 524 q 724 297 738 368 q 687 96 700 186 q 674 -56 674 6 q 675 -91 674 -75 q 679 -121 676 -107 m 147 388 q 173 444 147 424 q 240 476 199 465 q 331 490 282 486 q 426 493 381 493 q 660 483 543 493 q 886 474 778 474 q 833 435 865 449 q 753 415 801 421 q 636 408 706 410 q 469 407 567 407 q 356 404 414 407 q 244 398 299 401 q 147 388 190 394 m 189 581 q 240 638 192 615 q 364 672 288 661 q 528 683 440 683 q 744 681 644 683 q 939 671 844 678 q 888 626 932 640 q 754 608 843 613 q 524 604 665 604 q 321 599 397 604 q 189 581 244 594 z "},"":{"ha":899,"x_min":92,"x_max":918,"o":"m 92 -121 q 111 -20 100 -71 q 138 94 122 31 q 179 238 154 157 q 239 429 204 319 q 194 425 218 428 q 149 419 171 422 q 181 483 149 461 q 268 517 214 506 q 281 557 275 539 q 294 598 288 575 q 313 652 301 621 q 342 733 325 683 q 383 857 358 783 q 394 888 388 867 q 401 929 401 910 q 398 944 401 940 q 383 949 394 949 q 324 923 353 949 q 271 858 294 897 q 233 776 247 818 q 219 701 219 733 q 222 676 219 689 q 231 643 224 663 q 153 668 176 643 q 129 731 129 693 q 158 825 129 778 q 231 912 186 872 q 325 976 275 951 q 417 1000 375 1000 q 474 977 458 1000 q 489 926 489 954 q 485 896 489 911 q 478 867 482 881 l 375 528 q 410 529 392 529 q 447 529 429 529 q 574 526 515 529 q 689 518 633 524 q 746 703 721 625 q 791 837 771 782 q 826 925 811 892 q 842 954 832 936 q 870 987 851 972 q 918 1001 889 1001 q 874 872 900 951 q 822 698 849 792 q 772 511 796 604 q 826 509 794 511 q 888 507 858 507 q 817 458 849 467 q 757 449 785 449 q 731 335 743 389 q 710 232 718 281 q 682 62 690 133 q 674 -56 674 -10 q 675 -91 674 -75 q 679 -121 676 -107 q 590 -87 614 -114 q 565 1 565 -61 q 572 79 565 35 q 592 179 578 124 q 622 295 603 228 q 668 447 642 363 q 527 446 583 447 q 429 443 471 444 q 346 438 388 442 q 325 368 338 407 q 297 276 313 329 q 258 149 281 224 q 201 -28 235 75 q 151 -99 186 -78 q 92 -121 117 -121 m 799 1033 q 753 1099 778 1072 q 699 1153 729 1125 q 624 1121 658 1139 q 556 1078 590 1103 q 543 1096 547 1085 q 539 1113 539 1107 q 558 1154 539 1133 q 604 1193 576 1175 q 658 1222 632 1211 q 700 1233 685 1233 q 739 1219 717 1233 q 782 1181 761 1204 q 816 1131 803 1157 q 829 1083 829 1106 q 823 1056 829 1069 q 799 1033 817 1042 z "},"":{"ha":1275,"x_min":-35,"x_max":1425,"o":"m -35 -122 q 3 -40 -29 -65 q 88 -6 36 -14 q 200 1 140 1 q 249 131 225 56 q 294 293 272 207 q 338 469 317 379 q 377 644 358 560 q 413 796 396 728 q 444 907 429 864 q 319 902 372 906 q 219 892 265 899 q 121 875 172 885 q 204 969 133 939 q 419 999 275 999 q 569 993 492 999 q 710 981 646 988 q 810 968 774 974 q 727 918 767 928 q 657 908 688 908 q 576 908 613 908 q 507 907 540 908 q 487 801 499 867 q 460 656 475 735 q 431 497 446 578 q 402 346 417 417 q 375 226 388 275 q 330 89 356 149 q 269 0 304 29 q 420 -15 343 -6 q 579 -26 497 -24 q 481 -85 529 -74 q 401 -97 433 -97 q 263 -98 322 -97 q 156 -101 204 -99 q 63 -108 108 -103 q -35 -122 18 -114 m 810 -119 q 737 -106 775 -119 q 673 -53 699 -93 q 647 65 647 -14 q 660 175 647 121 q 697 266 672 229 q 758 303 722 303 q 807 289 776 303 q 767 167 781 224 q 754 65 754 111 q 778 -25 754 8 q 842 -58 801 -58 q 903 -28 875 -58 q 961 82 932 3 q 1007 226 983 142 q 1054 408 1031 311 q 1099 599 1078 504 q 1138 776 1121 694 q 1165 914 1156 858 q 1048 910 1097 914 q 958 901 999 907 q 874 883 918 894 q 940 970 882 943 q 1115 997 997 997 q 1233 992 1172 997 q 1345 979 1293 986 q 1425 967 1397 972 q 1367 924 1404 933 q 1304 915 1329 915 q 1257 915 1281 915 q 1218 914 1233 914 q 1235 886 1229 903 q 1240 857 1240 869 q 1231 778 1240 839 q 1203 630 1221 717 q 1161 445 1185 543 q 1108 253 1138 347 q 1046 86 1079 160 q 972 -40 1010 6 q 892 -102 933 -85 q 810 -119 851 -119 z "},"":{"ha":678,"x_min":-35,"x_max":810,"o":"m -35 -122 q 3 -40 -29 -65 q 88 -6 36 -14 q 200 1 140 1 q 249 131 225 56 q 294 293 272 207 q 338 469 317 379 q 377 644 358 560 q 413 796 396 728 q 444 907 429 864 q 319 902 372 906 q 219 892 265 899 q 121 875 172 885 q 204 969 133 939 q 419 999 275 999 q 569 993 492 999 q 710 981 646 988 q 810 968 774 974 q 727 918 767 928 q 657 908 688 908 q 576 908 613 908 q 507 907 540 908 q 487 801 499 867 q 460 656 475 735 q 431 497 446 578 q 402 346 417 417 q 375 226 388 275 q 330 89 356 149 q 269 0 304 29 q 420 -15 343 -6 q 579 -26 497 -24 q 481 -85 529 -74 q 401 -97 433 -97 q 263 -98 322 -97 q 156 -101 204 -99 q 63 -108 108 -103 q -35 -122 18 -114 m 513 1038 q 490 1059 497 1044 q 483 1081 483 1074 q 497 1118 483 1092 q 533 1173 511 1144 q 581 1222 556 1201 q 626 1243 606 1243 q 651 1233 640 1243 q 665 1196 663 1222 q 578 1113 615 1150 q 513 1038 542 1076 z "},"":{"ha":678,"x_min":-35,"x_max":810,"o":"m -35 -122 q 3 -40 -29 -65 q 88 -6 36 -14 q 200 1 140 1 q 249 131 225 56 q 294 293 272 207 q 338 469 317 379 q 377 644 358 560 q 413 796 396 728 q 444 907 429 864 q 319 902 372 906 q 219 892 265 899 q 121 875 172 885 q 204 969 133 939 q 419 999 275 999 q 569 993 492 999 q 710 981 646 988 q 810 968 774 974 q 727 918 767 928 q 657 908 688 908 q 576 908 613 908 q 507 907 540 908 q 487 801 499 867 q 460 656 475 735 q 431 497 446 578 q 402 346 417 417 q 375 226 388 275 q 330 89 356 149 q 269 0 304 29 q 420 -15 343 -6 q 579 -26 497 -24 q 481 -85 529 -74 q 401 -97 433 -97 q 263 -98 322 -97 q 156 -101 204 -99 q 63 -108 108 -103 q -35 -122 18 -114 m 549 1051 q 460 1074 493 1051 q 412 1126 426 1096 q 397 1182 397 1156 q 407 1224 397 1207 q 435 1250 417 1240 q 467 1170 440 1207 q 551 1133 494 1133 q 633 1158 603 1133 q 681 1207 664 1182 q 694 1185 690 1197 q 697 1163 697 1172 q 652 1083 697 1115 q 549 1051 607 1051 z "},"":{"ha":678,"x_min":-35,"x_max":810,"o":"m -35 -122 q 3 -40 -29 -65 q 88 -6 36 -14 q 200 1 140 1 q 249 131 225 56 q 294 293 272 207 q 338 469 317 379 q 377 644 358 560 q 413 796 396 728 q 444 907 429 864 q 319 902 372 906 q 219 892 265 899 q 121 875 172 885 q 204 969 133 939 q 419 999 275 999 q 569 993 492 999 q 710 981 646 988 q 810 968 774 974 q 727 918 767 928 q 657 908 688 908 q 576 908 613 908 q 507 907 540 908 q 487 801 499 867 q 460 656 475 735 q 431 497 446 578 q 402 346 417 417 q 375 226 388 275 q 330 89 356 149 q 269 0 304 29 q 420 -15 343 -6 q 579 -26 497 -24 q 481 -85 529 -74 q 401 -97 433 -97 q 263 -98 322 -97 q 156 -101 204 -99 q 63 -108 108 -103 q -35 -122 18 -114 m 636 1032 q 591 1097 615 1071 q 536 1151 567 1124 q 462 1119 496 1138 q 393 1076 428 1101 q 381 1094 385 1083 q 376 1111 376 1106 q 395 1153 376 1132 q 442 1192 414 1174 q 496 1221 469 1210 q 538 1232 522 1232 q 576 1217 554 1232 q 619 1179 599 1203 q 653 1130 640 1156 q 667 1082 667 1104 q 660 1054 667 1068 q 636 1032 654 1040 z "},"":{"ha":678,"x_min":-35,"x_max":810,"o":"m -35 -122 q 3 -40 -29 -65 q 88 -6 36 -14 q 200 1 140 1 q 249 131 225 56 q 294 293 272 207 q 338 469 317 379 q 377 644 358 560 q 413 796 396 728 q 444 907 429 864 q 319 902 372 906 q 219 892 265 899 q 121 875 172 885 q 204 969 133 939 q 419 999 275 999 q 569 993 492 999 q 710 981 646 988 q 810 968 774 974 q 727 918 767 928 q 657 908 688 908 q 576 908 613 908 q 507 907 540 908 q 487 801 499 867 q 460 656 475 735 q 431 497 446 578 q 402 346 417 417 q 375 226 388 275 q 330 89 356 149 q 269 0 304 29 q 420 -15 343 -6 q 579 -26 497 -24 q 481 -85 529 -74 q 401 -97 433 -97 q 263 -98 322 -97 q 156 -101 204 -99 q 63 -108 108 -103 q -35 -122 18 -114 m 461 1042 q 397 1126 432 1082 q 322 1215 363 1169 q 344 1233 332 1225 q 371 1240 356 1240 q 408 1221 389 1240 q 444 1174 428 1201 q 472 1119 461 1146 q 483 1081 483 1093 q 461 1042 483 1054 m 558 1044 q 515 1122 540 1081 q 457 1203 489 1164 q 475 1229 464 1219 q 500 1239 486 1239 q 536 1222 519 1239 q 565 1180 553 1204 q 584 1131 576 1156 q 592 1092 592 1107 q 581 1058 592 1068 q 558 1044 571 1047 z "},"":{"ha":678,"x_min":-35,"x_max":810,"o":"m -35 -122 q 3 -40 -29 -65 q 88 -6 36 -14 q 200 1 140 1 q 249 131 225 56 q 294 293 272 207 q 338 469 317 379 q 377 644 358 560 q 413 796 396 728 q 444 907 429 864 q 319 902 372 906 q 219 892 265 899 q 121 875 172 885 q 204 969 133 939 q 419 999 275 999 q 569 993 492 999 q 710 981 646 988 q 810 968 774 974 q 727 918 767 928 q 657 908 688 908 q 576 908 613 908 q 507 907 540 908 q 487 801 499 867 q 460 656 475 735 q 431 497 446 578 q 402 346 417 417 q 375 226 388 275 q 330 89 356 149 q 269 0 304 29 q 420 -15 343 -6 q 579 -26 497 -24 q 481 -85 529 -74 q 401 -97 433 -97 q 263 -98 322 -97 q 156 -101 204 -99 q 63 -108 108 -103 q -35 -122 18 -114 m 613 1044 q 574 1056 590 1044 q 557 1090 557 1067 q 588 1136 557 1117 q 649 1156 618 1156 q 683 1147 669 1156 q 697 1113 697 1138 q 671 1067 697 1089 q 613 1044 644 1044 m 413 1072 q 373 1083 390 1072 q 356 1118 356 1094 q 386 1165 356 1144 q 449 1185 417 1185 q 483 1176 469 1185 q 496 1142 496 1167 q 470 1095 496 1118 q 413 1072 444 1072 z "},"":{"ha":678,"x_min":-35,"x_max":810,"o":"m -35 -122 q 3 -40 -29 -65 q 88 -6 36 -14 q 200 1 140 1 q 249 131 225 56 q 294 293 272 207 q 338 469 317 379 q 377 644 358 560 q 413 796 396 728 q 444 907 429 864 q 319 902 372 906 q 219 892 265 899 q 121 875 172 885 q 204 969 133 939 q 419 999 275 999 q 569 993 492 999 q 710 981 646 988 q 810 968 774 974 q 727 918 767 928 q 657 908 688 908 q 576 908 613 908 q 507 907 540 908 q 487 801 499 867 q 460 656 475 735 q 431 497 446 578 q 402 346 417 417 q 375 226 388 275 q 330 89 356 149 q 269 0 304 29 q 420 -15 343 -6 q 579 -26 497 -24 q 481 -85 529 -74 q 401 -97 433 -97 q 263 -98 322 -97 q 156 -101 204 -99 q 63 -108 108 -103 q -35 -122 18 -114 m 503 1065 q 460 1078 476 1065 q 443 1117 443 1092 q 474 1168 443 1149 q 536 1188 504 1188 q 577 1174 564 1188 q 590 1139 590 1161 q 563 1088 590 1110 q 503 1065 535 1065 z "},"":{"ha":678,"x_min":-35,"x_max":810,"o":"m -35 -122 q 3 -40 -29 -65 q 88 -6 36 -14 q 200 1 140 1 q 249 131 225 56 q 294 293 272 207 q 338 469 317 379 q 377 644 358 560 q 413 796 396 728 q 444 907 429 864 q 319 902 372 906 q 219 892 265 899 q 121 875 172 885 q 204 969 133 939 q 419 999 275 999 q 569 993 492 999 q 710 981 646 988 q 810 968 774 974 q 727 918 767 928 q 657 908 688 908 q 576 908 613 908 q 507 907 540 908 q 487 801 499 867 q 460 656 475 735 q 431 497 446 578 q 402 346 417 417 q 375 226 388 275 q 330 89 356 149 q 269 0 304 29 q 420 -15 343 -6 q 579 -26 497 -24 q 481 -85 529 -74 q 401 -97 433 -97 q 263 -98 322 -97 q 156 -101 204 -99 q 63 -108 108 -103 q -35 -122 18 -114 m 160 -318 q 117 -305 133 -318 q 100 -267 100 -292 q 131 -215 100 -235 q 193 -196 161 -196 q 234 -209 221 -196 q 247 -244 247 -222 q 219 -296 247 -274 q 160 -318 192 -318 z "},"":{"ha":678,"x_min":-35,"x_max":810,"o":"m -35 -122 q 3 -40 -29 -65 q 88 -6 36 -14 q 200 1 140 1 q 249 131 225 56 q 294 293 272 207 q 338 469 317 379 q 377 644 358 560 q 413 796 396 728 q 444 907 429 864 q 319 902 372 906 q 219 892 265 899 q 121 875 172 885 q 204 969 133 939 q 419 999 275 999 q 569 993 492 999 q 710 981 646 988 q 810 968 774 974 q 727 918 767 928 q 657 908 688 908 q 576 908 613 908 q 507 907 540 908 q 487 801 499 867 q 460 656 475 735 q 431 497 446 578 q 402 346 417 417 q 375 226 388 275 q 330 89 356 149 q 269 0 304 29 q 420 -15 343 -6 q 579 -26 497 -24 q 481 -85 529 -74 q 401 -97 433 -97 q 263 -98 322 -97 q 156 -101 204 -99 q 63 -108 108 -103 q -35 -122 18 -114 m 503 1038 q 435 1113 472 1076 q 343 1193 397 1150 q 358 1231 346 1219 q 383 1243 369 1243 q 430 1224 404 1243 q 479 1176 456 1204 q 517 1122 503 1147 q 532 1083 532 1096 q 525 1060 532 1075 q 503 1038 518 1044 z "},"":{"ha":678,"x_min":-35,"x_max":810,"o":"m -35 -122 q 3 -40 -29 -65 q 88 -6 36 -14 q 200 1 140 1 q 249 131 225 56 q 294 293 272 207 q 338 469 317 379 q 377 644 358 560 q 413 796 396 728 q 444 907 429 864 q 319 902 372 906 q 219 892 265 899 q 121 875 172 885 q 204 969 133 939 q 419 999 275 999 q 569 993 492 999 q 710 981 646 988 q 810 968 774 974 q 727 918 767 928 q 657 908 688 908 q 576 908 613 908 q 507 907 540 908 q 487 801 499 867 q 460 656 475 735 q 431 497 446 578 q 402 346 417 417 q 375 226 388 275 q 330 89 356 149 q 269 0 304 29 q 420 -15 343 -6 q 579 -26 497 -24 q 481 -85 529 -74 q 401 -97 433 -97 q 263 -98 322 -97 q 156 -101 204 -99 q 63 -108 108 -103 q -35 -122 18 -114 m 526 1046 q 499 1051 511 1046 q 478 1061 486 1056 q 543 1081 515 1067 q 571 1126 571 1094 q 540 1168 571 1156 q 443 1181 510 1181 q 462 1231 443 1210 q 518 1251 481 1251 q 596 1220 565 1251 q 626 1144 626 1189 q 599 1074 626 1101 q 526 1046 571 1046 z "},"":{"ha":678,"x_min":-35,"x_max":810,"o":"m -35 -122 q 3 -40 -29 -65 q 88 -6 36 -14 q 200 1 140 1 q 249 131 225 56 q 294 293 272 207 q 338 469 317 379 q 377 644 358 560 q 413 796 396 728 q 444 907 429 864 q 319 902 372 906 q 219 892 265 899 q 121 875 172 885 q 204 969 133 939 q 419 999 275 999 q 569 993 492 999 q 710 981 646 988 q 810 968 774 974 q 727 918 767 928 q 657 908 688 908 q 576 908 613 908 q 507 907 540 908 q 487 801 499 867 q 460 656 475 735 q 431 497 446 578 q 402 346 417 417 q 375 226 388 275 q 330 89 356 149 q 269 0 304 29 q 420 -15 343 -6 q 579 -26 497 -24 q 481 -85 529 -74 q 401 -97 433 -97 q 263 -98 322 -97 q 156 -101 204 -99 q 63 -108 108 -103 q -35 -122 18 -114 m 639 1015 q 605 1095 632 1058 q 518 1132 578 1132 q 438 1108 468 1132 q 393 1058 408 1083 q 379 1081 383 1068 q 375 1103 375 1093 q 419 1183 375 1151 q 524 1214 464 1214 q 613 1192 579 1214 q 660 1141 646 1171 q 675 1086 675 1111 q 666 1043 675 1060 q 639 1015 657 1026 z "},"":{"ha":678,"x_min":-35,"x_max":810,"o":"m -35 -122 q 3 -40 -29 -65 q 88 -6 36 -14 q 200 1 140 1 q 249 131 225 56 q 294 293 272 207 q 338 469 317 379 q 377 644 358 560 q 413 796 396 728 q 444 907 429 864 q 319 902 372 906 q 219 892 265 899 q 121 875 172 885 q 204 969 133 939 q 419 999 275 999 q 569 993 492 999 q 710 981 646 988 q 810 968 774 974 q 727 918 767 928 q 657 908 688 908 q 576 908 613 908 q 507 907 540 908 q 487 801 499 867 q 460 656 475 735 q 431 497 446 578 q 402 346 417 417 q 375 226 388 275 q 330 89 356 149 q 269 0 304 29 q 420 -15 343 -6 q 579 -26 497 -24 q 481 -85 529 -74 q 401 -97 433 -97 q 263 -98 322 -97 q 156 -101 204 -99 q 63 -108 108 -103 q -35 -122 18 -114 m 642 1050 q 564 1058 610 1050 q 467 1076 518 1065 q 371 1097 417 1088 q 293 1111 325 1107 q 361 1151 308 1151 q 470 1141 411 1151 q 589 1115 529 1131 q 697 1083 649 1100 q 642 1050 679 1050 z "},"":{"ha":678,"x_min":-35,"x_max":810,"o":"m -35 -122 q 3 -40 -29 -65 q 88 -6 36 -14 q 200 1 140 1 q 249 131 225 56 q 294 293 272 207 q 338 469 317 379 q 377 644 358 560 q 413 796 396 728 q 444 907 429 864 q 319 902 372 906 q 219 892 265 899 q 121 875 172 885 q 204 969 133 939 q 419 999 275 999 q 569 993 492 999 q 710 981 646 988 q 810 968 774 974 q 727 918 767 928 q 657 908 688 908 q 576 908 613 908 q 507 907 540 908 q 487 801 499 867 q 460 656 475 735 q 431 497 446 578 q 402 346 417 417 q 375 226 388 275 q 330 89 356 149 q 269 0 304 29 q 420 -15 343 -6 q 579 -26 497 -24 q 481 -85 529 -74 q 401 -97 433 -97 q 263 -98 322 -97 q 156 -101 204 -99 q 63 -108 108 -103 q -35 -122 18 -114 m 258 -285 q 185 -256 213 -285 q 157 -185 157 -228 q 189 -109 157 -139 q 263 -75 221 -79 q 231 -109 243 -89 q 219 -156 219 -129 q 235 -196 219 -178 q 281 -214 250 -214 q 321 -207 303 -214 q 357 -187 339 -200 q 328 -259 356 -233 q 258 -285 301 -285 z "},"":{"ha":678,"x_min":-35,"x_max":810,"o":"m -35 -122 q 3 -40 -29 -65 q 88 -6 36 -14 q 200 1 140 1 q 249 131 225 56 q 294 293 272 207 q 338 469 317 379 q 377 644 358 560 q 413 796 396 728 q 444 907 429 864 q 319 902 372 906 q 219 892 265 899 q 121 875 172 885 q 204 969 133 939 q 419 999 275 999 q 569 993 492 999 q 710 981 646 988 q 810 968 774 974 q 727 918 767 928 q 657 908 688 908 q 576 908 613 908 q 507 907 540 908 q 487 801 499 867 q 460 656 475 735 q 431 497 446 578 q 402 346 417 417 q 375 226 388 275 q 330 89 356 149 q 269 0 304 29 q 420 -15 343 -6 q 579 -26 497 -24 q 481 -85 529 -74 q 401 -97 433 -97 q 263 -98 322 -97 q 156 -101 204 -99 q 63 -108 108 -103 q -35 -122 18 -114 m 618 1050 q 538 1067 579 1050 q 456 1099 497 1083 q 376 1115 415 1115 q 335 1112 356 1115 q 292 1097 314 1108 q 344 1156 313 1138 q 415 1175 375 1175 q 495 1158 454 1175 q 578 1125 536 1142 q 664 1108 621 1108 q 733 1121 699 1108 q 685 1067 713 1085 q 618 1050 657 1050 z "},"":{"ha":597,"x_min":-31,"x_max":747,"o":"m 132 -119 q 59 -106 97 -119 q -5 -53 21 -93 q -31 65 -31 -14 q -18 175 -31 121 q 19 266 -6 229 q 81 303 44 303 q 129 289 99 303 q 90 167 103 224 q 76 65 76 111 q 100 -25 76 8 q 164 -58 124 -58 q 226 -28 197 -58 q 283 82 254 3 q 329 226 306 142 q 376 408 353 311 q 422 599 400 504 q 460 776 443 694 q 488 914 478 858 q 370 910 419 914 q 281 901 321 907 q 196 883 240 894 q 262 970 204 943 q 438 997 319 997 q 555 992 494 997 q 667 979 615 986 q 747 967 719 972 q 689 924 726 933 q 626 915 651 915 q 579 915 603 915 q 540 914 556 914 q 557 886 551 903 q 563 857 563 869 q 553 778 563 839 q 525 630 543 717 q 483 445 507 543 q 431 253 460 347 q 368 86 401 160 q 294 -40 332 6 q 215 -102 256 -85 q 132 -119 174 -119 m 675 1033 q 630 1099 654 1072 q 575 1153 606 1125 q 501 1121 535 1139 q 432 1078 467 1103 q 419 1096 424 1085 q 415 1113 415 1107 q 434 1154 415 1133 q 481 1193 453 1175 q 535 1222 508 1211 q 576 1233 561 1233 q 615 1219 593 1233 q 658 1181 638 1204 q 692 1131 679 1157 q 706 1083 706 1106 q 699 1056 706 1069 q 675 1033 693 1042 z "},"":{"ha":863,"x_min":54,"x_max":876,"o":"m 731 -121 q 657 -86 699 -121 q 568 6 615 -51 q 476 131 521 63 q 391 267 431 199 q 324 389 351 335 l 194 -28 q 160 -75 185 -61 q 108 -92 136 -89 q 54 -96 81 -96 q 92 -5 72 -54 q 135 115 111 44 q 194 284 160 185 q 276 524 228 383 q 393 857 325 665 q 403 885 396 867 q 410 919 410 904 q 403 941 410 933 q 381 949 397 949 q 317 922 347 949 q 264 856 288 896 q 226 775 240 817 q 213 701 213 733 q 224 643 213 672 q 146 668 169 643 q 122 731 122 693 q 151 825 122 778 q 225 912 181 872 q 319 976 269 951 q 411 1000 369 1000 q 468 976 454 1000 q 482 924 482 951 q 479 894 482 908 q 472 867 476 881 l 365 518 q 406 553 382 535 q 469 601 429 571 q 613 725 542 658 q 747 863 685 792 q 854 1003 810 935 q 872 968 868 990 q 876 932 876 946 q 841 838 876 889 q 749 733 806 788 q 624 626 692 679 q 488 526 556 572 q 367 446 421 481 q 451 315 410 376 q 540 193 492 253 q 655 69 589 133 q 813 -67 721 6 q 778 -105 801 -89 q 731 -121 754 -121 m 328 -358 q 304 -333 313 -349 q 296 -300 296 -318 q 308 -238 296 -272 q 341 -180 321 -204 q 382 -156 361 -156 q 411 -169 399 -156 q 424 -199 424 -182 q 369 -274 388 -237 q 328 -358 351 -311 z "},"":{"ha":1426,"x_min":-93,"x_max":1575,"o":"m 588 -121 q 474 -100 538 -121 q 345 -50 411 -79 q 215 7 279 -21 q 142 -53 181 -32 q 57 -74 103 -74 q -24 -52 10 -74 q -76 -1 -58 -31 q -93 53 -93 29 q -69 99 -93 79 q 17 119 -44 119 q 98 112 53 119 q 190 92 143 104 q 250 224 222 147 q 304 384 278 300 q 358 550 331 468 q 253 614 290 572 q 215 700 215 656 q 228 754 215 728 q 265 799 242 781 q 322 817 289 817 q 302 770 307 797 q 297 725 297 743 q 319 644 297 676 q 372 592 340 611 q 428 746 399 672 q 495 876 458 819 q 576 967 532 933 q 676 1000 621 1000 q 741 987 707 1000 q 799 942 775 974 q 824 853 824 911 q 803 751 824 806 q 742 648 783 697 q 634 566 700 599 q 476 532 568 533 q 470 532 474 532 q 458 532 467 532 q 402 366 432 450 q 338 206 372 282 q 265 71 304 129 q 388 34 322 54 q 519 1 454 14 q 633 -12 583 -12 q 692 -6 665 -12 q 747 15 719 1 q 683 -89 722 -57 q 588 -121 643 -121 m 46 -26 q 104 -10 81 -26 q 150 32 128 7 q 69 60 107 49 q 0 71 31 71 q -37 62 -26 71 q -49 39 -49 53 q -21 -5 -49 17 q 46 -26 7 -26 m 472 571 q 582 608 533 574 q 665 694 631 643 q 716 797 699 744 q 733 888 733 849 q 719 939 733 925 q 686 953 706 953 q 609 900 646 953 q 539 760 572 847 q 472 571 506 674 m 960 -119 q 887 -106 925 -119 q 823 -53 849 -93 q 797 65 797 -14 q 810 175 797 121 q 847 266 822 229 q 908 303 872 303 q 957 289 926 303 q 917 167 931 224 q 904 65 904 111 q 928 -25 904 8 q 992 -58 951 -58 q 1053 -28 1025 -58 q 1111 82 1082 3 q 1157 226 1133 142 q 1204 408 1181 311 q 1249 599 1228 504 q 1288 776 1271 694 q 1315 914 1306 858 q 1198 910 1247 914 q 1108 901 1149 907 q 1024 883 1068 894 q 1090 970 1032 943 q 1265 997 1147 997 q 1383 992 1322 997 q 1495 979 1443 986 q 1575 967 1547 972 q 1517 924 1554 933 q 1454 915 1479 915 q 1407 915 1431 915 q 1368 914 1383 914 q 1385 886 1379 903 q 1390 857 1390 869 q 1381 778 1390 839 q 1353 630 1371 717 q 1311 445 1335 543 q 1258 253 1288 347 q 1196 86 1229 160 q 1122 -40 1160 6 q 1042 -102 1083 -85 q 960 -119 1001 -119 z "},"":{"ha":828,"x_min":-93,"x_max":893,"o":"m 588 -121 q 474 -100 538 -121 q 345 -50 411 -79 q 215 7 279 -21 q 142 -53 181 -32 q 57 -74 103 -74 q -24 -52 10 -74 q -76 -1 -58 -31 q -93 53 -93 29 q -69 99 -93 79 q 17 119 -44 119 q 98 112 53 119 q 190 92 143 104 q 250 224 222 147 q 304 384 278 300 q 358 550 331 468 q 253 614 290 572 q 215 700 215 656 q 228 754 215 728 q 265 799 242 781 q 322 817 289 817 q 302 770 307 797 q 297 725 297 743 q 319 644 297 676 q 372 592 340 611 q 428 746 399 672 q 495 876 458 819 q 576 967 532 933 q 676 1000 621 1000 q 741 987 707 1000 q 799 942 775 974 q 824 853 824 911 q 803 751 824 806 q 742 648 783 697 q 634 566 700 599 q 476 532 568 533 q 470 532 474 532 q 458 532 467 532 q 402 366 432 450 q 338 206 372 282 q 265 71 304 129 q 388 34 322 54 q 519 1 454 14 q 633 -12 583 -12 q 692 -6 665 -12 q 747 15 719 1 q 683 -89 722 -57 q 588 -121 643 -121 m 46 -26 q 104 -10 81 -26 q 150 32 128 7 q 69 60 107 49 q 0 71 31 71 q -37 62 -26 71 q -49 39 -49 53 q -21 -5 -49 17 q 46 -26 7 -26 m 472 571 q 582 608 533 574 q 665 694 631 643 q 716 797 699 744 q 733 888 733 849 q 719 939 733 925 q 686 953 706 953 q 609 900 646 953 q 539 760 572 847 q 472 571 506 674 m 740 1039 q 718 1060 725 1046 q 711 1082 711 1075 q 725 1119 711 1093 q 761 1174 739 1146 q 808 1224 783 1203 q 854 1244 833 1244 q 879 1234 868 1244 q 893 1197 890 1224 q 806 1115 843 1151 q 740 1039 769 1078 z "},"":{"ha":828,"x_min":-93,"x_max":1019,"o":"m 588 -121 q 474 -100 538 -121 q 345 -50 411 -79 q 215 7 279 -21 q 142 -53 181 -32 q 57 -74 103 -74 q -24 -52 10 -74 q -76 -1 -58 -31 q -93 53 -93 29 q -69 99 -93 79 q 17 119 -44 119 q 98 112 53 119 q 190 92 143 104 q 250 224 222 147 q 304 384 278 300 q 358 550 331 468 q 253 614 290 572 q 215 700 215 656 q 228 754 215 728 q 265 799 242 781 q 322 817 289 817 q 302 770 307 797 q 297 725 297 743 q 319 644 297 676 q 372 592 340 611 q 428 746 399 672 q 495 876 458 819 q 576 967 532 933 q 676 1000 621 1000 q 741 987 707 1000 q 799 942 775 974 q 824 853 824 911 q 803 751 824 806 q 742 648 783 697 q 634 566 700 599 q 476 532 568 533 q 470 532 474 532 q 458 532 467 532 q 402 366 432 450 q 338 206 372 282 q 265 71 304 129 q 388 34 322 54 q 519 1 454 14 q 633 -12 583 -12 q 692 -6 665 -12 q 747 15 719 1 q 683 -89 722 -57 q 588 -121 643 -121 m 46 -26 q 104 -10 81 -26 q 150 32 128 7 q 69 60 107 49 q 0 71 31 71 q -37 62 -26 71 q -49 39 -49 53 q -21 -5 -49 17 q 46 -26 7 -26 m 472 571 q 582 608 533 574 q 665 694 631 643 q 716 797 699 744 q 733 888 733 849 q 719 939 733 925 q 686 953 706 953 q 609 900 646 953 q 539 760 572 847 q 472 571 506 674 m 907 772 q 881 783 893 772 q 868 814 868 793 q 888 874 868 842 q 938 931 908 907 q 994 956 968 956 q 1019 946 1008 956 q 971 865 994 910 q 932 779 947 819 q 907 772 922 772 z "},"":{"ha":828,"x_min":-93,"x_max":824,"o":"m 588 -121 q 474 -100 538 -121 q 345 -50 411 -79 q 215 7 279 -21 q 142 -53 181 -32 q 57 -74 103 -74 q -24 -52 10 -74 q -76 -1 -58 -31 q -93 53 -93 29 q -69 99 -93 79 q 17 119 -44 119 q 98 112 53 119 q 190 92 143 104 q 250 224 222 147 q 304 384 278 300 q 358 550 331 468 q 253 614 290 572 q 215 700 215 656 q 228 754 215 728 q 265 799 242 781 q 322 817 289 817 q 302 770 307 797 q 297 725 297 743 q 319 644 297 676 q 372 592 340 611 q 428 746 399 672 q 495 876 458 819 q 576 967 532 933 q 676 1000 621 1000 q 741 987 707 1000 q 799 942 775 974 q 824 853 824 911 q 803 751 824 806 q 742 648 783 697 q 634 566 700 599 q 476 532 568 533 q 470 532 474 532 q 458 532 467 532 q 402 366 432 450 q 338 206 372 282 q 265 71 304 129 q 388 34 322 54 q 519 1 454 14 q 633 -12 583 -12 q 692 -6 665 -12 q 747 15 719 1 q 683 -89 722 -57 q 588 -121 643 -121 m 46 -26 q 104 -10 81 -26 q 150 32 128 7 q 69 60 107 49 q 0 71 31 71 q -37 62 -26 71 q -49 39 -49 53 q -21 -5 -49 17 q 46 -26 7 -26 m 472 571 q 582 608 533 574 q 665 694 631 643 q 716 797 699 744 q 733 888 733 849 q 719 939 733 925 q 686 953 706 953 q 609 900 646 953 q 539 760 572 847 q 472 571 506 674 m 214 -336 q 190 -311 199 -326 q 182 -278 182 -296 q 194 -216 182 -250 q 227 -158 207 -182 q 268 -133 247 -133 q 297 -147 285 -133 q 310 -176 310 -160 q 256 -252 274 -215 q 214 -336 238 -289 z "},"":{"ha":828,"x_min":-93,"x_max":824,"o":"m 588 -121 q 474 -100 538 -121 q 345 -50 411 -79 q 215 7 279 -21 q 142 -53 181 -32 q 57 -74 103 -74 q -24 -52 10 -74 q -76 -1 -58 -31 q -93 53 -93 29 q -69 99 -93 79 q 17 119 -44 119 q 98 112 53 119 q 190 92 143 104 q 250 224 222 147 q 304 384 278 300 q 358 550 331 468 q 253 614 290 572 q 215 700 215 656 q 228 754 215 728 q 265 799 242 781 q 322 817 289 817 q 302 770 307 797 q 297 725 297 743 q 319 644 297 676 q 372 592 340 611 q 428 746 399 672 q 495 876 458 819 q 576 967 532 933 q 676 1000 621 1000 q 741 987 707 1000 q 799 942 775 974 q 824 853 824 911 q 803 751 824 806 q 742 648 783 697 q 634 566 700 599 q 476 532 568 533 q 470 532 474 532 q 458 532 467 532 q 402 366 432 450 q 338 206 372 282 q 265 71 304 129 q 388 34 322 54 q 519 1 454 14 q 633 -12 583 -12 q 692 -6 665 -12 q 747 15 719 1 q 683 -89 722 -57 q 588 -121 643 -121 m 46 -26 q 104 -10 81 -26 q 150 32 128 7 q 69 60 107 49 q 0 71 31 71 q -37 62 -26 71 q -49 39 -49 53 q -21 -5 -49 17 q 46 -26 7 -26 m 472 571 q 582 608 533 574 q 665 694 631 643 q 716 797 699 744 q 733 888 733 849 q 719 939 733 925 q 686 953 706 953 q 609 900 646 953 q 539 760 572 847 q 472 571 506 674 m 664 324 q 624 338 636 324 q 611 371 611 351 q 625 401 611 386 q 659 425 639 415 q 697 435 679 435 q 726 427 713 435 q 740 397 740 419 q 730 367 740 385 q 703 337 719 350 q 664 324 686 324 z "},"":{"ha":1139,"x_min":-93,"x_max":1192,"o":"m 588 -121 q 474 -100 538 -121 q 345 -50 411 -79 q 215 7 279 -21 q 142 -53 181 -32 q 57 -74 103 -74 q -24 -52 10 -74 q -76 -1 -58 -31 q -93 53 -93 29 q -69 99 -93 79 q 17 119 -44 119 q 98 112 53 119 q 190 92 143 104 q 250 224 222 147 q 304 384 278 300 q 358 550 331 468 q 253 614 290 572 q 215 700 215 656 q 228 754 215 728 q 265 799 242 781 q 322 817 289 817 q 302 770 307 797 q 297 725 297 743 q 319 644 297 676 q 372 592 340 611 q 428 746 399 672 q 495 876 458 819 q 576 967 532 933 q 676 1000 621 1000 q 741 987 707 1000 q 799 942 775 974 q 824 853 824 911 q 803 751 824 806 q 742 648 783 697 q 634 566 700 599 q 476 532 568 533 q 470 532 474 532 q 458 532 467 532 q 402 366 432 450 q 338 206 372 282 q 265 71 304 129 q 388 34 322 54 q 519 1 454 14 q 633 -12 583 -12 q 692 -6 665 -12 q 747 15 719 1 q 683 -89 722 -57 q 588 -121 643 -121 m 46 -26 q 104 -10 81 -26 q 150 32 128 7 q 69 60 107 49 q 0 71 31 71 q -37 62 -26 71 q -49 39 -49 53 q -21 -5 -49 17 q 46 -26 7 -26 m 472 571 q 582 608 533 574 q 665 694 631 643 q 716 797 699 744 q 733 888 733 849 q 719 939 733 925 q 686 953 706 953 q 609 900 646 953 q 539 760 572 847 q 472 571 506 674 m 639 -389 q 578 -367 600 -389 q 557 -311 557 -344 q 606 -199 557 -257 q 733 -94 656 -140 q 778 -72 756 -83 q 826 -50 801 -61 q 873 87 851 11 q 911 253 894 163 q 881 204 896 226 q 857 163 867 182 l 836 194 q 881 291 861 240 q 917 385 900 342 q 954 457 935 429 q 997 485 974 485 q 1026 471 1015 485 q 1038 436 1038 457 q 1031 379 1038 421 q 1010 276 1024 338 q 978 144 997 215 q 933 1 958 74 q 1013 51 974 25 q 1091 117 1051 76 q 1169 226 1131 158 l 1192 213 q 1103 77 1151 125 q 1006 1 1054 29 q 914 -53 957 -26 q 842 -215 883 -137 q 749 -340 800 -292 q 639 -389 697 -389 m 625 -329 q 699 -274 650 -329 q 800 -112 749 -219 q 654 -212 703 -161 q 606 -301 606 -262 q 611 -323 606 -317 q 625 -329 617 -329 m 1019 594 q 974 607 994 594 q 954 644 954 619 q 972 686 954 668 q 1015 715 989 704 q 1064 725 1040 725 q 1101 714 1086 725 q 1117 679 1117 703 q 1087 620 1117 646 q 1019 594 1057 594 z "},"":{"ha":829,"x_min":-93,"x_max":747,"o":"m 588 -121 q 474 -100 538 -121 q 345 -50 411 -79 q 215 7 279 -21 q 142 -53 181 -32 q 57 -74 103 -74 q -24 -52 10 -74 q -76 -1 -58 -31 q -93 53 -93 29 q -69 99 -93 79 q 17 119 -44 119 q 98 112 53 119 q 190 92 143 104 q 245 211 218 139 q 299 369 272 283 q 354 543 326 456 q 435 758 394 671 q 515 899 475 846 q 598 976 556 953 q 686 1000 640 1000 q 564 809 618 931 q 458 531 510 688 q 407 383 432 451 q 359 256 382 314 q 313 153 336 199 q 265 71 290 107 q 388 34 322 54 q 519 1 454 14 q 633 -12 583 -12 q 692 -6 665 -12 q 747 15 719 1 q 683 -89 722 -57 q 588 -121 643 -121 m 46 -26 q 104 -10 81 -26 q 150 32 128 7 q 69 60 107 49 q 0 71 31 71 q -37 62 -26 71 q -49 39 -49 53 q -21 -5 -49 17 q 46 -26 7 -26 m 174 460 q 242 532 183 506 q 399 571 300 558 q 624 583 497 583 q 683 582 651 583 q 729 578 714 581 q 711 538 729 550 q 648 519 693 525 q 518 506 603 514 q 391 494 443 500 q 290 481 339 489 q 174 460 240 474 z "},"":{"ha":1515,"x_min":74,"x_max":1664,"o":"m 74 -121 q 119 30 93 -53 q 179 225 144 113 q 260 492 214 338 q 368 857 307 646 q 374 879 369 863 q 378 913 378 896 q 374 930 378 924 q 358 936 369 936 q 300 912 328 936 q 251 851 272 888 q 217 774 229 814 q 204 703 204 735 q 215 643 204 672 q 137 668 160 643 q 114 731 114 693 q 143 825 114 778 q 217 912 172 872 q 310 976 261 951 q 399 1000 358 1000 q 474 965 444 1000 q 523 868 504 929 q 555 729 542 807 q 579 565 568 651 q 603 402 593 469 q 619 288 613 335 q 632 207 626 242 q 643 139 638 172 q 675 281 657 204 q 713 440 693 358 q 752 598 732 521 q 792 742 772 675 q 828 857 811 808 q 857 929 844 906 q 894 976 868 950 q 961 1001 921 1001 q 908 845 938 938 q 847 645 878 753 q 788 426 817 538 q 737 210 760 314 q 701 19 714 106 q 688 -121 688 -67 q 608 -97 639 -121 q 563 -4 578 -72 q 546 82 557 24 q 522 217 535 140 q 494 376 508 293 q 467 540 481 460 q 443 685 454 621 q 425 788 432 750 q 316 394 361 556 q 238 133 271 233 q 178 -24 204 32 q 128 -100 153 -79 q 74 -121 103 -121 m 1050 -119 q 977 -106 1015 -119 q 913 -53 939 -93 q 888 65 888 -14 q 900 175 888 121 q 938 266 913 229 q 999 303 963 303 q 1047 289 1017 303 q 1008 167 1021 224 q 994 65 994 111 q 1018 -25 994 8 q 1082 -58 1042 -58 q 1144 -28 1115 -58 q 1201 82 1172 3 q 1247 226 1224 142 q 1294 408 1271 311 q 1340 599 1318 504 q 1378 776 1361 694 q 1406 914 1396 858 q 1288 910 1338 914 q 1199 901 1239 907 q 1114 883 1158 894 q 1180 970 1122 943 q 1356 997 1238 997 q 1473 992 1413 997 q 1585 979 1533 986 q 1665 967 1638 972 q 1607 924 1644 933 q 1544 915 1569 915 q 1497 915 1521 915 q 1458 914 1474 914 q 1475 886 1469 903 q 1481 857 1481 869 q 1471 778 1481 839 q 1443 630 1461 717 q 1401 445 1425 543 q 1349 253 1378 347 q 1286 86 1319 160 q 1212 -40 1250 6 q 1133 -102 1174 -85 q 1050 -119 1092 -119 z "},"":{"ha":919,"x_min":74,"x_max":961,"o":"m 74 -121 q 119 30 93 -53 q 179 225 144 113 q 260 492 214 338 q 368 857 307 646 q 374 879 369 863 q 378 913 378 896 q 374 930 378 924 q 358 936 369 936 q 300 912 328 936 q 251 851 272 888 q 217 774 229 814 q 204 703 204 735 q 215 643 204 672 q 137 668 160 643 q 114 731 114 693 q 143 825 114 778 q 217 912 172 872 q 310 976 261 951 q 399 1000 358 1000 q 474 965 444 1000 q 523 868 504 929 q 555 729 542 807 q 579 565 568 651 q 603 402 593 469 q 619 288 613 335 q 632 207 626 242 q 643 139 638 172 q 675 281 657 204 q 713 440 693 358 q 752 598 732 521 q 792 742 772 675 q 828 857 811 808 q 857 929 844 906 q 894 976 868 950 q 961 1001 921 1001 q 908 845 938 938 q 847 645 878 753 q 788 426 817 538 q 737 210 760 314 q 701 19 714 106 q 688 -121 688 -67 q 608 -97 639 -121 q 563 -4 578 -72 q 546 82 557 24 q 522 217 535 140 q 494 376 508 293 q 467 540 481 460 q 443 685 454 621 q 425 788 432 750 q 316 394 361 556 q 238 133 271 233 q 178 -24 204 32 q 128 -100 153 -79 q 74 -121 103 -121 m 699 1039 q 676 1060 683 1046 q 669 1082 669 1075 q 683 1119 669 1093 q 719 1174 697 1146 q 767 1224 742 1203 q 813 1244 792 1244 q 838 1234 826 1244 q 851 1197 849 1224 q 765 1115 801 1151 q 699 1039 728 1078 z "},"":{"ha":919,"x_min":74,"x_max":961,"o":"m 74 -121 q 119 30 93 -53 q 179 225 144 113 q 260 492 214 338 q 368 857 307 646 q 374 879 369 863 q 378 913 378 896 q 374 930 378 924 q 358 936 369 936 q 300 912 328 936 q 251 851 272 888 q 217 774 229 814 q 204 703 204 735 q 215 643 204 672 q 137 668 160 643 q 114 731 114 693 q 143 825 114 778 q 217 912 172 872 q 310 976 261 951 q 399 1000 358 1000 q 474 965 444 1000 q 523 868 504 929 q 555 729 542 807 q 579 565 568 651 q 603 402 593 469 q 619 288 613 335 q 632 207 626 242 q 643 139 638 172 q 675 281 657 204 q 713 440 693 358 q 752 598 732 521 q 792 742 772 675 q 828 857 811 808 q 857 929 844 906 q 894 976 868 950 q 961 1001 921 1001 q 908 845 938 938 q 847 645 878 753 q 788 426 817 538 q 737 210 760 314 q 701 19 714 106 q 688 -121 688 -67 q 608 -97 639 -121 q 563 -4 578 -72 q 546 82 557 24 q 522 217 535 140 q 494 376 508 293 q 467 540 481 460 q 443 685 454 621 q 425 788 432 750 q 316 394 361 556 q 238 133 271 233 q 178 -24 204 32 q 128 -100 153 -79 q 74 -121 103 -121 m 678 1047 q 636 1063 660 1047 q 592 1105 613 1079 q 557 1158 571 1131 q 543 1210 543 1186 q 550 1238 543 1225 q 574 1257 557 1250 q 619 1186 594 1217 q 679 1124 644 1156 q 756 1160 721 1140 q 821 1206 792 1181 q 836 1190 831 1200 q 842 1171 842 1181 q 822 1128 842 1150 q 775 1088 803 1107 q 720 1058 747 1069 q 678 1047 693 1047 z "},"":{"ha":919,"x_min":74,"x_max":961,"o":"m 74 -121 q 119 30 93 -53 q 179 225 144 113 q 260 492 214 338 q 368 857 307 646 q 374 879 369 863 q 378 913 378 896 q 374 930 378 924 q 358 936 369 936 q 300 912 328 936 q 251 851 272 888 q 217 774 229 814 q 204 703 204 735 q 215 643 204 672 q 137 668 160 643 q 114 731 114 693 q 143 825 114 778 q 217 912 172 872 q 310 976 261 951 q 399 1000 358 1000 q 474 965 444 1000 q 523 868 504 929 q 555 729 542 807 q 579 565 568 651 q 603 402 593 469 q 619 288 613 335 q 632 207 626 242 q 643 139 638 172 q 675 281 657 204 q 713 440 693 358 q 752 598 732 521 q 792 742 772 675 q 828 857 811 808 q 857 929 844 906 q 894 976 868 950 q 961 1001 921 1001 q 908 845 938 938 q 847 645 878 753 q 788 426 817 538 q 737 210 760 314 q 701 19 714 106 q 688 -121 688 -67 q 608 -97 639 -121 q 563 -4 578 -72 q 546 82 557 24 q 522 217 535 140 q 494 376 508 293 q 467 540 481 460 q 443 685 454 621 q 425 788 432 750 q 316 394 361 556 q 238 133 271 233 q 178 -24 204 32 q 128 -100 153 -79 q 74 -121 103 -121 m 314 -325 q 290 -300 299 -315 q 282 -267 282 -285 q 294 -205 282 -239 q 327 -147 307 -171 q 368 -122 347 -122 q 397 -135 385 -122 q 410 -165 410 -149 q 356 -241 374 -204 q 314 -325 338 -278 z "},"":{"ha":951,"x_min":121,"x_max":931,"o":"m 343 -335 q 280 -326 304 -335 q 256 -306 256 -318 q 285 -292 256 -292 q 459 -236 385 -292 q 590 -76 533 -181 q 692 174 647 28 q 738 333 715 253 q 777 491 760 414 q 805 637 794 568 q 815 763 815 706 q 788 872 815 828 q 699 915 761 915 q 596 879 642 915 q 514 786 550 843 q 453 666 478 729 q 414 547 428 603 q 315 181 358 349 q 238 -137 271 14 q 163 -119 196 -137 q 129 -61 129 -100 q 143 25 129 -35 q 181 165 157 85 q 231 334 204 246 q 284 508 258 422 q 329 663 310 593 q 356 759 344 711 q 375 849 368 807 q 382 921 382 890 q 360 949 382 949 q 306 923 332 949 q 258 858 279 897 q 223 776 236 818 q 210 701 210 733 q 212 676 210 689 q 221 643 214 663 q 144 668 167 643 q 121 731 121 693 q 148 825 121 778 q 219 912 175 872 q 312 976 263 951 q 404 1000 361 1000 q 463 978 447 1000 q 479 926 479 956 q 470 856 479 900 q 446 763 461 811 q 569 923 497 863 q 739 983 640 983 q 881 928 832 983 q 931 779 931 874 q 919 642 931 719 q 890 482 908 565 q 849 317 871 399 q 806 167 826 236 q 732 -27 774 64 q 635 -187 690 -118 q 509 -296 581 -257 q 343 -335 438 -335 z "},"":{"ha":1214,"x_min":74,"x_max":1267,"o":"m 74 -121 q 119 30 93 -53 q 179 225 144 113 q 260 492 214 338 q 368 857 307 646 q 374 879 369 863 q 378 913 378 896 q 374 930 378 924 q 358 936 369 936 q 300 912 328 936 q 251 851 272 888 q 217 774 229 814 q 204 703 204 735 q 215 643 204 672 q 137 668 160 643 q 114 731 114 693 q 143 825 114 778 q 217 912 172 872 q 310 976 261 951 q 399 1000 358 1000 q 474 965 444 1000 q 523 868 504 929 q 555 729 542 807 q 579 565 568 651 q 603 402 593 469 q 619 288 613 335 q 632 207 626 242 q 643 139 638 172 q 675 281 657 204 q 713 440 693 358 q 752 598 732 521 q 792 742 772 675 q 828 857 811 808 q 857 929 844 906 q 894 976 868 950 q 961 1001 921 1001 q 908 845 938 938 q 847 645 878 753 q 788 426 817 538 q 737 210 760 314 q 701 19 714 106 q 688 -121 688 -67 q 608 -97 639 -121 q 563 -4 578 -72 q 546 82 557 24 q 522 217 535 140 q 494 376 508 293 q 467 540 481 460 q 443 685 454 621 q 425 788 432 750 q 316 394 361 556 q 238 133 271 233 q 178 -24 204 32 q 128 -100 153 -79 q 74 -121 103 -121 m 714 -389 q 653 -367 675 -389 q 632 -311 632 -344 q 681 -199 632 -257 q 808 -94 731 -140 q 853 -72 831 -83 q 901 -50 876 -61 q 948 87 926 11 q 986 253 969 163 q 956 204 971 226 q 932 163 942 182 l 911 194 q 956 291 936 240 q 992 385 975 342 q 1029 457 1010 429 q 1072 485 1049 485 q 1101 471 1090 485 q 1113 436 1113 457 q 1106 379 1113 421 q 1085 276 1099 338 q 1053 144 1072 215 q 1008 1 1033 74 q 1088 51 1049 25 q 1166 117 1126 76 q 1244 226 1206 158 l 1267 213 q 1178 77 1226 125 q 1081 1 1129 29 q 989 -53 1032 -26 q 917 -215 958 -137 q 824 -340 875 -292 q 714 -389 772 -389 m 700 -329 q 774 -274 725 -329 q 875 -112 824 -219 q 729 -212 778 -161 q 681 -301 681 -262 q 686 -323 681 -317 q 700 -329 692 -329 m 1094 594 q 1049 607 1069 594 q 1029 644 1029 619 q 1047 686 1029 668 q 1090 715 1064 704 q 1139 725 1115 725 q 1176 714 1161 725 q 1192 679 1192 703 q 1162 620 1192 646 q 1094 594 1132 594 z "},"":{"ha":919,"x_min":74,"x_max":961,"o":"m 74 -121 q 119 30 93 -53 q 179 225 144 113 q 260 492 214 338 q 368 857 307 646 q 374 879 369 863 q 378 913 378 896 q 374 930 378 924 q 358 936 369 936 q 300 912 328 936 q 251 851 272 888 q 217 774 229 814 q 204 703 204 735 q 215 643 204 672 q 137 668 160 643 q 114 731 114 693 q 143 825 114 778 q 217 912 172 872 q 310 976 261 951 q 399 1000 358 1000 q 474 965 444 1000 q 523 868 504 929 q 555 729 542 807 q 579 565 568 651 q 603 402 593 469 q 619 288 613 335 q 632 207 626 242 q 643 139 638 172 q 675 281 657 204 q 713 440 693 358 q 752 598 732 521 q 792 742 772 675 q 828 857 811 808 q 857 929 844 906 q 894 976 868 950 q 961 1001 921 1001 q 908 845 938 938 q 847 645 878 753 q 788 426 817 538 q 737 210 760 314 q 701 19 714 106 q 688 -121 688 -67 q 608 -97 639 -121 q 563 -4 578 -72 q 546 82 557 24 q 522 217 535 140 q 494 376 508 293 q 467 540 481 460 q 443 685 454 621 q 425 788 432 750 q 316 394 361 556 q 238 133 271 233 q 178 -24 204 32 q 128 -100 153 -79 q 74 -121 103 -121 m 806 1051 q 726 1068 767 1051 q 644 1101 685 1085 q 564 1117 603 1117 q 522 1113 543 1117 q 479 1099 501 1110 q 531 1158 500 1139 q 603 1176 563 1176 q 683 1160 642 1176 q 766 1126 724 1143 q 851 1110 808 1110 q 921 1122 886 1110 q 872 1069 900 1086 q 806 1051 844 1051 z "},"":{"ha":894,"x_min":39,"x_max":900,"o":"m 322 -121 q 178 -78 242 -121 q 76 42 114 -36 q 39 226 39 119 q 73 442 39 333 q 165 651 107 551 q 300 830 224 751 q 462 953 376 908 q 636 999 547 999 q 679 994 654 999 q 726 967 704 989 q 710 969 718 968 q 694 969 703 969 q 549 923 622 969 q 408 799 475 876 q 290 623 342 721 q 207 419 238 525 q 176 214 176 314 q 195 78 176 142 q 257 -23 214 15 q 368 -61 300 -61 q 513 -15 446 -61 q 634 111 579 32 q 728 287 689 190 q 788 487 767 383 q 808 683 808 590 q 803 769 808 724 q 784 848 797 815 q 746 881 771 881 q 694 851 722 881 q 639 774 665 821 q 592 677 613 728 q 564 586 572 626 q 502 616 521 596 q 483 663 483 636 q 510 746 483 700 q 577 834 536 792 q 663 904 618 876 q 747 932 708 932 q 812 903 788 932 q 850 828 836 874 q 869 733 864 783 q 875 638 875 682 q 840 373 875 493 q 747 161 806 253 q 617 6 689 69 q 468 -89 544 -57 q 322 -121 392 -121 m 749 1039 q 726 1060 733 1046 q 719 1082 719 1075 q 733 1119 719 1093 q 769 1174 747 1146 q 817 1224 792 1203 q 863 1244 842 1244 q 888 1234 876 1244 q 901 1197 899 1224 q 815 1115 851 1151 q 749 1039 778 1078 z "},"":{"ha":894,"x_min":39,"x_max":933,"o":"m 322 -121 q 178 -78 242 -121 q 76 42 114 -36 q 39 226 39 119 q 73 442 39 333 q 165 651 107 551 q 300 830 224 751 q 462 953 376 908 q 636 999 547 999 q 679 994 654 999 q 726 967 704 989 q 710 969 718 968 q 694 969 703 969 q 549 923 622 969 q 408 799 475 876 q 290 623 342 721 q 207 419 238 525 q 176 214 176 314 q 195 78 176 142 q 257 -23 214 15 q 368 -61 300 -61 q 513 -15 446 -61 q 634 111 579 32 q 728 287 689 190 q 788 487 767 383 q 808 683 808 590 q 803 769 808 724 q 784 848 797 815 q 746 881 771 881 q 694 851 722 881 q 639 774 665 821 q 592 677 613 728 q 564 586 572 626 q 502 616 521 596 q 483 663 483 636 q 510 746 483 700 q 577 834 536 792 q 663 904 618 876 q 747 932 708 932 q 812 903 788 932 q 850 828 836 874 q 869 733 864 783 q 875 638 875 682 q 840 373 875 493 q 747 161 806 253 q 617 6 689 69 q 468 -89 544 -57 q 322 -121 392 -121 m 785 1053 q 696 1075 729 1053 q 648 1127 663 1097 q 633 1183 633 1157 q 643 1225 633 1208 q 671 1251 653 1242 q 703 1172 676 1208 q 788 1135 731 1135 q 869 1159 839 1135 q 917 1208 900 1183 q 930 1186 926 1199 q 933 1164 933 1174 q 888 1085 933 1117 q 785 1053 843 1053 z "},"":{"ha":894,"x_min":39,"x_max":904,"o":"m 322 -121 q 178 -78 242 -121 q 76 42 114 -36 q 39 226 39 119 q 73 442 39 333 q 165 651 107 551 q 300 830 224 751 q 462 953 376 908 q 636 999 547 999 q 679 994 654 999 q 726 967 704 989 q 710 969 718 968 q 694 969 703 969 q 549 923 622 969 q 408 799 475 876 q 290 623 342 721 q 207 419 238 525 q 176 214 176 314 q 195 78 176 142 q 257 -23 214 15 q 368 -61 300 -61 q 513 -15 446 -61 q 634 111 579 32 q 728 287 689 190 q 788 487 767 383 q 808 683 808 590 q 803 769 808 724 q 784 848 797 815 q 746 881 771 881 q 694 851 722 881 q 639 774 665 821 q 592 677 613 728 q 564 586 572 626 q 502 616 521 596 q 483 663 483 636 q 510 746 483 700 q 577 834 536 792 q 663 904 618 876 q 747 932 708 932 q 812 903 788 932 q 850 828 836 874 q 869 733 864 783 q 875 638 875 682 q 840 373 875 493 q 747 161 806 253 q 617 6 689 69 q 468 -89 544 -57 q 322 -121 392 -121 m 872 1033 q 827 1099 851 1072 q 772 1153 803 1125 q 698 1121 732 1139 q 629 1078 664 1103 q 617 1096 621 1085 q 613 1113 613 1107 q 631 1154 613 1133 q 678 1193 650 1175 q 732 1222 706 1211 q 774 1233 758 1233 q 813 1219 790 1233 q 856 1181 835 1204 q 890 1131 876 1157 q 903 1083 903 1106 q 897 1056 903 1069 q 872 1033 890 1042 z "},"":{"ha":894,"x_min":39,"x_max":1067,"o":"m 322 -121 q 178 -78 242 -121 q 76 42 114 -36 q 39 226 39 119 q 73 442 39 333 q 165 651 107 551 q 300 830 224 751 q 462 953 376 908 q 636 999 547 999 q 679 994 654 999 q 726 967 704 989 q 710 969 718 968 q 694 969 703 969 q 549 923 622 969 q 408 799 475 876 q 290 623 342 721 q 207 419 238 525 q 176 214 176 314 q 195 78 176 142 q 257 -23 214 15 q 368 -61 300 -61 q 513 -15 446 -61 q 634 111 579 32 q 728 287 689 190 q 788 487 767 383 q 808 683 808 590 q 803 769 808 724 q 784 848 797 815 q 746 881 771 881 q 694 851 722 881 q 639 774 665 821 q 592 677 613 728 q 564 586 572 626 q 502 616 521 596 q 483 663 483 636 q 510 746 483 700 q 577 834 536 792 q 663 904 618 876 q 747 932 708 932 q 812 903 788 932 q 850 828 836 874 q 869 733 864 783 q 875 638 875 682 q 840 373 875 493 q 747 161 806 253 q 617 6 689 69 q 468 -89 544 -57 q 322 -121 392 -121 m 933 1168 q 909 1187 917 1175 q 901 1213 901 1199 q 914 1248 901 1225 q 946 1294 926 1271 q 988 1334 965 1318 q 1029 1350 1010 1350 q 1053 1340 1043 1350 q 1067 1303 1064 1331 q 1023 1264 1047 1288 q 975 1215 999 1240 q 933 1168 951 1189 m 872 1033 q 827 1099 851 1072 q 772 1153 803 1125 q 698 1121 732 1139 q 629 1078 664 1103 q 617 1096 621 1085 q 613 1113 613 1107 q 631 1154 613 1133 q 678 1193 650 1175 q 732 1222 706 1211 q 774 1233 758 1233 q 813 1219 790 1233 q 856 1181 835 1204 q 890 1131 876 1157 q 903 1083 903 1106 q 897 1056 903 1069 q 872 1033 890 1042 z "},"":{"ha":894,"x_min":39,"x_max":904,"o":"m 322 -121 q 178 -78 242 -121 q 76 42 114 -36 q 39 226 39 119 q 73 442 39 333 q 165 651 107 551 q 300 830 224 751 q 462 953 376 908 q 636 999 547 999 q 679 994 654 999 q 726 967 704 989 q 710 969 718 968 q 694 969 703 969 q 549 923 622 969 q 408 799 475 876 q 290 623 342 721 q 207 419 238 525 q 176 214 176 314 q 195 78 176 142 q 257 -23 214 15 q 368 -61 300 -61 q 513 -15 446 -61 q 634 111 579 32 q 728 287 689 190 q 788 487 767 383 q 808 683 808 590 q 803 769 808 724 q 784 848 797 815 q 746 881 771 881 q 694 851 722 881 q 639 774 665 821 q 592 677 613 728 q 564 586 572 626 q 502 616 521 596 q 483 663 483 636 q 510 746 483 700 q 577 834 536 792 q 663 904 618 876 q 747 932 708 932 q 812 903 788 932 q 850 828 836 874 q 869 733 864 783 q 875 638 875 682 q 840 373 875 493 q 747 161 806 253 q 617 6 689 69 q 468 -89 544 -57 q 322 -121 392 -121 m 872 1033 q 827 1099 851 1072 q 772 1153 803 1125 q 698 1121 732 1139 q 629 1078 664 1103 q 617 1096 621 1085 q 613 1113 613 1107 q 631 1154 613 1133 q 678 1193 650 1175 q 732 1222 706 1211 q 774 1233 758 1233 q 813 1219 790 1233 q 856 1181 835 1204 q 890 1131 876 1157 q 903 1083 903 1106 q 897 1056 903 1069 q 872 1033 890 1042 m 254 -353 q 211 -340 228 -353 q 194 -301 194 -326 q 225 -250 194 -269 q 288 -231 256 -231 q 328 -244 315 -231 q 342 -279 342 -257 q 314 -331 342 -308 q 254 -353 286 -353 z "},"":{"ha":894,"x_min":39,"x_max":981,"o":"m 322 -121 q 178 -78 242 -121 q 76 42 114 -36 q 39 226 39 119 q 73 442 39 333 q 165 651 107 551 q 300 830 224 751 q 462 953 376 908 q 636 999 547 999 q 679 994 654 999 q 726 967 704 989 q 710 969 718 968 q 694 969 703 969 q 549 923 622 969 q 408 799 475 876 q 290 623 342 721 q 207 419 238 525 q 176 214 176 314 q 195 78 176 142 q 257 -23 214 15 q 368 -61 300 -61 q 513 -15 446 -61 q 634 111 579 32 q 728 287 689 190 q 788 487 767 383 q 808 683 808 590 q 803 769 808 724 q 784 848 797 815 q 746 881 771 881 q 694 851 722 881 q 639 774 665 821 q 592 677 613 728 q 564 586 572 626 q 502 616 521 596 q 483 663 483 636 q 510 746 483 700 q 577 834 536 792 q 663 904 618 876 q 747 932 708 932 q 812 903 788 932 q 850 828 836 874 q 869 733 864 783 q 875 638 875 682 q 840 373 875 493 q 747 161 806 253 q 617 6 689 69 q 468 -89 544 -57 q 322 -121 392 -121 m 949 1164 q 915 1215 936 1188 q 873 1269 894 1243 q 833 1314 851 1296 q 848 1345 838 1338 q 872 1353 858 1353 q 910 1335 890 1353 q 944 1293 929 1318 q 969 1243 960 1268 q 979 1206 979 1218 q 949 1164 979 1175 m 872 1033 q 827 1099 851 1072 q 772 1153 803 1125 q 698 1121 732 1139 q 629 1078 664 1103 q 617 1096 621 1085 q 613 1113 613 1107 q 631 1154 613 1133 q 678 1193 650 1175 q 732 1222 706 1211 q 774 1233 758 1233 q 813 1219 790 1233 q 856 1181 835 1204 q 890 1131 876 1157 q 903 1083 903 1106 q 897 1056 903 1069 q 872 1033 890 1042 z "},"":{"ha":894,"x_min":39,"x_max":1047,"o":"m 322 -121 q 178 -78 242 -121 q 76 42 114 -36 q 39 226 39 119 q 73 442 39 333 q 165 651 107 551 q 300 830 224 751 q 462 953 376 908 q 636 999 547 999 q 679 994 654 999 q 726 967 704 989 q 710 969 718 968 q 694 969 703 969 q 549 923 622 969 q 408 799 475 876 q 290 623 342 721 q 207 419 238 525 q 176 214 176 314 q 195 78 176 142 q 257 -23 214 15 q 368 -61 300 -61 q 513 -15 446 -61 q 634 111 579 32 q 728 287 689 190 q 788 487 767 383 q 808 683 808 590 q 803 769 808 724 q 784 848 797 815 q 746 881 771 881 q 694 851 722 881 q 639 774 665 821 q 592 677 613 728 q 564 586 572 626 q 502 616 521 596 q 483 663 483 636 q 510 746 483 700 q 577 834 536 792 q 663 904 618 876 q 747 932 708 932 q 812 903 788 932 q 850 828 836 874 q 869 733 864 783 q 875 638 875 682 q 840 373 875 493 q 747 161 806 253 q 617 6 689 69 q 468 -89 544 -57 q 322 -121 392 -121 m 965 1156 q 940 1160 951 1156 q 921 1168 928 1164 q 972 1188 951 1174 q 992 1226 992 1203 q 960 1272 992 1257 q 864 1288 929 1288 q 883 1338 864 1317 q 938 1358 901 1358 q 1015 1325 985 1358 q 1046 1243 1046 1292 q 1024 1180 1046 1204 q 965 1156 1001 1156 m 872 1033 q 827 1099 851 1072 q 772 1153 803 1125 q 698 1121 732 1139 q 629 1078 664 1103 q 617 1096 621 1085 q 613 1113 613 1107 q 631 1154 613 1133 q 678 1193 650 1175 q 732 1222 706 1211 q 774 1233 758 1233 q 813 1219 790 1233 q 856 1181 835 1204 q 890 1131 876 1157 q 903 1083 903 1106 q 897 1056 903 1069 q 872 1033 890 1042 z "},"":{"ha":894,"x_min":39,"x_max":1040,"o":"m 322 -121 q 178 -78 242 -121 q 76 42 114 -36 q 39 226 39 119 q 73 442 39 333 q 165 651 107 551 q 300 830 224 751 q 462 953 376 908 q 636 999 547 999 q 679 994 654 999 q 726 967 704 989 q 710 969 718 968 q 694 969 703 969 q 549 923 622 969 q 408 799 475 876 q 290 623 342 721 q 207 419 238 525 q 176 214 176 314 q 195 78 176 142 q 257 -23 214 15 q 368 -61 300 -61 q 513 -15 446 -61 q 634 111 579 32 q 728 287 689 190 q 788 487 767 383 q 808 683 808 590 q 803 769 808 724 q 784 848 797 815 q 746 881 771 881 q 694 851 722 881 q 639 774 665 821 q 592 677 613 728 q 564 586 572 626 q 502 616 521 596 q 483 663 483 636 q 510 746 483 700 q 577 834 536 792 q 663 904 618 876 q 747 932 708 932 q 812 903 788 932 q 850 828 836 874 q 869 733 864 783 q 875 638 875 682 q 840 373 875 493 q 747 161 806 253 q 617 6 689 69 q 468 -89 544 -57 q 322 -121 392 -121 m 785 1053 q 696 1075 729 1053 q 648 1127 663 1097 q 633 1183 633 1157 q 643 1225 633 1208 q 671 1251 653 1242 q 703 1172 676 1208 q 788 1135 731 1135 q 869 1159 839 1135 q 917 1208 900 1183 q 930 1186 926 1199 q 933 1164 933 1174 q 888 1085 933 1117 q 785 1053 843 1053 m 925 1238 q 845 1254 886 1238 q 763 1287 804 1271 q 683 1303 722 1303 q 642 1299 663 1303 q 599 1285 621 1296 q 651 1344 619 1325 q 722 1363 682 1363 q 802 1346 761 1363 q 885 1313 843 1329 q 971 1296 928 1296 q 1040 1308 1006 1296 q 992 1255 1019 1272 q 925 1238 964 1238 z "},"":{"ha":894,"x_min":39,"x_max":875,"o":"m 322 -121 q 178 -78 242 -121 q 76 42 114 -36 q 39 226 39 119 q 73 442 39 333 q 165 651 107 551 q 300 830 224 751 q 462 953 376 908 q 636 999 547 999 q 679 994 654 999 q 726 967 704 989 q 710 969 718 968 q 694 969 703 969 q 549 923 622 969 q 408 799 475 876 q 290 623 342 721 q 207 419 238 525 q 176 214 176 314 q 195 78 176 142 q 257 -23 214 15 q 368 -61 300 -61 q 513 -15 446 -61 q 634 111 579 32 q 728 287 689 190 q 788 487 767 383 q 808 683 808 590 q 803 769 808 724 q 784 848 797 815 q 746 881 771 881 q 694 851 722 881 q 639 774 665 821 q 592 677 613 728 q 564 586 572 626 q 502 616 521 596 q 483 663 483 636 q 510 746 483 700 q 577 834 536 792 q 663 904 618 876 q 747 932 708 932 q 812 903 788 932 q 850 828 836 874 q 869 733 864 783 q 875 638 875 682 q 840 373 875 493 q 747 161 806 253 q 617 6 689 69 q 468 -89 544 -57 q 322 -121 392 -121 m 697 1043 q 633 1127 668 1083 q 558 1217 599 1171 q 580 1234 568 1226 q 607 1242 592 1242 q 644 1222 625 1242 q 681 1175 664 1203 q 708 1121 697 1147 q 719 1082 719 1094 q 697 1043 719 1056 m 794 1046 q 751 1124 776 1082 q 693 1204 725 1165 q 711 1231 700 1221 q 736 1240 722 1240 q 772 1223 756 1240 q 801 1181 789 1206 q 820 1133 813 1157 q 828 1093 828 1108 q 817 1059 828 1069 q 794 1046 807 1049 z "},"":{"ha":894,"x_min":39,"x_max":933,"o":"m 322 -121 q 178 -78 242 -121 q 76 42 114 -36 q 39 226 39 119 q 73 442 39 333 q 165 651 107 551 q 300 830 224 751 q 462 953 376 908 q 636 999 547 999 q 679 994 654 999 q 726 967 704 989 q 710 969 718 968 q 694 969 703 969 q 549 923 622 969 q 408 799 475 876 q 290 623 342 721 q 207 419 238 525 q 176 214 176 314 q 195 78 176 142 q 257 -23 214 15 q 368 -61 300 -61 q 513 -15 446 -61 q 634 111 579 32 q 728 287 689 190 q 788 487 767 383 q 808 683 808 590 q 803 769 808 724 q 784 848 797 815 q 746 881 771 881 q 694 851 722 881 q 639 774 665 821 q 592 677 613 728 q 564 586 572 626 q 502 616 521 596 q 483 663 483 636 q 510 746 483 700 q 577 834 536 792 q 663 904 618 876 q 747 932 708 932 q 812 903 788 932 q 850 828 836 874 q 869 733 864 783 q 875 638 875 682 q 840 373 875 493 q 747 161 806 253 q 617 6 689 69 q 468 -89 544 -57 q 322 -121 392 -121 m 849 1046 q 810 1057 826 1046 q 793 1092 793 1068 q 824 1138 793 1118 q 885 1157 854 1157 q 919 1148 906 1157 q 933 1114 933 1139 q 907 1068 933 1090 q 849 1046 881 1046 m 649 1074 q 609 1085 626 1074 q 592 1119 592 1096 q 622 1166 592 1146 q 685 1186 653 1186 q 719 1177 706 1186 q 732 1143 732 1168 q 706 1097 732 1119 q 649 1074 681 1074 z "},"":{"ha":894,"x_min":39,"x_max":1046,"o":"m 322 -121 q 178 -78 242 -121 q 76 42 114 -36 q 39 226 39 119 q 73 442 39 333 q 165 651 107 551 q 300 830 224 751 q 462 953 376 908 q 636 999 547 999 q 679 994 654 999 q 726 967 704 989 q 710 969 718 968 q 694 969 703 969 q 549 923 622 969 q 408 799 475 876 q 290 623 342 721 q 207 419 238 525 q 176 214 176 314 q 195 78 176 142 q 257 -23 214 15 q 368 -61 300 -61 q 513 -15 446 -61 q 634 111 579 32 q 728 287 689 190 q 788 487 767 383 q 808 683 808 590 q 803 769 808 724 q 784 848 797 815 q 746 881 771 881 q 694 851 722 881 q 639 774 665 821 q 592 677 613 728 q 564 586 572 626 q 502 616 521 596 q 483 663 483 636 q 510 746 483 700 q 577 834 536 792 q 663 904 618 876 q 747 932 708 932 q 812 903 788 932 q 850 828 836 874 q 869 733 864 783 q 875 638 875 682 q 840 373 875 493 q 747 161 806 253 q 617 6 689 69 q 468 -89 544 -57 q 322 -121 392 -121 m 849 1046 q 810 1057 826 1046 q 793 1092 793 1068 q 824 1138 793 1118 q 885 1157 854 1157 q 919 1148 906 1157 q 933 1114 933 1139 q 907 1068 933 1090 q 849 1046 881 1046 m 649 1074 q 609 1085 626 1074 q 592 1119 592 1096 q 622 1166 592 1146 q 685 1186 653 1186 q 719 1177 706 1186 q 732 1143 732 1168 q 706 1097 732 1119 q 649 1074 681 1074 m 990 1239 q 913 1247 958 1239 q 816 1265 867 1254 q 719 1286 765 1276 q 642 1300 674 1296 q 710 1340 657 1340 q 819 1330 760 1340 q 938 1304 878 1319 q 1046 1272 997 1289 q 990 1239 1028 1239 z "},"":{"ha":894,"x_min":39,"x_max":1024,"o":"m 322 -121 q 178 -78 242 -121 q 76 42 114 -36 q 39 226 39 119 q 73 442 39 333 q 165 651 107 551 q 300 830 224 751 q 462 953 376 908 q 636 999 547 999 q 679 994 654 999 q 726 967 704 989 q 710 969 718 968 q 694 969 703 969 q 549 923 622 969 q 408 799 475 876 q 290 623 342 721 q 207 419 238 525 q 176 214 176 314 q 195 78 176 142 q 257 -23 214 15 q 368 -61 300 -61 q 513 -15 446 -61 q 634 111 579 32 q 728 287 689 190 q 788 487 767 383 q 808 683 808 590 q 803 769 808 724 q 784 848 797 815 q 746 881 771 881 q 694 851 722 881 q 639 774 665 821 q 592 677 613 728 q 564 586 572 626 q 502 616 521 596 q 483 663 483 636 q 510 746 483 700 q 577 834 536 792 q 663 904 618 876 q 747 932 708 932 q 812 903 788 932 q 850 828 836 874 q 869 733 864 783 q 875 638 875 682 q 840 373 875 493 q 747 161 806 253 q 617 6 689 69 q 468 -89 544 -57 q 322 -121 392 -121 m 739 1067 q 696 1080 713 1067 q 679 1118 679 1093 q 710 1169 679 1150 q 772 1189 740 1189 q 813 1176 800 1189 q 826 1140 826 1163 q 799 1089 826 1111 q 739 1067 771 1067 m 968 1232 q 890 1240 936 1232 q 794 1258 844 1247 q 697 1279 743 1269 q 619 1293 651 1289 q 688 1333 635 1333 q 797 1323 738 1333 q 915 1297 856 1313 q 1024 1265 975 1282 q 968 1232 1006 1232 z "},"":{"ha":894,"x_min":39,"x_max":875,"o":"m 322 -121 q 178 -78 242 -121 q 76 42 114 -36 q 39 226 39 119 q 73 442 39 333 q 165 651 107 551 q 300 830 224 751 q 462 953 376 908 q 636 999 547 999 q 679 994 654 999 q 726 967 704 989 q 710 969 718 968 q 694 969 703 969 q 549 923 622 969 q 408 799 475 876 q 290 623 342 721 q 207 419 238 525 q 176 214 176 314 q 195 78 176 142 q 257 -23 214 15 q 368 -61 300 -61 q 513 -15 446 -61 q 634 111 579 32 q 728 287 689 190 q 788 487 767 383 q 808 683 808 590 q 803 769 808 724 q 784 848 797 815 q 746 881 771 881 q 694 851 722 881 q 639 774 665 821 q 592 677 613 728 q 564 586 572 626 q 502 616 521 596 q 483 663 483 636 q 510 746 483 700 q 577 834 536 792 q 663 904 618 876 q 747 932 708 932 q 812 903 788 932 q 850 828 836 874 q 869 733 864 783 q 875 638 875 682 q 840 373 875 493 q 747 161 806 253 q 617 6 689 69 q 468 -89 544 -57 q 322 -121 392 -121 m 254 -353 q 211 -340 228 -353 q 194 -301 194 -326 q 225 -250 194 -269 q 288 -231 256 -231 q 328 -244 315 -231 q 342 -279 342 -257 q 314 -331 342 -308 q 254 -353 286 -353 z "}}}
